<svg height="512pt" viewBox="-20 0 512 512" width="512pt" xmlns="http://www.w3.org/2000/svg"><path d="m100.109375 504.5c-22.242187 0-40.828125-15.664062-45.320313-36.566406-1.082031-5.03125 2.6875-9.792969 7.832032-9.792969h16.953125c11.339843 0 20.535156-9.195313 20.535156-20.535156v-270.21875c0-88.300781 71.585937-159.886719 159.890625-159.886719 88.300781 0 159.886719 71.585938 159.886719 159.886719v270.21875c0 11.339843 9.195312 20.535156 20.535156 20.535156h16.953125c5.144531 0 8.914062 4.765625 7.832031 9.792969-4.492187 20.902344-23.078125 36.566406-45.320312 36.566406zm0 0" fill="#3d4851"/><path d="m259.316406 50.433594c-64.320312.367187-115.878906 53.519531-115.878906 117.839844v56.910156c0 16.800781 13.617188 30.417968 30.414062 30.417968h17.617188c8.285156 0 15 6.714844 15 15 0 11.757813 9.53125 21.285157 21.285156 21.285157h9.070313l7.5-2.144531 7.5 2.144531h14.988281l7.5-2.394531 7.5 2.394531h10.429688c11.757812 0 21.285156-9.527344 21.285156-21.285157 0-8.285156 6.714844-15 15.003906-15h17.613281c16.796875 0 30.414063-13.617187 30.414063-30.417968v-58.191406c0-64.5-52.65625-116.929688-117.242188-116.558594zm0 0" fill="#ebebeb"/><path d="m259.316406 50.433594c-64.320312.367187-115.878906 53.519531-115.878906 117.839844v30c0-64.320313 51.5625-117.472657 115.878906-117.839844 64.585938-.371094 117.242188 52.058594 117.242188 116.558594v-30c0-64.5-52.65625-116.929688-117.242188-116.558594zm0 0" fill="#d5d4da"/><path d="m370.703125 431.457031c-14.910156-17.117187-44.488281-41.71875-102.984375-69.847656-74.074219-35.101563-89.34375-60.558594-112.457031-99.09375-14.09375-23.496094-31.40625-52.359375-65.945313-88.375-4.089844-4.265625-10.882812-4.355469-15.058594-.175781l-9.878906 9.878906c-4.042968 4.042969-4.121094 10.585938-.164062 14.714844 31.660156 33.027344 47.199218 58.929687 61.015625 81.96875 24.492187 40.832031 43.835937 73.082031 127.402343 112.683594 57.214844 27.511718 82.109376 50.039062 92.457032 62.261718 4.082031 4.824219 11.441406 5.023438 15.75.398438l9.625-10.328125c3.675781-3.941407 3.78125-10.023438.238281-14.085938zm0 0" fill="#e3986d"/><path d="m155.261719 262.515625c-7.722657-12.871094-16.417969-27.359375-28.375-43.75l-29.925781 18.386719c11.8125 15.945312 20.328124 30.132812 28.269531 43.375 3.1875 5.316406 6.292969 10.488281 9.460937 15.546875 8.453125-8.058594 17.464844-15.777344 27.015625-22.886719-2.117187-3.453125-4.246093-7.003906-6.445312-10.671875zm0 0" fill="#d97c40"/><path d="m154.863281 219.734375c-7.574219-11.964844-16.9375-25.441406-30.175781-40.699219-6.835938-7.878906-18.863281-8.441406-26.484375-1.320312-34.5 32.242187-117.933594 124.535156-81.835937 235.234375 0 0 46.648437-107.109375 133.636718-168.339844 8.007813-5.632813 10.101563-16.601563 4.859375-24.875zm0 0" fill="#a5b0bc"/><path d="m128.6875 183.738281c-1.296875-1.550781-2.621094-3.113281-4-4.703125-6.835938-7.878906-18.863281-8.445312-26.484375-1.320312-32.113281 30.011718-106.613281 112.066406-87.644531 212.5625 19.269531-94.320313 82.003906-169.652344 118.128906-206.539063zm0 0" fill="#8597a5"/><path d="m267.71875 361.609375c-10.6875-5.066406-20.144531-9.929687-28.585938-14.660156-8.191406 8.363281-13.882812 19.167969-15.875 31.214843 8.820313 4.917969 18.554688 9.921876 29.375 15.046876 30.15625 14.503906 51.324219 27.613281 66.125 38.566406 8.9375-7.71875 15.519532-18.09375 18.484376-29.894532-16.753907-12.117187-39.261719-25.722656-69.523438-40.273437zm0 0" fill="#d97c40"/><path d="m309 387.6875c0 15.609375-12.65625 28.265625-28.265625 28.265625s-28.265625-12.65625-28.265625-28.265625 12.65625-28.265625 28.265625-28.265625 28.265625 12.65625 28.265625 28.265625zm0 0" fill="#ebebeb"/><path d="m252.46875 387.6875c0 11.515625 6.890625 21.414062 16.769531 25.820312 8.207031-5.5625 14.710938-13.3125 18.796875-22.613281 4.085938-9.296875 5.398438-19.335937 3.941406-29.140625-3.445312-1.496094-7.246093-2.332031-11.242187-2.332031-15.609375 0-28.265625 12.65625-28.265625 28.265625zm0 0" fill="#d5d4da"/><path d="m265.597656 359.203125c-5.664062-14.546875-22.046875-21.746094-36.59375-16.082031-14.546875 5.667968-21.746094 22.050781-16.078125 36.597656 5.664063 14.542969 22.046875 21.742188 36.59375 16.078125s21.746094-22.050781 16.078125-36.59375zm0 0" fill="#ebebeb"/><path d="m192.953125 201.683594c-4.140625 0-7.5 3.359375-7.5 7.5v10.890625c0 4.144531 3.359375 7.5 7.5 7.5s7.5-3.355469 7.5-7.5v-10.890625c0-4.140625-3.359375-7.5-7.5-7.5zm0 0"/><path d="m327.027344 201.683594c-4.144532 0-7.5 3.359375-7.5 7.5v10.890625c0 4.144531 3.355468 7.5 7.5 7.5 4.140625 0 7.5-3.355469 7.5-7.5v-10.890625c0-4.140625-3.359375-7.5-7.5-7.5zm0 0"/><path d="m264.53125 219.449219c-1.917969-3.710938-7.25-3.632813-9.066406.128906l-4.835938 10.03125c-1.621094 3.367187.832032 7.269531 4.566406 7.269531h10.027344c3.800782 0 6.25-4.023437 4.503906-7.398437zm0 0"/><path d="m15.96875 302.132812c-4-1.070312-8.117188 1.300782-9.1875 5.300782-9.796875 36.535156-8.976562 72.816406 2.445312 107.839844 2.085938 6.394531 11.324219 6.835937 14.007813.671874.332031-.757812 24.4375-55.296874 69.367187-107.925781v129.585938c0 7.1875-5.851562 13.039062-13.039062 13.039062h-16.949219c-4.703125 0-9.097656 2.097657-12.054687 5.753907-2.976563 3.6875-4.109375 8.464843-3.113282 13.113281 5.296876 24.617187 27.4375 42.488281 52.65625 42.488281h319.773438c25.21875 0 47.363281-17.871094 52.65625-42.488281 1-4.648438-.136719-9.425781-3.113281-13.113281-2.957031-3.65625-7.347657-5.753907-12.050781-5.753907h-16.953126c-7.1875 0-13.039062-5.851562-13.039062-13.039062v-270.21875c.003906-92.296875-75.085938-167.386719-167.386719-167.386719-92.199219 0-167.226562 74.933594-167.382812 167.097656-3.125-2.371094-6.972657-3.710937-10.925781-3.710937-4.808594 0-9.332032 1.875-12.734376 5.273437l-9.878906 9.882813c-6.882812 6.878906-7.003906 18.1875-.273437 25.207031.800781.839844 1.605469 1.683594 2.40625 2.53125-15.757813 19.199219-32.445313 43.671875-44.382813 72.007812-1.605468 3.820313.183594 8.21875 4 9.824219 3.820313 1.609375 8.21875-.183593 9.824219-4 12.378906-29.382812 30.222656-54.46875 46.421875-73.425781 7.800781-9.132812 16.078125-17.855469 24.792969-26.121094 2.535156-2.402344 5.226562-4.296875 8.90625-4.324218h.148437c3.0625.03125 6.089844 1.390624 8.101563 3.710937 10.839843 12.492187 20.660156 25.824219 29.507812 39.792969 3.003907 4.742187 1.871094 11.265625-2.683593 14.601562-11.152344 8.175782-21.945313 16.628906-32.121094 26.007813-.039063.035156-.074219.078125-.117188.117187-26.238281 25.113282-49.417968 52.761719-69.316406 83.164063-11.402344 17.417969-20.023438 32.820312-25.835938 43.960937-5.378906-26.265625-4.441406-53.183594 2.824219-80.277344 1.070313-4-1.300781-8.113281-5.300781-9.1875zm55.039062-107.3125c-.460937-.484374-.921874-.96875-1.386718-1.453124-1.125-1.171876-1.101563-3.066407.050781-4.21875l9.882813-9.882813c1.195312-1.191406 3.179687-1.144531 4.339843.066406.292969.308594.589844.617188.886719.925781-.171875.167969-14.035156 14.289063-13.773438 14.5625zm58.402344-21.71875c-4.523437-4.671874-10.707031-7.496093-17.226562-7.839843-1.542969-.078125-3.070313-.019531-4.570313.164062 1.054688-83.125 69.003907-150.425781 152.375-150.425781 84.027344 0 152.390625 68.359375 152.390625 152.386719v270.21875c0 15.457031 12.574219 28.035156 28.035156 28.035156h16.953126c.082031 0 .234374 0 .382812.183594.183594.226562.132812.457031.117188.53125-3.816407 17.757812-19.792969 30.644531-37.988282 30.644531h-319.777344c-18.195312 0-34.171874-12.886719-37.992187-30.644531-.015625-.074219-.066406-.304688.117187-.53125.148438-.183594.300782-.183594.386719-.183594h16.949219c15.460938 0 28.039062-12.578125 28.039062-28.035156v-146.207031c3.113282-3.261719 6.3125-6.488282 9.589844-9.667969.53125.882812 1.070313 1.777343 1.597656 2.65625 19.519532 32.542969 36.453126 60.738281 85.214844 91.136719.40625 2.339843 1.046875 4.660156 1.929688 6.921874 5.394531 13.847657 18.476562 22.792969 33.332031 22.792969 3.25 0 6.457031-.441406 9.574219-1.316406 5.96875 11.816406 18.101562 19.53125 31.882812 19.53125 3.421875 0 6.730469-.492187 9.863282-1.394531 27.601562 16.667968 41.734374 29.949218 48.769531 38.257812 6.875 8.121094 19.699219 8.460938 26.960937.667969l9.625-10.328125c6.3125-6.773438 6.488282-17.148438.40625-24.128906-13.800781-15.835938-34.339844-31.964844-61.042968-47.96875-4.046876-15.3125-18.015626-26.636719-34.582032-26.636719-3.253906 0-6.488281.460937-9.601562 1.328125-6.066406-11.980469-18.207032-19.554688-31.867188-19.554688-2.292968 0-4.566406.222657-6.800781.660157-38.652344-23.625-52.074219-44.578125-68.960937-72.6875 3.324218.941406 6.800781 1.433593 10.351562 1.433593h17.613281c4.136719 0 7.503907 3.363282 7.503907 7.5 0 15.871094 12.910156 28.785157 28.785156 28.785157h64.488281c15.871094 0 28.78125-12.914063 28.78125-28.785157 0-4.136718 3.367187-7.5 7.503906-7.5h17.613281c20.910157 0 37.917969-17.011718 37.917969-37.917968v-58.191406c0-25.855469-7.914062-50.65625-22.882812-71.71875-2.398438-3.375-7.082031-4.167969-10.457031-1.765626-3.375 2.398438-4.167969 7.082032-1.769532 10.457032 13.15625 18.507812 20.109375 40.300781 20.109375 63.027344v58.191406c0 12.636718-10.28125 22.917968-22.917969 22.917968h-17.613281c-12.40625 0-22.5 10.09375-22.5 22.5 0 7.601563-6.183593 13.785157-13.785156 13.785157h-10.429687v-15.347657c0-4.140624-3.359376-7.5-7.5-7.5-4.144532 0-7.5 3.359376-7.5 7.5v15.347657h-14.988282v-15.347657c0-4.140624-3.359375-7.5-7.5-7.5-4.144531 0-7.5 3.359376-7.5 7.5v15.347657h-9.070312c-7.601563 0-13.785156-6.183594-13.785156-13.785157 0-12.40625-10.09375-22.5-22.5-22.5h-17.617188c-4.707031 0-9.210938-1.429687-12.992188-4.039062 5.265626-7.828125 5.789063-18.160156 1.398438-26.503906-3.144531-5.96875-7.410156-11.675782-11.324219-17.207032v-32.078124c0-60.5 48.640625-110 108.425781-110.339844 26.160157-.167969 51.542969 9.148437 71.453126 26.1875 3.148437 2.691406 7.878906 2.324218 10.574218-.824219 2.695313-3.144531 2.324219-7.878906-.820312-10.574219-22.46875-19.230468-51.058594-29.792968-80.582032-29.792968-.234374 0-.472656 0-.710937.003906-68.007813.390625-123.335937 56.617187-123.335937 125.339844v12.453124c-.640626-.773437-6.203126-7.292968-6.519532-7.625zm186.050782 223.144532c21.515624 13.5625 38.164062 27.035156 49.578124 40.136718 1.019532 1.171876.988282 2.910157-.070312 4.046876l-9.625 10.332031c-1.234375 1.324219-3.378906 1.234375-4.539062-.132813-7.109376-8.402344-20.597657-21.292968-45.394532-37.035156 3.929688-3.734375 6.933594-8.320312 8.820313-13.40625.066406-.171875.949219-2.78125 1.230469-3.941406zm-14.128907-11.050782c1.550781 12.117188-8.457031 23.257813-20.609375 23.257813-8.058594 0-15.148437-4.542969-18.585937-11.484375 4.214843-3.5 7.597656-7.949219 9.867187-13.113281 2.269532-5.160157 3.257813-10.65625 2.988282-16.125 1.855468-.53125 3.789062-.808594 5.730468-.808594 10.320313 0 19.316406 8.191406 20.609375 18.273437zm-41.804687-19.890624c2.773437 12.523437-7.519532 24.9375-20.257813 24.9375-11.066406 0-20.441406-9.15625-20.75-20.207032-.320312-11.421875 9.21875-21.339844 20.734375-21.339844 9.902344 0 18.234375 7.421876 20.273438 16.609376zm-43.265625-23.246094c-1.171875.980468-2.277344 2.046875-3.3125 3.171875-2.683594 2.917969-4.871094 6.28125-6.457031 9.914062-.476563 1.09375-.921876 2.203125-1.285157 3.34375-40.53125-26.761719-55.253906-51.3125-73.550781-81.820312-1.066406-1.769531-2.140625-3.5625-3.230469-5.367188 1.589844-1.410156 11.921875-10.085937 15.578125-12.925781 1.699219 2.800781 3.316406 5.492188 4.816406 7.996094 16.980469 28.308594 30.691407 51.171875 67.589844 75.566406-.050781.039062-.097656.082031-.148437.121094zm0 0"/></svg>