<?xml version="1.0" encoding="utf-8"?>
<!-- Generator: Adobe Illustrator 16.0.0, SVG Export Plug-In . SVG Version: 6.00 Build 0)  -->
<!DOCTYPE svg PUBLIC "-//W3C//DTD SVG 1.1//EN" "http://www.w3.org/Graphics/SVG/1.1/DTD/svg11.dtd">
<svg version="1.1" id="Layer_1" xmlns="http://www.w3.org/2000/svg" xmlns:xlink="http://www.w3.org/1999/xlink" x="0px" y="0px"
	 width="50px" height="50px" viewBox="1029.282 -616.786 50 50" enable-background="new 1029.282 -616.786 50 50"
	 xml:space="preserve">
<circle fill="#3FB1CF" cx="1054.282" cy="-591.786" r="25"/>
<g>
	<path fill="#EBEBEB" d="M1043.409-575.788c-1.611,0-2.957-1.135-3.282-2.648c-0.079-0.364,0.194-0.709,0.566-0.709h1.229
		c0.82,0,1.487-0.666,1.487-1.487v-19.57c0-6.396,5.186-11.58,11.58-11.58s11.579,5.185,11.579,11.58v19.57
		c0,0.821,0.667,1.487,1.487,1.487h1.229c0.373,0,0.645,0.345,0.566,0.709c-0.325,1.514-1.671,2.648-3.282,2.648H1043.409
		L1043.409-575.788z"/>
	<path fill="#EBEBEB" d="M1054.938-608.674c-4.657,0.027-8.392,3.876-8.392,8.535v4.122c0,1.217,0.985,2.203,2.202,2.203h1.276
		c0.601,0,1.086,0.486,1.086,1.086c0,0.851,0.69,1.542,1.542,1.542h0.657l0.543-0.155l0.543,0.155h1.086l0.542-0.173l0.545,0.173
		h0.755c0.852,0,1.541-0.69,1.541-1.542c0-0.601,0.486-1.086,1.087-1.086h1.275c1.217,0,2.203-0.986,2.203-2.203v-4.214
		C1063.43-604.904,1059.617-608.701,1054.938-608.674z"/>
	<path fill="#D5D4DA" d="M1054.938-608.674c-4.657,0.027-8.392,3.876-8.392,8.535v2.172c0-4.658,3.735-8.507,8.392-8.534
		c4.679-0.027,8.492,3.771,8.492,8.441v-2.172C1063.43-604.904,1059.617-608.701,1054.938-608.674z"/>
	<path fill="#EBEBEB" d="M1063.006-581.078c-1.079-1.24-3.221-3.021-7.458-5.059c-5.364-2.543-6.471-4.387-8.145-7.177
		c-1.021-1.702-2.275-3.792-4.776-6.4c-0.296-0.309-0.787-0.315-1.09-0.013l-0.716,0.715c-0.293,0.293-0.298,0.767-0.012,1.066
		c2.293,2.391,3.418,4.268,4.419,5.936c1.773,2.957,3.175,5.293,9.227,8.161c4.144,1.992,5.946,3.624,6.696,4.509
		c0.296,0.349,0.828,0.364,1.142,0.028l0.696-0.748C1063.256-580.344,1063.263-580.784,1063.006-581.078z"/>
	<path fill="#EBEBEB" d="M1047.403-593.314c-0.561-0.932-1.189-1.981-2.055-3.168l-2.168,1.332c0.855,1.155,1.473,2.183,2.048,3.142
		c0.23,0.385,0.455,0.76,0.685,1.125c0.613-0.583,1.266-1.142,1.957-1.657C1047.717-592.791,1047.561-593.049,1047.403-593.314z"/>
	<path fill="#EBEBEB" d="M1047.374-596.412c-0.548-0.866-1.227-1.843-2.186-2.947c-0.495-0.571-1.365-0.612-1.917-0.096
		c-2.5,2.335-8.542,9.019-5.928,17.036c0,0,3.379-7.757,9.679-12.191C1047.602-595.019,1047.754-595.814,1047.374-596.412z"/>
	<path fill="#8597A5" d="M1045.478-599.02c-0.095-0.112-0.189-0.225-0.29-0.34c-0.495-0.571-1.365-0.612-1.917-0.096
		c-2.326,2.173-7.722,8.116-6.349,15.394C1038.319-590.892,1042.862-596.347,1045.478-599.02z"/>
	<path fill="#EBEBEB" d="M1058.538-584.248c0,1.13-0.917,2.047-2.047,2.047c-1.131,0-2.048-0.917-2.048-2.047
		s0.917-2.047,2.048-2.047C1057.621-586.296,1058.538-585.379,1058.538-584.248z"/>
	<path fill="#D5D4DA" d="M1054.443-584.248c0,0.834,0.499,1.551,1.215,1.87c0.595-0.403,1.065-0.964,1.361-1.637
		c0.296-0.674,0.392-1.401,0.285-2.111c-0.249-0.108-0.524-0.168-0.813-0.168C1055.36-586.296,1054.443-585.379,1054.443-584.248z"
		/>
	<path fill="#EBEBEB" d="M1055.394-586.312c-0.411-1.053-1.598-1.575-2.65-1.165c-1.055,0.411-1.576,1.598-1.164,2.651
		c0.41,1.053,1.596,1.575,2.649,1.164C1055.283-584.072,1055.804-585.258,1055.394-586.312z"/>
	<path d="M1050.134-597.719c-0.301,0-0.544,0.243-0.544,0.543v0.789c0,0.301,0.243,0.543,0.544,0.543c0.3,0,0.542-0.242,0.542-0.543
		v-0.789C1050.676-597.477,1050.433-597.719,1050.134-597.719z"/>
	<path d="M1059.844-597.719c-0.301,0-0.544,0.243-0.544,0.543v0.789c0,0.301,0.243,0.543,0.544,0.543c0.3,0,0.543-0.242,0.543-0.543
		v-0.789C1060.386-597.477,1060.143-597.719,1059.844-597.719z"/>
	<path d="M1055.316-596.433c-0.139-0.269-0.524-0.263-0.655,0.009l-0.351,0.727c-0.118,0.244,0.06,0.527,0.33,0.527h0.726
		c0.275,0,0.454-0.292,0.327-0.536L1055.316-596.433z"/>
	<path d="M1037.314-590.445c-0.289-0.077-0.588,0.095-0.664,0.384c-0.711,2.646-0.651,5.273,0.177,7.811
		c0.15,0.463,0.819,0.495,1.014,0.048c0.024-0.055,1.771-4.005,5.024-7.817v9.386c0,0.521-0.424,0.944-0.944,0.944h-1.228
		c-0.341,0-0.659,0.152-0.873,0.417c-0.215,0.267-0.298,0.613-0.226,0.95c0.384,1.783,1.987,3.077,3.813,3.077h23.158
		c1.827,0,3.432-1.294,3.814-3.077c0.072-0.336-0.01-0.683-0.226-0.95c-0.214-0.265-0.531-0.417-0.873-0.417h-1.227
		c-0.521,0-0.944-0.424-0.944-0.944v-19.57c0-6.685-5.438-12.123-12.123-12.123c-6.678,0-12.111,5.427-12.123,12.102
		c-0.227-0.172-0.505-0.269-0.791-0.269c-0.349,0-0.676,0.136-0.922,0.382l-0.717,0.716c-0.498,0.498-0.507,1.318-0.02,1.826
		c0.059,0.061,0.117,0.122,0.174,0.183c-1.141,1.391-2.35,3.163-3.214,5.215c-0.116,0.277,0.014,0.595,0.29,0.711
		c0.276,0.117,0.596-0.013,0.712-0.289c0.896-2.128,2.188-3.945,3.361-5.318c0.565-0.662,1.164-1.293,1.796-1.892
		c0.183-0.174,0.379-0.312,0.645-0.314h0.012c0.222,0.002,0.44,0.101,0.586,0.269c0.784,0.905,1.497,1.871,2.137,2.883
		c0.218,0.343,0.136,0.815-0.193,1.057c-0.809,0.592-1.591,1.205-2.327,1.884c-0.003,0.003-0.005,0.006-0.009,0.009
		c-1.899,1.818-3.577,3.821-5.019,6.023c-0.827,1.261-1.451,2.376-1.872,3.184c-0.39-1.902-0.321-3.852,0.205-5.814
		C1037.775-590.069,1037.604-590.367,1037.314-590.445z M1041.302-598.217c-0.034-0.035-0.067-0.07-0.101-0.105
		c-0.082-0.085-0.08-0.222,0.003-0.306l0.716-0.715c0.087-0.086,0.23-0.083,0.314,0.004c0.021,0.022,0.042,0.045,0.064,0.067
		C1042.286-599.26,1041.282-598.237,1041.302-598.217z M1045.531-599.79c-0.328-0.338-0.775-0.542-1.248-0.567
		c-0.111-0.005-0.223-0.001-0.33,0.012c0.075-6.021,4.997-10.895,11.035-10.895c6.085,0,11.036,4.951,11.036,11.037v19.57
		c0,1.119,0.911,2.03,2.031,2.03h1.227c0.007,0,0.018,0,0.028,0.013c0.013,0.017,0.01,0.033,0.008,0.039
		c-0.274,1.286-1.433,2.22-2.75,2.22h-23.16c-1.318,0-2.476-0.934-2.752-2.22c-0.001-0.005-0.004-0.022,0.009-0.039
		c0.011-0.013,0.022-0.013,0.028-0.013h1.228c1.119,0,2.03-0.911,2.03-2.03v-10.589c0.226-0.236,0.458-0.47,0.694-0.7
		c0.039,0.063,0.078,0.128,0.116,0.192c1.414,2.357,2.641,4.399,6.172,6.601c0.029,0.169,0.076,0.337,0.14,0.501
		c0.391,1.003,1.338,1.65,2.414,1.65c0.235,0,0.467-0.031,0.693-0.095c0.433,0.856,1.311,1.415,2.31,1.415
		c0.247,0,0.487-0.036,0.714-0.101c2,1.207,3.023,2.169,3.532,2.771c0.498,0.588,1.426,0.613,1.952,0.048l0.697-0.748
		c0.458-0.491,0.47-1.242,0.029-1.748c-0.999-1.147-2.487-2.315-4.421-3.474c-0.293-1.109-1.305-1.929-2.504-1.929
		c-0.236,0-0.47,0.034-0.696,0.097c-0.438-0.868-1.318-1.417-2.308-1.417c-0.166,0-0.331,0.016-0.493,0.047
		c-2.799-1.711-3.771-3.228-4.994-5.264c0.241,0.068,0.492,0.104,0.75,0.104h1.275c0.3,0,0.544,0.244,0.544,0.543
		c0,1.149,0.935,2.084,2.085,2.084h4.67c1.149,0,2.084-0.935,2.084-2.084c0-0.299,0.244-0.543,0.544-0.543h1.276
		c1.514,0,2.745-1.232,2.745-2.746v-4.214c0-1.873-0.572-3.669-1.657-5.194c-0.174-0.245-0.513-0.302-0.756-0.128
		c-0.245,0.173-0.303,0.513-0.129,0.757c0.952,1.34,1.456,2.919,1.456,4.564v4.215c0,0.915-0.745,1.66-1.659,1.66h-1.276
		c-0.898,0-1.63,0.731-1.63,1.63c0,0.55-0.448,0.998-0.998,0.998h-0.755v-1.111c0-0.3-0.244-0.543-0.544-0.543
		s-0.543,0.243-0.543,0.543v1.111h-1.086v-1.111c0-0.3-0.242-0.543-0.543-0.543c-0.3,0-0.543,0.243-0.543,0.543v1.111h-0.656
		c-0.552,0-0.999-0.448-0.999-0.998c0-0.899-0.73-1.63-1.629-1.63h-1.276c-0.341,0-0.668-0.104-0.94-0.292
		c0.38-0.567,0.419-1.315,0.101-1.92c-0.228-0.433-0.536-0.845-0.819-1.246v-2.323c0-4.382,3.521-7.967,7.852-7.992
		c1.895-0.012,3.733,0.663,5.176,1.896c0.229,0.195,0.57,0.168,0.766-0.06c0.194-0.228,0.168-0.571-0.06-0.766
		c-1.627-1.393-3.697-2.158-5.836-2.158c-0.018,0-0.035,0-0.052,0c-4.925,0.028-8.933,4.101-8.933,9.078v0.902
		C1045.957-599.294,1045.553-599.766,1045.531-599.79z M1059.006-583.629c1.558,0.982,2.764,1.958,3.591,2.907
		c0.073,0.084,0.071,0.21-0.006,0.292l-0.696,0.749c-0.09,0.095-0.245,0.089-0.328-0.01c-0.516-0.608-1.493-1.542-3.289-2.682
		c0.285-0.271,0.503-0.603,0.639-0.971C1058.921-583.356,1058.985-583.545,1059.006-583.629z M1057.982-584.429
		c0.112,0.877-0.612,1.685-1.492,1.685c-0.585,0-1.098-0.329-1.347-0.832c0.306-0.253,0.551-0.576,0.714-0.95
		c0.165-0.374,0.237-0.772,0.218-1.167c0.134-0.039,0.274-0.059,0.415-0.059C1057.237-585.753,1057.889-585.159,1057.982-584.429z
		 M1054.955-585.869c0.201,0.907-0.544,1.806-1.467,1.806c-0.803,0-1.48-0.663-1.505-1.463c-0.021-0.827,0.67-1.546,1.503-1.546
		C1054.204-587.073,1054.806-586.535,1054.955-585.869z M1051.821-587.553c-0.085,0.072-0.165,0.149-0.241,0.23
		c-0.193,0.211-0.352,0.455-0.466,0.718c-0.035,0.079-0.067,0.159-0.094,0.242c-2.936-1.938-4.002-3.716-5.327-5.926
		c-0.077-0.128-0.155-0.258-0.233-0.389c0.115-0.102,0.863-0.73,1.128-0.936c0.123,0.203,0.241,0.398,0.35,0.579
		c1.229,2.05,2.222,3.706,4.895,5.473C1051.828-587.559,1051.824-587.556,1051.821-587.553z"/>
</g>
</svg>
