<?xml version="1.0" encoding="utf-8"?>
<!-- Generator: Adobe Illustrator 16.0.0, SVG Export Plug-In . SVG Version: 6.00 Build 0)  -->
<!DOCTYPE svg PUBLIC "-//W3C//DTD SVG 1.1//EN" "http://www.w3.org/Graphics/SVG/1.1/DTD/svg11.dtd">
<svg version="1.1" id="Layer_1" xmlns="http://www.w3.org/2000/svg" xmlns:xlink="http://www.w3.org/1999/xlink" x="0px" y="0px"
	 width="1200px" height="1200px" viewBox="0 0 1200 1200" enable-background="new 0 0 1200 1200" xml:space="preserve">
<g display="none">
	<rect x="533.72" y="537.215" display="inline" fill="#000033" width="137.539" height="19.648"/>
	<path display="inline" fill="#000033" d="M666.665,341.588h-14.42v28.839h14.42c7.951,0,14.419-6.467,14.419-14.419
		S674.616,341.588,666.665,341.588z"/>
	<path display="inline" fill="#000033" d="M789.149,615.809h-373.32c-10.834,0-19.648,8.814-19.648,19.648v19.65h412.617v-19.65
		C808.798,624.623,799.984,615.809,789.149,615.809z"/>
	<path display="inline" fill="#000033" d="M538.316,341.587h-14.42v28.84h14.42c7.952,0,14.419-6.468,14.419-14.42
		S546.268,341.587,538.316,341.587z"/>
	<path display="inline" fill="#000033" d="M593.49,11.25c-216.414,0-392.501,176.085-392.501,392.501
		c0,239.181,337.453,742.071,351.827,763.364c9.076,13.492,24.286,21.586,40.524,21.635h0.149c16.239,0,31.398-7.996,40.525-21.391
		c14.375-21.047,351.974-518.246,351.974-763.608C985.991,187.334,809.904,11.25,593.49,11.25z M470.498,226.426l0.005-0.005
		c3.838-3.835,10.057-3.835,13.895,0c3.836,3.837,3.836,10.058,0,13.895c-1.919,1.918-4.435,2.878-6.951,2.878
		c-2.514,0-5.027-0.958-6.946-2.876C466.665,236.479,466.662,230.262,470.498,226.426z M828.446,664.932
		c0,5.426-4.398,9.824-9.824,9.824H386.356c-5.425,0-9.824-4.398-9.824-9.824v-29.475c0-21.668,17.628-39.296,39.297-39.296V358.413
		c0-35.164,9.95-69.487,28.775-99.26c2.899-4.585,8.965-5.953,13.554-3.052c4.586,2.9,5.952,8.969,3.052,13.555
		c-16.834,26.625-25.733,57.317-25.733,88.758v237.748h334.023V358.413c0-92.09-74.921-167.012-167.012-167.012
		c-31.436,0-62.127,8.899-88.756,25.733c-4.586,2.901-10.655,1.531-13.555-3.054c-2.898-4.586-1.531-10.654,3.054-13.554
		c29.776-18.824,64.1-28.773,99.257-28.773c49.663,0,96.484,19.47,131.838,54.823c35.353,35.354,54.822,82.174,54.822,131.837
		v237.748c21.668,0,39.297,17.628,39.297,39.296V664.932z M592.669,478.269h58.941c5.426,0,9.824,4.399,9.824,9.824
		c0,5.424-4.398,9.824-9.824,9.824h-58.941c-5.425,0-9.824-4.4-9.824-9.824C582.845,482.668,587.243,478.269,592.669,478.269z
		 M592.666,413.427v-81.664c0-5.425,4.399-9.824,9.824-9.824s9.824,4.399,9.824,9.824v81.664c0,5.425-4.399,9.824-9.824,9.824
		S592.666,418.853,592.666,413.427z M666.665,390.075h-14.42v23.353c0,5.425-4.4,9.824-9.824,9.824
		c-5.426,0-9.824-4.399-9.824-9.824v-81.664c0-5.425,4.398-9.824,9.824-9.824h24.244c18.784,0,34.067,15.282,34.067,34.067
		C700.732,374.791,685.449,390.075,666.665,390.075z M700.732,413.426c0,5.425-4.397,9.824-9.824,9.824
		c-5.426,0-9.828-4.399-9.828-9.824c0-5.425,4.396-9.824,9.821-9.824h0.007C696.334,403.602,700.732,408.001,700.732,413.426z
		 M681.083,517.567c5.426,0,9.824,4.398,9.824,9.824v39.297c0,5.425-4.398,9.824-9.824,9.824H523.896
		c-5.425,0-9.824-4.399-9.824-9.824v-39.297c0-5.426,4.399-9.824,9.824-9.824H681.083z M543.548,488.093
		c0-5.425,4.396-9.824,9.82-9.824h0.008c5.425,0,9.824,4.399,9.824,9.824c0,5.424-4.398,9.824-9.824,9.824
		C547.95,497.917,543.548,493.518,543.548,488.093z M565.977,408.515c2.714,4.699,1.104,10.706-3.596,13.42
		c-1.546,0.893-3.236,1.318-4.902,1.318c-3.396,0-6.697-1.763-8.518-4.914l-16.318-28.265h-8.749v23.353
		c0,5.425-4.399,9.824-9.824,9.824s-9.824-4.399-9.824-9.824v-81.664c0-5.425,4.399-9.824,9.824-9.824h24.245
		c18.785,0,34.068,15.284,34.068,34.068c0,13.404-7.783,25.021-19.067,30.578L565.977,408.515z"/>
</g>
<g display="none">
	<rect x="533.72" y="537.215" display="inline" fill="#000033" width="137.539" height="19.648"/>
	<path display="inline" fill="#000033" d="M666.665,341.588h-14.42v28.839h14.42c7.951,0,14.419-6.467,14.419-14.419
		S674.616,341.588,666.665,341.588z"/>
	<path display="inline" fill="#000033" d="M789.149,615.809h-373.32c-10.834,0-19.648,8.814-19.648,19.648v19.65h412.617v-19.65
		C808.798,624.623,799.984,615.809,789.149,615.809z"/>
	<path display="inline" fill="#000033" d="M538.316,341.587h-14.42v28.84h14.42c7.952,0,14.419-6.468,14.419-14.42
		S546.268,341.587,538.316,341.587z"/>
	<path display="inline" fill="#000033" d="M593.49,11.25c-216.414,0-392.501,176.085-392.501,392.501
		c0,239.181,337.453,742.071,351.827,763.364c9.076,13.492,24.286,21.586,40.524,21.635h0.149c16.239,0,31.398-7.996,40.525-21.391
		c14.375-21.047,351.974-518.246,351.974-763.608C985.991,187.334,809.904,11.25,593.49,11.25z M470.498,226.426l0.005-0.005
		c3.838-3.835,10.057-3.835,13.895,0c3.836,3.837,3.836,10.058,0,13.895c-1.919,1.918-4.435,2.878-6.951,2.878
		c-2.514,0-5.027-0.958-6.946-2.876C466.665,236.479,466.662,230.262,470.498,226.426z M828.446,664.932
		c0,5.426-4.398,9.824-9.824,9.824H386.356c-5.425,0-9.824-4.398-9.824-9.824v-29.475c0-21.668,17.628-39.296,39.297-39.296V358.413
		c0-35.164,9.95-69.487,28.775-99.26c2.899-4.585,8.965-5.953,13.554-3.052c4.586,2.9,5.952,8.969,3.052,13.555
		c-16.834,26.625-25.733,57.317-25.733,88.758v237.748h334.023V358.413c0-92.09-74.921-167.012-167.012-167.012
		c-31.436,0-62.127,8.899-88.756,25.733c-4.586,2.901-10.655,1.531-13.555-3.054c-2.898-4.586-1.531-10.654,3.054-13.554
		c29.776-18.824,64.1-28.773,99.257-28.773c49.663,0,96.484,19.47,131.838,54.823c35.353,35.354,54.822,82.174,54.822,131.837
		v237.748c21.668,0,39.297,17.628,39.297,39.296V664.932z M592.669,478.269h58.941c5.426,0,9.824,4.399,9.824,9.824
		c0,5.424-4.398,9.824-9.824,9.824h-58.941c-5.425,0-9.824-4.4-9.824-9.824C582.845,482.668,587.243,478.269,592.669,478.269z
		 M592.666,413.427v-81.664c0-5.425,4.399-9.824,9.824-9.824s9.824,4.399,9.824,9.824v81.664c0,5.425-4.399,9.824-9.824,9.824
		S592.666,418.853,592.666,413.427z M666.665,390.075h-14.42v23.353c0,5.425-4.4,9.824-9.824,9.824
		c-5.426,0-9.824-4.399-9.824-9.824v-81.664c0-5.425,4.398-9.824,9.824-9.824h24.244c18.784,0,34.067,15.282,34.067,34.067
		C700.732,374.791,685.449,390.075,666.665,390.075z M700.732,413.426c0,5.425-4.397,9.824-9.824,9.824
		c-5.426,0-9.828-4.399-9.828-9.824c0-5.425,4.396-9.824,9.821-9.824h0.007C696.334,403.602,700.732,408.001,700.732,413.426z
		 M681.083,517.567c5.426,0,9.824,4.398,9.824,9.824v39.297c0,5.425-4.398,9.824-9.824,9.824H523.896
		c-5.425,0-9.824-4.399-9.824-9.824v-39.297c0-5.426,4.399-9.824,9.824-9.824H681.083z M543.548,488.093
		c0-5.425,4.396-9.824,9.82-9.824h0.008c5.425,0,9.824,4.399,9.824,9.824c0,5.424-4.398,9.824-9.824,9.824
		C547.95,497.917,543.548,493.518,543.548,488.093z M565.977,408.515c2.714,4.699,1.104,10.706-3.596,13.42
		c-1.546,0.893-3.236,1.318-4.902,1.318c-3.396,0-6.697-1.763-8.518-4.914l-16.318-28.265h-8.749v23.353
		c0,5.425-4.399,9.824-9.824,9.824s-9.824-4.399-9.824-9.824v-81.664c0-5.425,4.399-9.824,9.824-9.824h24.245
		c18.785,0,34.068,15.284,34.068,34.068c0,13.404-7.783,25.021-19.067,30.578L565.977,408.515z"/>
</g>
<g display="none">
	<g display="inline">
		<path fill="#272343" d="M598.502,10C382.088,10,206,186.085,206,402.501c0,239.18,337.454,742.071,351.828,763.364
			c9.076,13.492,24.286,21.587,40.524,21.636h0.149c16.239,0,31.398-7.996,40.525-21.391
			c14.375-21.047,351.974-518.247,351.974-763.609C991.003,186.085,814.916,10,598.502,10z M745.69,451.563h-98.127v235.501
			c0,27.082-21.979,49.062-49.062,49.062c-27.082,0-49.062-21.979-49.062-49.062V451.563h-98.126
			c-27.083,0-49.062-21.979-49.062-49.062c0-27.083,21.979-49.062,49.062-49.062h98.126v-98.126
			c0-27.083,21.979-49.062,49.062-49.062c27.083,0,49.062,21.979,49.062,49.062v98.126h98.127c27.082,0,49.061,21.979,49.061,49.062
			C794.751,429.583,772.772,451.563,745.69,451.563z"/>
	</g>
</g>
<g display="none">
	<path display="inline" fill="#57A4FF" d="M1134.72,85.421l-40.574-18.049l-18.065-40.59l-44.156,4.611L996,5.341l-35.945,26.052
		l-44.135-4.611l-18.052,40.572l-40.59,18.067l4.613,44.156l-26.052,35.924l26.052,35.945l-4.613,44.136l40.574,18.049l18.067,40.59
		l44.155-4.611L996,325.662l35.944-26.053l44.136,4.611l18.05-40.574l40.59-18.064l-4.614-44.156l26.055-35.924l-26.055-35.945
		L1134.72,85.421z M963.968,229.566l-45.327-45.327l15.109-15.055l30.218,30.163l90.596-90.596l15.109,15.106L963.968,229.566z"/>
	<path display="inline" fill="#1E81CE" d="M1160.485,162.368l-24.858-34.292l4.405-42.115c0.24-2.302-1.027-4.494-3.142-5.435
		l-38.692-17.218l-17.218-38.695c-0.946-2.109-3.136-3.373-5.436-3.144l-42.122,4.403L999.134,1.016
		c-1.869-1.355-4.398-1.355-6.268,0l-34.292,24.855l-42.12-4.403c-2.297-0.219-4.479,1.043-5.435,3.139l-17.218,38.695
		l-38.695,17.223c-2.111,0.938-3.378,3.13-3.139,5.43l4.403,42.121l-24.856,34.292c-1.355,1.869-1.355,4.397,0,6.267l24.856,34.29
		l-4.403,42.123c-0.242,2.3,1.024,4.494,3.139,5.436l38.695,17.218l17.218,38.694c0.951,2.102,3.135,3.365,5.435,3.145l42.12-4.406
		l34.292,24.858c1.869,1.356,4.398,1.356,6.268,0l34.289-24.858l42.122,4.406c2.3,0.231,4.487-1.033,5.436-3.139l17.218-38.695
		l38.692-17.223c2.112-0.941,3.379-3.131,3.142-5.43l-4.405-42.123l24.858-34.29C1161.843,166.77,1161.843,164.237,1160.485,162.368
		z M1125.783,198.313c-0.774,1.066-1.126,2.38-0.988,3.688l4.208,40.295l-37.024,16.482c-1.209,0.532-2.179,1.496-2.713,2.706
		l-16.47,37.024l-40.307-4.213c-1.309-0.135-2.62,0.219-3.684,0.993L996,319.069l-32.812-23.779
		c-0.91-0.665-2.005-1.021-3.129-1.019c-0.188,0-0.375,0-0.534,0.025l-40.309,4.213l-16.469-37.024
		c-0.537-1.21-1.501-2.177-2.711-2.714l-37.045-16.475l4.207-40.295c0.136-1.309-0.216-2.623-0.988-3.688l-23.778-32.812
		l23.778-32.812c0.772-1.066,1.124-2.38,0.988-3.688l-4.207-40.298l37.024-16.479c1.209-0.532,2.176-1.497,2.71-2.706l16.47-37.024
		l40.309,4.213c1.306,0.13,2.617-0.224,3.684-0.993L996,11.933l32.812,23.779c1.063,0.771,2.374,1.124,3.683,0.993l40.307-4.213
		l16.47,37.024c0.537,1.209,1.504,2.174,2.714,2.711l37.023,16.475l-4.207,40.298c-0.139,1.309,0.214,2.623,0.988,3.688
		l23.775,32.812L1125.783,198.313z"/>
	<path display="inline" fill="#1E81CE" d="M1058.338,104.977c-2.085-2.085-5.464-2.085-7.549,0l-86.821,86.821l-26.442-26.394
		c-2.083-2.078-5.456-2.078-7.539,0l-15.136,15.043c-1.003,1.001-1.568,2.362-1.568,3.78c0,1.418,0.565,2.779,1.568,3.78
		l45.327,45.327c2.082,2.082,5.464,2.082,7.549,0l105.705-105.708c2.082-2.083,2.082-5.463,0-7.549L1058.338,104.977z
		 M963.968,222.016l-37.772-37.772l7.55-7.531l26.453,26.399c2.083,2.08,5.459,2.08,7.544,0l86.821-86.813l7.56,7.56
		L963.968,222.016z"/>
</g>
<path display="none" d="M600,9C351.83,9,149.927,210.903,149.927,459.073c0,102.364,33.494,198.827,96.866,278.944L600,1184.701
	l353.208-446.684c63.373-80.128,96.865-176.58,96.865-278.944C1050.072,210.903,848.17,9,600,9z"/>
<g display="none">
	<path display="inline" fill="#B21F66" d="M542.147,465.073h-9.707v19.414h9.707c5.354,0,9.708-4.354,9.708-9.706
		S547.501,465.073,542.147,465.073z"/>
	<path display="inline" fill="#B21F66" d="M374,658.363c-5.515,0-10.001,4.486-10.001,10.002v10h273.35v-10
		c0-5.516-4.488-10.002-10.002-10.002H374z"/>
	<path display="inline" fill="#B21F66" d="M610.681,524.379v-40.002v-4.024c0-32.628-14.284-61.978-36.919-82.14
		c-0.682-0.457-1.298-1.002-1.847-1.609c-19.208-16.363-44.089-26.256-71.24-26.256c-60.658,0-110.007,49.349-110.007,110.006
		v158.009h220.014V524.379z M492.331,458.459c0-3.652,2.961-6.614,6.614-6.614c3.651,0,6.614,2.962,6.614,6.614v54.976
		c0,3.652-2.962,6.614-6.614,6.614c-3.652,0-6.614-2.96-6.614-6.614V458.459z M492.333,557.088h39.68
		c3.652,0,6.614,2.961,6.614,6.613s-2.961,6.614-6.614,6.614h-39.68c-3.652,0-6.614-2.962-6.614-6.614
		S488.681,557.088,492.333,557.088z M432.806,513.435v-54.976c0-3.652,2.961-6.614,6.614-6.614h16.322
		c12.646,0,22.935,10.289,22.935,22.936c0,9.023-5.24,16.844-12.837,20.585l8.523,14.763c1.827,3.164,0.743,7.208-2.421,9.034
		c-1.04,0.601-2.178,0.889-3.3,0.889c-2.286,0-4.508-1.188-5.734-3.309l-10.984-19.028h-5.89v15.721
		c0,3.652-2.961,6.614-6.614,6.614S432.806,517.087,432.806,513.435z M472.494,563.702c0,3.652-2.96,6.614-6.614,6.614
		c-3.652,0-6.616-2.962-6.616-6.614s2.959-6.613,6.611-6.613h0.005C469.533,557.088,472.494,560.049,472.494,563.702z
		 M558.468,616.611c0,3.652-2.961,6.615-6.614,6.615h-105.82c-3.651,0-6.613-2.963-6.613-6.615v-26.455
		c0-3.652,2.961-6.613,6.613-6.613h105.82c3.652,0,6.614,2.961,6.614,6.613V616.611z M558.469,520.049
		c-3.653,0-6.617-2.962-6.617-6.614s2.959-6.613,6.611-6.613h0.005c3.652,0,6.614,2.961,6.614,6.613
		S562.121,520.049,558.469,520.049z M542.147,497.714h-9.707v15.721c0,3.652-2.962,6.614-6.614,6.614
		c-3.652,0-6.614-2.962-6.614-6.614v-54.976c0-3.652,2.961-6.614,6.614-6.614h16.321c12.646,0,22.936,10.289,22.936,22.934
		C565.083,487.426,554.793,497.714,542.147,497.714z"/>
	<rect x="452.648" y="596.771" display="inline" fill="#B21F66" width="92.592" height="13.227"/>
	<path display="inline" fill="#B21F66" d="M600,9C351.83,9,149.928,210.903,149.928,459.073
		c0,102.364,33.493,198.827,96.866,278.944L600,1184.701l353.207-446.684c63.373-80.128,96.865-176.58,96.865-278.944
		C1050.072,210.903,848.17,9,600,9z M607.394,224.446l0.004-0.005c3.908-3.905,10.237-3.905,14.144,0
		c3.905,3.905,3.905,10.237,0,14.142c-1.953,1.953-4.515,2.93-7.075,2.93c-2.559,0-5.117-0.975-7.07-2.928
		C603.491,234.68,603.488,228.351,607.394,224.446z M856.001,524.381c0,5.523-4.478,10-10,10h-215.32v104.173
		c14.979,1.664,26.667,14.395,26.667,29.811v20c0,5.523-4.478,10-10,10H353.999c-5.522,0-10-4.477-10-10v-20
		c0-15.416,11.688-28.146,26.667-29.811V480.354c0-71.687,58.32-130.006,130.006-130.006c25.183,0,48.711,7.205,68.647,19.651
		v-53.63c0-19.562,4.292-38.403,12.756-56c2.395-4.977,8.373-7.071,13.347-4.677c4.977,2.394,7.071,8.37,4.678,13.347
		c-7.152,14.87-10.779,30.794-10.779,47.331v68.983c24.071,22.476,39.622,53.961,41.217,89.026h178.796V316.37
		c0-60.657-49.349-110.006-110.006-110.006c-16.538,0-32.465,3.627-47.338,10.782c-4.977,2.394-10.953,0.301-13.348-4.677
		c-2.393-4.977-0.3-10.953,4.678-13.347c17.6-8.466,36.443-12.758,56.008-12.758c71.686,0,130.006,58.32,130.006,130.006v158.199
		c14.979,1.664,26.668,14.396,26.668,29.813V524.381z M739.326,310.395c5.521,0,10,4.477,10,10c0,5.523-4.479,10-10,10h-30v56.667
		c0,5.523-4.479,10-10,10c-5.522,0-10-4.477-10-10v-56.667h-30c-5.522,0-10-4.477-10-10c0-5.523,4.478-10,10-10h30v-30
		c0-5.523,4.478-10,10-10s10,4.477,10,10v30H739.326z M739.325,444.377c0,5.523-4.479,10-10,10h-59.997c-5.522,0-10-4.477-10-10
		c0-5.522,4.478-10,10-10h59.997C734.847,434.378,739.325,438.855,739.325,444.377z"/>
	<path display="inline" fill="#B21F66" d="M465.45,474.781c0-5.353-4.355-9.708-9.708-9.708h-9.708v19.414h9.708
		C461.095,484.487,465.45,480.133,465.45,474.781z"/>
	<path display="inline" fill="#B21F66" d="M826,494.379H630.681v20.002h205.32v-10C836.001,498.866,831.515,494.379,826,494.379z"/>
</g>
<path display="none" fill="#272343" d="M600,9C351.83,9,149.928,210.903,149.928,459.073c0,102.364,33.493,198.827,96.866,278.944
	L600,1184.701l353.207-446.684c63.373-80.128,96.865-176.58,96.865-278.944C1050.072,210.903,848.17,9,600,9z M747.188,450.563
	h-98.127v235.501c0,27.082-21.979,49.062-49.062,49.062c-27.082,0-49.062-21.979-49.062-49.062V450.563h-98.126
	c-27.082,0-49.062-21.979-49.062-49.062c0-27.083,21.979-49.062,49.062-49.062h98.126v-98.126c0-27.083,21.979-49.062,49.062-49.062
	c27.083,0,49.062,21.979,49.062,49.062v98.126h98.127c27.082,0,49.061,21.979,49.061,49.062
	C796.249,428.583,774.271,450.563,747.188,450.563z"/>
<g display="none">
	<path display="inline" fill="#000033" d="M665.323,339.38h-14.678v29.355h14.678c8.094,0,14.678-6.583,14.678-14.677
		C680.001,345.964,673.417,339.38,665.323,339.38z"/>
	<path display="inline" fill="#000033" d="M534.678,339.379H520v29.356h14.678c8.094,0,14.678-6.584,14.678-14.678
		C549.356,345.963,542.772,339.379,534.678,339.379z"/>
	<rect x="530" y="538.507" display="inline" fill="#000033" width="140" height="20"/>
	<path display="inline" fill="#000033" d="M600,9C351.83,9,149.927,210.903,149.927,459.073
		c0,102.364,33.494,198.827,96.866,278.944L600,1184.701l353.208-446.684c63.373-80.128,96.865-176.58,96.865-278.944
		C1050.072,210.903,848.17,9,600,9z M465.647,222.157l0.005-0.005c3.907-3.904,10.237-3.904,14.143,0
		c3.905,3.906,3.905,10.238,0,14.143c-1.953,1.953-4.514,2.93-7.075,2.93c-2.559,0-5.117-0.976-7.07-2.928
		C461.745,232.391,461.742,226.063,465.647,222.157z M830,668.508c0,5.523-4.478,10-10,10H380c-5.522,0-10-4.477-10-10v-30
		c0-22.057,17.944-40,40-40V356.506c0-35.793,10.128-70.73,29.29-101.036c2.951-4.667,9.126-6.06,13.797-3.107
		c4.668,2.952,6.058,9.129,3.107,13.797C439.058,293.261,430,324.502,430,356.506v242.001h340V356.506c0-93.738-76.262-170-170-170
		c-31.998,0-63.239,9.058-90.345,26.194c-4.668,2.953-10.845,1.558-13.797-3.109c-2.951-4.668-1.559-10.845,3.109-13.797
		c30.309-19.16,65.246-29.288,101.033-29.288c50.552,0,98.21,19.818,134.196,55.804C770.182,258.296,790,305.955,790,356.506
		v242.001c22.056,0,40,17.943,40,40V668.508z M590.004,478.506H650c5.522,0,10,4.479,10,10s-4.478,10-10,10h-59.996
		c-5.522,0-10-4.479-10-10S584.481,478.506,590.004,478.506z M590.001,412.504v-83.125c0-5.522,4.478-10,10-10
		c5.521,0,10,4.478,10,10v83.125c0,5.522-4.479,10-10,10C594.478,422.504,590.001,418.027,590.001,412.504z M665.323,388.734
		h-14.678v23.77c0,5.522-4.479,10-10,10c-5.522,0-10-4.478-10-10v-83.125c0-5.522,4.478-10,10-10h24.678
		c19.121,0,34.678,15.556,34.678,34.677S684.444,388.734,665.323,388.734z M700.001,412.503c0,5.522-4.477,10-10,10
		s-10.004-4.478-10.004-10s4.474-10,9.996-10h0.008C695.523,402.503,700.001,406.981,700.001,412.503z M680,518.507
		c5.522,0,10,4.478,10,10v40c0,5.522-4.478,10-10,10H520c-5.522,0-10-4.478-10-10v-40c0-5.522,4.478-10,10-10H680z M540.004,488.506
		c0-5.521,4.474-10,9.996-10h0.008c5.522,0,10,4.479,10,10s-4.477,10-10,10C544.485,498.506,540.004,494.028,540.004,488.506z
		 M562.834,407.504c2.762,4.783,1.123,10.898-3.66,13.66c-1.574,0.909-3.294,1.342-4.99,1.342c-3.457,0-6.817-1.794-8.67-5.002
		l-16.61-28.77h-8.905v23.77c0,5.522-4.478,10-10,10s-10-4.478-10-10v-83.125c0-5.522,4.478-10,10-10h24.678
		c19.121,0,34.678,15.557,34.678,34.678c0,13.644-7.923,25.468-19.409,31.125L562.834,407.504z"/>
	<path display="inline" fill="#000033" d="M790,618.508H410c-11.028,0-20,8.971-20,20v20h420v-20
		C810,627.479,801.028,618.508,790,618.508z"/>
</g>
<g display="none">
	<path display="inline" fill="#00ADB5" d="M412.699,564.255h-6.172v12.342h6.172c3.403,0,6.171-2.768,6.171-6.17
		C418.871,567.024,416.102,564.255,412.699,564.255z"/>
	<path display="inline" fill="#00ADB5" d="M489.146,281.99c0-12.006-9.767-21.772-21.771-21.772
		c-12.005,0-21.771,9.768-21.771,21.772c0,12.004,9.768,21.772,21.771,21.771C479.38,303.761,489.147,293.995,489.146,281.99z"/>
	<path display="inline" fill="#00ADB5" d="M467.626,564.255h-6.171v12.342h6.171c3.403,0,6.171-2.768,6.171-6.17
		C473.797,567.024,471.029,564.255,467.626,564.255z"/>
	<path display="inline" fill="#00ADB5" d="M600,9C351.83,9,149.927,210.903,149.927,459.073
		c0,102.364,33.494,198.827,96.866,278.944L600,1184.701l353.208-446.684c63.373-80.128,96.865-176.58,96.865-278.944
		C1050.072,210.903,848.17,9,600,9z M467.376,200.427c44.973,0,81.563,36.589,81.564,81.565c0,27.619-13.03,57.187-38.73,87.881
		c-18.787,22.435-37.345,36.888-38.126,37.493c-1.386,1.073-3.047,1.608-4.708,1.608c-1.659,0-3.32-0.535-4.707-1.608
		c-1.15-0.89-28.43-22.164-50.248-53.246c-2.44-3.476-1.602-8.274,1.876-10.714c3.477-2.439,8.274-1.6,10.714,1.877
		c15.252,21.729,33.817,38.719,42.36,46.022c15.837-13.569,66.186-60.546,66.186-109.315c0-36.492-29.689-66.181-66.18-66.181
		c-36.492,0-66.18,29.689-66.181,66.181c0,11.877,3.031,24.587,9.013,37.775c1.754,3.868,0.04,8.427-3.828,10.181
		c-3.869,1.759-8.427,0.041-10.18-3.829c-6.894-15.197-10.388-30.044-10.388-44.127
		C385.814,237.016,422.402,200.427,467.376,200.427z M499.682,419.888c-1.263,2.889-4.087,4.613-7.052,4.613
		c-1.03,0-2.073-0.207-3.077-0.646l-9.396-4.107c-3.892-1.7-5.667-6.235-3.967-10.128c1.7-3.891,6.231-5.668,10.127-3.967
		l9.396,4.108C499.606,411.46,501.382,415.995,499.682,419.888z M430.223,281.989c0-20.488,16.666-37.155,37.153-37.155
		c20.486,0,37.155,16.667,37.155,37.155s-16.667,37.156-37.155,37.154C446.89,319.143,430.223,302.477,430.223,281.989z
		 M484.067,715.845l-9.05,4.822c-1.153,0.615-2.391,0.905-3.61,0.905c-2.751,0-5.41-1.479-6.795-4.075
		c-1.997-3.751-0.578-8.408,3.171-10.406l9.05-4.823c3.75-1.999,8.407-0.577,10.405,3.171
		C489.235,709.188,487.816,713.847,484.067,715.845z M520.266,696.551l-9.05,4.822c-1.152,0.615-2.391,0.906-3.61,0.906
		c-2.751,0-5.411-1.48-6.795-4.076c-1.997-3.749-0.578-8.408,3.17-10.406l9.05-4.824c3.75-1.996,8.408-0.576,10.405,3.172
		C525.434,689.892,524.014,694.551,520.266,696.551z M445.481,725.358c-1.387,1.071-3.047,1.607-4.708,1.607
		c-1.66,0-3.32-0.536-4.707-1.607c-3.615-2.796-88.517-69.355-88.517-144.204c0-16.764,4.502-33.207,13.021-47.547
		c2.17-3.651,6.888-4.855,10.54-2.685c3.652,2.169,4.854,6.888,2.685,10.539c-7.108,11.966-10.865,25.69-10.865,39.692
		c0,57.891,60.318,113.297,77.836,128.162c17.507-14.877,77.843-70.356,77.843-128.162c0-42.922-34.919-77.84-77.84-77.84
		c-17.818,0-34.583,5.857-48.484,16.941c-3.323,2.648-8.16,2.1-10.809-1.22c-2.647-3.321-2.102-8.16,1.219-10.809
		c16.417-13.087,37.041-20.294,58.075-20.294c51.403,0,93.222,41.82,93.224,93.222C533.996,656.003,449.095,722.563,445.481,725.358
		z M424.537,592.896c1.161,2.012,0.472,4.583-1.539,5.743c-0.662,0.382-1.385,0.565-2.098,0.565c-1.453,0-2.865-0.755-3.645-2.103
		l-6.982-12.096h-3.745v9.993c0,2.321-1.882,4.204-4.204,4.204s-4.205-1.883-4.205-4.204v-34.948c0-2.321,1.883-4.206,4.205-4.206
		h10.375c8.038,0,14.579,6.542,14.579,14.581c0,5.736-3.331,10.707-8.16,13.085L424.537,592.896z M435.958,594.999v-34.948
		c0-2.321,1.883-4.206,4.205-4.206c2.321,0,4.204,1.884,4.204,4.206v34.948c0,2.321-1.883,4.204-4.204,4.204
		C437.841,599.203,435.958,597.322,435.958,594.999z M467.626,585.006h-6.171v9.993c0,2.321-1.883,4.204-4.204,4.204
		c-2.322,0-4.205-1.883-4.205-4.204v-34.948c0-2.321,1.882-4.206,4.205-4.206h10.375c8.039,0,14.58,6.542,14.58,14.579
		C482.206,578.466,475.665,585.006,467.626,585.006z M482.206,594.999c0,2.321-1.883,4.204-4.205,4.204
		c-2.322,0-4.206-1.883-4.206-4.204c0-2.323,1.881-4.204,4.203-4.204h0.003C480.323,590.795,482.206,592.676,482.206,594.999z
		 M530.216,440.931c-1.029,0-2.073-0.206-3.077-0.646l-9.396-4.107c-3.891-1.7-5.667-6.235-3.966-10.127
		c1.701-3.891,6.23-5.667,10.127-3.967l9.397,4.108c3.891,1.701,5.668,6.234,3.967,10.127
		C536.005,439.208,533.181,440.931,530.216,440.931z M556.465,677.257l-9.049,4.823c-1.152,0.614-2.391,0.906-3.61,0.906
		c-2.751,0-5.411-1.48-6.795-4.077c-1.997-3.749-0.578-8.408,3.17-10.406l9.05-4.823c3.75-1.999,8.407-0.579,10.404,3.171
		C561.633,670.598,560.212,675.259,556.465,677.257z M564.724,456.716l-9.395-4.108c-3.892-1.701-5.667-6.236-3.966-10.128
		c1.701-3.89,6.234-5.667,10.129-3.965l9.395,4.108c3.893,1.702,5.667,6.236,3.967,10.128c-1.265,2.888-4.089,4.611-7.053,4.611
		C566.773,457.362,565.728,457.156,564.724,456.716z M592.664,657.96l-9.051,4.823c-1.152,0.614-2.39,0.904-3.609,0.904
		c-2.751,0-5.41-1.479-6.794-4.075c-1.997-3.749-0.578-8.407,3.171-10.405l9.049-4.823c3.751-1.999,8.408-0.577,10.405,3.17
		C597.832,651.303,596.412,655.962,592.664,657.96z M602.311,473.146l-9.396-4.108c-3.893-1.701-5.667-6.236-3.966-10.128
		c1.7-3.891,6.237-5.668,10.128-3.967l9.396,4.108c3.893,1.703,5.668,6.237,3.968,10.128c-1.264,2.89-4.088,4.612-7.053,4.612
		C604.358,473.792,603.313,473.585,602.311,473.146z M628.864,638.664l-9.048,4.824c-1.153,0.616-2.391,0.906-3.611,0.906
		c-2.75,0-5.41-1.479-6.794-4.075c-1.999-3.749-0.579-8.407,3.169-10.404l9.049-4.823c3.748-2.004,8.408-0.58,10.406,3.17
		C634.032,632.01,632.612,636.668,628.864,638.664z M639.896,489.577l-9.396-4.107c-3.891-1.7-5.667-6.236-3.966-10.128
		c1.7-3.892,6.232-5.668,10.128-3.967l9.396,4.108c3.893,1.701,5.67,6.235,3.968,10.127c-1.263,2.889-4.086,4.613-7.051,4.613
		C641.945,490.223,640.901,490.016,639.896,489.577z M665.064,619.369l-9.048,4.823c-1.152,0.617-2.391,0.907-3.611,0.907
		c-2.75,0-5.41-1.479-6.794-4.076c-1.997-3.748-0.578-8.406,3.17-10.404l9.049-4.823c3.747-2.001,8.407-0.579,10.405,3.17
		C670.231,612.715,668.813,617.373,665.064,619.369z M677.484,506.006l-9.396-4.107c-3.892-1.7-5.668-6.235-3.967-10.128
		c1.699-3.891,6.232-5.668,10.128-3.966l9.396,4.107c3.893,1.701,5.668,6.235,3.968,10.128c-1.263,2.89-4.088,4.612-7.051,4.612
		C679.533,506.652,678.487,506.445,677.484,506.006z M701.263,600.077l-9.049,4.822c-1.152,0.617-2.39,0.908-3.609,0.908
		c-2.75,0-5.411-1.48-6.794-4.076c-1.998-3.749-0.578-8.407,3.17-10.405l9.048-4.823c3.749-2.001,8.408-0.582,10.405,3.17
		C706.43,593.422,705.012,598.08,701.263,600.077z M705.674,518.33c-3.892-1.701-5.666-6.236-3.966-10.128
		c1.702-3.891,6.234-5.667,10.129-3.965l9.396,4.108c3.891,1.702,5.666,6.236,3.966,10.128c-1.263,2.889-4.088,4.611-7.052,4.611
		c-1.029,0-2.074-0.206-3.077-0.646L705.674,518.33z M737.463,580.784l-9.05,4.823c-1.152,0.614-2.391,0.905-3.61,0.905
		c-2.751,0-5.41-1.479-6.795-4.076c-1.997-3.75-0.578-8.408,3.17-10.406l9.051-4.823c3.75-1.999,8.409-0.579,10.406,3.17
		C742.631,574.125,741.212,578.786,737.463,580.784z M743.261,534.76c-3.893-1.701-5.668-6.236-3.967-10.128
		c1.701-3.891,6.238-5.667,10.128-3.967l9.396,4.108c3.893,1.702,5.667,6.237,3.967,10.128c-1.263,2.89-4.088,4.613-7.051,4.613
		c-1.029,0-2.075-0.207-3.077-0.646L743.261,534.76z M773.663,561.489l-9.05,4.824c-1.153,0.613-2.391,0.906-3.611,0.906
		c-2.751,0-5.41-1.48-6.794-4.078c-1.997-3.749-0.578-8.408,3.171-10.406l9.05-4.823c3.751-1.997,8.407-0.577,10.406,3.171
		C778.831,554.831,777.412,559.49,773.663,561.489z M856.394,464.473c-2.062,3.713-6.746,5.052-10.458,2.988
		c-3.714-2.062-5.051-6.745-2.987-10.457c10.358-18.644,15.611-36.463,15.611-52.965c0-40.477-32.931-73.407-73.407-73.407
		c-40.478,0-73.407,32.93-73.407,73.407c0,54.361,56.524,106.605,73.413,120.999c8.162-6.938,25.564-22.682,41.31-43.179
		c2.588-3.368,7.414-4.003,10.784-1.415c3.369,2.587,4.002,7.417,1.415,10.785c-22.63,29.461-47.75,49.036-48.808,49.856
		c-1.386,1.07-3.047,1.607-4.707,1.607s-3.321-0.536-4.708-1.607c-0.855-0.663-21.167-16.481-41.739-41.05
		c-28.096-33.557-42.344-65.855-42.344-95.996c0-48.958,39.832-88.79,88.791-88.79s88.79,39.831,88.789,88.787
		C873.941,423.184,868.037,443.518,856.394,464.473z M757.837,406.253c-3.75,0-6.79-3.04-6.79-6.791s3.04-6.791,6.79-6.791h20.374
		v-20.373c0-3.751,3.04-6.791,6.791-6.791c3.75,0,6.791,3.04,6.791,6.791v20.373h20.373c3.75,0,6.791,3.04,6.791,6.791
		s-3.041,6.791-6.791,6.791h-20.373v38.482c0,3.751-3.042,6.792-6.791,6.792c-3.751,0-6.791-3.041-6.791-6.792v-38.482H757.837z"/>
</g>
<g display="none">
	<path display="inline" fill="#57A4FF" d="M1171.216,85.421l-40.574-18.049l-18.065-40.59l-44.156,4.611l-35.924-26.052
		l-35.945,26.052l-44.135-4.611l-18.052,40.572l-40.59,18.067l4.613,44.156l-26.052,35.924l26.052,35.945l-4.613,44.136
		l40.574,18.049l18.067,40.59l44.155-4.611l35.925,26.053l35.944-26.053l44.136,4.611l18.05-40.574l40.59-18.064l-4.614-44.156
		l26.055-35.924l-26.055-35.945L1171.216,85.421z M1000.464,229.566l-45.327-45.327l15.109-15.055l30.218,30.163l90.596-90.596
		l15.109,15.106L1000.464,229.566z"/>
	<path display="inline" fill="#1E81CE" d="M1196.981,162.368l-24.858-34.292l4.405-42.115c0.24-2.302-1.027-4.494-3.142-5.435
		l-38.692-17.218l-17.218-38.695c-0.946-2.109-3.136-3.373-5.436-3.144l-42.122,4.403L1035.63,1.016
		c-1.869-1.355-4.398-1.355-6.268,0L995.07,25.872l-42.12-4.403c-2.297-0.219-4.479,1.043-5.435,3.139l-17.218,38.695
		l-38.695,17.223c-2.111,0.938-3.378,3.13-3.139,5.43l4.403,42.121l-24.856,34.292c-1.355,1.869-1.355,4.397,0,6.267l24.856,34.29
		l-4.403,42.123c-0.242,2.3,1.024,4.494,3.139,5.436l38.695,17.218l17.218,38.694c0.951,2.102,3.135,3.365,5.435,3.145l42.12-4.406
		l34.292,24.858c1.869,1.356,4.398,1.356,6.268,0l34.289-24.858l42.122,4.406c2.3,0.231,4.487-1.033,5.436-3.139l17.218-38.695
		l38.692-17.223c2.112-0.941,3.379-3.131,3.142-5.43l-4.405-42.123l24.858-34.29C1198.339,166.77,1198.339,164.237,1196.981,162.368
		z M1162.279,198.313c-0.774,1.066-1.126,2.38-0.988,3.688l4.208,40.295l-37.024,16.482c-1.209,0.532-2.179,1.496-2.713,2.706
		l-16.47,37.024l-40.307-4.213c-1.309-0.135-2.62,0.219-3.684,0.993l-32.806,23.779l-32.812-23.779
		c-0.91-0.665-2.005-1.021-3.129-1.019c-0.188,0-0.375,0-0.534,0.025l-40.309,4.213l-16.469-37.024
		c-0.537-1.21-1.501-2.177-2.711-2.714l-37.045-16.475l4.207-40.295c0.136-1.309-0.216-2.623-0.988-3.688l-23.778-32.812
		l23.778-32.812c0.772-1.066,1.124-2.38,0.988-3.688l-4.207-40.298l37.024-16.479c1.209-0.532,2.176-1.497,2.71-2.706l16.47-37.024
		l40.309,4.213c1.306,0.13,2.617-0.224,3.684-0.993l32.812-23.779l32.812,23.779c1.063,0.771,2.374,1.124,3.683,0.993l40.307-4.213
		l16.47,37.024c0.537,1.209,1.504,2.174,2.714,2.711l37.023,16.475l-4.207,40.298c-0.139,1.309,0.214,2.623,0.988,3.688
		l23.775,32.812L1162.279,198.313z"/>
	<path display="inline" fill="#1E81CE" d="M1094.834,104.977c-2.085-2.085-5.464-2.085-7.549,0l-86.821,86.821l-26.442-26.394
		c-2.083-2.078-5.456-2.078-7.539,0l-15.136,15.043c-1.003,1.001-1.568,2.362-1.568,3.78c0,1.418,0.565,2.779,1.568,3.78
		l45.327,45.327c2.082,2.082,5.464,2.082,7.549,0l105.705-105.708c2.082-2.083,2.082-5.463,0-7.549L1094.834,104.977z
		 M1000.464,222.016l-37.772-37.772l7.55-7.531l26.453,26.399c2.083,2.08,5.459,2.08,7.544,0l86.821-86.813l7.56,7.56
		L1000.464,222.016z"/>
</g>
<g display="none">
	<path display="inline" fill="#57A4FF" d="M956.844,370.883l-97.202-43.24l-43.279-97.24l-105.783,11.047l-86.063-62.413
		l-86.112,62.413l-105.732-11.047L389.426,327.6l-97.24,43.283l11.052,105.783l-62.412,86.063l62.412,86.112l-11.052,105.734
		l97.203,43.239l43.283,97.24l105.781-11.049l86.063,62.414l86.111-62.414l105.734,11.049l43.241-97.203l97.24-43.276
		l-11.055-105.784l62.419-86.063l-62.419-86.112L956.844,370.883z M547.778,716.207L439.189,607.618l36.197-36.066l72.392,72.26
		l217.037-217.037l36.197,36.19L547.778,716.207z"/>
	<path display="inline" fill="#1E81CE" d="M1018.569,555.222l-59.553-82.152l10.554-100.894c0.575-5.515-2.461-10.767-7.526-13.021
		l-92.693-41.248l-41.248-92.7c-2.268-5.052-7.513-8.081-13.022-7.532l-100.91,10.548l-82.146-59.545
		c-4.478-3.247-10.537-3.247-15.015,0l-82.152,59.545l-100.905-10.548c-5.503-0.524-10.729,2.499-13.02,7.52l-41.248,92.7
		l-92.701,41.261c-5.058,2.249-8.092,7.5-7.519,13.008l10.549,100.907l-59.548,82.152c-3.247,4.478-3.247,10.535,0,15.013
		l59.548,82.146l-10.549,100.912c-0.58,5.51,2.454,10.767,7.519,13.021l92.701,41.248l41.248,92.699
		c2.279,5.035,7.51,8.063,13.02,7.533l100.905-10.557l82.152,59.553c4.478,3.25,10.537,3.25,15.015,0l82.146-59.553l100.91,10.557
		c5.51,0.555,10.75-2.475,13.022-7.52l41.248-92.701l92.693-41.26c5.061-2.255,8.095-7.5,7.526-13.008l-10.554-100.912
		l59.553-82.148C1021.821,565.769,1021.821,559.7,1018.569,555.222z M935.435,641.334c-1.855,2.554-2.697,5.701-2.367,8.836
		l10.08,96.535l-88.697,39.486c-2.896,1.275-5.22,3.584-6.5,6.482l-39.455,88.699l-96.563-10.094
		c-3.135-0.322-6.276,0.525-8.824,2.379l-78.592,56.969l-78.605-56.969c-2.18-1.592-4.803-2.447-7.495-2.439
		c-0.449,0-0.898,0-1.28,0.061l-96.565,10.094l-39.454-88.699c-1.287-2.898-3.596-5.215-6.494-6.502l-88.748-39.467l10.079-96.535
		c0.325-3.135-0.517-6.282-2.367-8.836l-56.965-78.605l56.965-78.605c1.851-2.553,2.692-5.701,2.367-8.836l-10.079-96.542
		l88.698-39.479c2.896-1.275,5.212-3.585,6.492-6.483l39.456-88.698l96.566,10.093c3.128,0.313,6.27-0.537,8.824-2.379
		l78.605-56.967l78.605,56.967c2.549,1.848,5.688,2.692,8.822,2.379l96.562-10.093l39.456,88.698
		c1.287,2.897,3.604,5.208,6.502,6.495l88.695,39.468l-10.078,96.542c-0.332,3.135,0.512,6.283,2.367,8.836l56.958,78.605
		L935.435,641.334z"/>
	<path display="inline" fill="#1E81CE" d="M773.858,417.733c-4.995-4.996-13.09-4.996-18.085,0L547.778,625.729l-63.347-63.23
		c-4.99-4.978-13.071-4.978-18.062,0l-36.26,36.04c-2.403,2.398-3.758,5.658-3.758,9.054c0,3.398,1.354,6.659,3.758,9.057
		l108.588,108.59c4.988,4.987,13.09,4.987,18.085,0l253.234-253.243c4.987-4.989,4.987-13.088,0-18.085L773.858,417.733z
		 M547.778,698.12l-90.49-90.49l18.087-18.042l63.373,63.245c4.99,4.982,13.078,4.982,18.073,0l207.994-207.977l18.11,18.11
		L547.778,698.12z"/>
</g>
<g display="none">
	<g display="inline">
		<g>
			<path fill="#7E6BC4" d="M528.968,111.338c-9.908-4.341-21.601-2.291-29.511,5.221L218.583,381.83H27.273
				C12.199,381.83,0,394.028,0,409.101v381.818c0,15.074,12.199,27.273,27.273,27.273h191.309l280.876,265.27
				c5.168,4.9,11.905,7.459,18.724,7.459c3.649,0,7.325-0.719,10.788-2.238c10.015-4.287,16.486-14.141,16.486-25.035V136.375
				C545.454,125.48,538.982,115.626,528.968,111.338z"/>
			<path fill="#7E6BC4" d="M671.043,447.151l-38.861,38.861c-8.962,8.962-11.353,23.441-3.869,33.668
				c16.489,22.549,26.233,50.324,26.233,80.331c0,30.005-9.744,57.781-26.233,80.328c-7.483,10.227-5.093,24.709,3.869,33.67
				l38.861,38.859c11.901,11.904,31.344,10.07,41.625-3.264c31.947-41.439,50.97-93.336,50.97-149.593
				c0-56.261-19.022-108.156-50.97-149.598C702.387,437.08,682.944,435.247,671.043,447.151z"/>
			<path fill="#7E6BC4" d="M865.287,292.952c-10.253-11.583-28.512-11.537-39.447-0.598l-38.588,38.587
				c-10.337,10.334-10.239,26.578-0.689,37.639c53.67,62.149,86.167,143.064,86.167,231.428c0,88.364-32.497,169.28-86.167,231.432
				c-9.553,11.063-9.645,27.301,0.689,37.635l38.588,38.588c10.936,10.939,29.194,10.984,39.452-0.596
				c72.476-81.836,116.526-189.4,116.526-307.056C981.818,482.351,937.768,374.788,865.287,292.952z"/>
			<path fill="#7E6BC4" d="M1019.567,138.425c-10.437-11.327-28.511-11.293-39.397-0.404l-38.639,38.639
				c-10.363,10.363-10.312,26.721-0.427,37.547c93.007,101.864,149.804,237.33,149.804,385.804
				c0,148.474-56.797,283.937-149.804,385.802c-9.883,10.826-9.938,27.186,0.427,37.547l38.639,38.637
				c10.89,10.893,28.963,10.924,39.4-0.404C1131.533,940.071,1200,777.886,1200,600.011
				C1200,422.132,1131.533,259.946,1019.567,138.425z"/>
		</g>
	</g>
</g>
<g display="none">
	<g display="inline">
		<path fill="#B21F66" d="M827.334,631.205V473.006c0-71.686-58.32-130.006-130.006-130.006c-19.564,0-38.408,4.292-56.008,12.758
			c-4.978,2.394-7.07,8.37-4.678,13.347c2.395,4.978,8.371,7.071,13.348,4.677c14.873-7.155,30.8-10.782,47.338-10.782
			c60.657,0,110.006,49.349,110.006,110.006v158.01H628.538c-1.595-35.065-17.146-66.551-41.217-89.026v-68.983
			c0-16.537,3.627-32.461,10.779-47.331c2.394-4.977,0.3-10.953-4.677-13.347c-4.974-2.394-10.952-0.3-13.347,4.677
			c-8.464,17.597-12.756,36.438-12.756,56v53.63c-19.936-12.446-43.464-19.651-68.647-19.651
			c-71.686,0-130.006,58.32-130.006,130.006v158.2C353.688,796.854,342,809.585,342,825.001v20.001c0,5.523,4.478,10,10,10h293.349
			c5.522,0,10-4.477,10-10v-20.001c0-15.416-11.688-28.146-26.667-29.811V691.018h215.32c5.522,0,10-4.477,10-10v-20
			C854.002,645.602,842.313,632.869,827.334,631.205z M498.675,526.984c27.151,0,52.032,9.893,71.24,26.256
			c0.549,0.607,1.165,1.152,1.847,1.609c22.636,20.163,36.919,49.512,36.919,82.14v4.024v40.002V795H388.668V636.99
			C388.668,576.333,438.017,526.984,498.675,526.984z M635.35,825.001v10.001H362v-10.001c0-5.515,4.486-10.001,10.001-10.001
			h253.347C630.861,815,635.35,819.486,635.35,825.001z M834.002,671.018h-205.32v-20.002h195.319
			c5.515,0,10.001,4.486,10.001,10.002V671.018z"/>
		<path fill="#B21F66" d="M697.327,427.031c-5.522,0-10,4.477-10,10v30h-30c-5.522,0-10,4.477-10,10c0,5.523,4.478,10,10,10h30
			v56.667c0,5.523,4.478,10,10,10c5.521,0,10-4.477,10-10v-56.667h30c5.521,0,10-4.477,10-10c0-5.523-4.479-10-10-10h-30v-30
			C707.327,431.508,702.85,427.031,697.327,427.031z"/>
		<path fill="#B21F66" d="M667.329,591.014c-5.522,0-10,4.477-10,10c0,5.523,4.478,10,10,10h59.997c5.521,0,10-4.477,10-10
			c0-5.522-4.479-10-10-10H667.329z"/>
		<path fill="#B21F66" d="M612.467,398.149c2.561,0,5.122-0.977,7.075-2.93c3.905-3.905,3.905-10.237,0-14.142
			c-3.906-3.905-10.235-3.905-14.144,0l-0.004,0.005c-3.905,3.905-3.902,10.234,0.002,14.139
			C607.35,397.174,609.908,398.149,612.467,398.149z"/>
		<g>
			<g>
				<path fill="#B21F66" d="M437.422,746.793v26.455c0,3.652,2.961,6.614,6.613,6.614h105.82c3.652,0,6.614-2.962,6.614-6.614
					v-26.455c0-3.652-2.961-6.613-6.614-6.613h-105.82C440.383,740.18,437.422,743.141,437.422,746.793z M450.649,753.407h92.592
					v13.228h-92.592V753.407z"/>
				<path fill="#B21F66" d="M483.72,720.338c0,3.652,2.961,6.614,6.614,6.614h39.68c3.652,0,6.614-2.962,6.614-6.614
					s-2.961-6.613-6.614-6.613h-39.68C486.682,713.725,483.72,716.686,483.72,720.338z"/>
				<path fill="#B21F66" d="M470.495,720.338c0-3.652-2.961-6.613-6.614-6.613h-0.005c-3.651,0-6.611,2.961-6.611,6.613
					s2.964,6.614,6.616,6.614C467.535,726.952,470.495,723.99,470.495,720.338z"/>
				<path fill="#B21F66" d="M476.678,631.417c0-12.646-10.289-22.936-22.935-22.936h-16.322c-3.652,0-6.614,2.962-6.614,6.614
					v54.976c0,3.652,2.961,6.614,6.614,6.614s6.614-2.962,6.614-6.614v-15.721h5.89l10.984,19.028
					c1.226,2.121,3.448,3.309,5.734,3.309c1.122,0,2.26-0.288,3.3-0.889c3.164-1.826,4.248-5.87,2.421-9.034l-8.523-14.763
					C471.438,648.261,476.678,640.44,476.678,631.417z M444.035,621.709h9.708c5.353,0,9.708,4.355,9.708,9.708
					s-4.355,9.706-9.708,9.706h-9.708V621.709z"/>
				<path fill="#B21F66" d="M496.946,676.686c3.651,0,6.614-2.962,6.614-6.614v-54.976c0-3.652-2.962-6.614-6.614-6.614
					c-3.652,0-6.614,2.962-6.614,6.614v54.976C490.332,673.726,493.293,676.686,496.946,676.686z"/>
				<path fill="#B21F66" d="M540.148,608.481h-16.321c-3.652,0-6.614,2.962-6.614,6.614v54.976c0,3.652,2.961,6.614,6.614,6.614
					c3.651,0,6.614-2.962,6.614-6.614v-15.721h9.707c12.646,0,22.936-10.288,22.936-22.936
					C563.083,618.771,552.794,608.481,540.148,608.481z M540.148,641.123h-9.707v-19.414h9.707c5.354,0,9.708,4.355,9.708,9.708
					S545.502,641.123,540.148,641.123z"/>
				<path fill="#B21F66" d="M556.464,663.458c-3.652,0-6.611,2.961-6.611,6.613s2.963,6.614,6.617,6.614
					c3.652,0,6.614-2.962,6.614-6.614s-2.961-6.613-6.614-6.613H556.464z"/>
			</g>
		</g>
	</g>
</g>
<g display="none">
	<g display="inline">
		<g>
			<path fill="#00ADB5" d="M210.795,654.234c-47.937,0-94.941,16.425-132.354,46.251c-7.568,6.035-8.81,17.065-2.777,24.633
				c6.035,7.568,17.06,8.815,24.633,2.78c31.68-25.259,69.888-38.608,110.496-38.608c97.819,0,177.399,79.579,177.399,177.398
				c0,131.74-137.508,258.181-177.406,292.086c-39.923-33.879-177.392-160.151-177.392-292.086c0-31.91,8.562-63.188,24.762-90.457
				c4.943-8.322,2.203-19.076-6.12-24.021s-19.076-2.203-24.021,6.12C8.602,791.011-1.659,828.485-1.659,866.69
				c0,170.581,193.493,322.271,201.731,328.644c3.159,2.445,6.944,3.666,10.728,3.666c3.783,0,7.568-1.224,10.727-3.666
				c8.236-6.372,201.729-158.063,201.729-328.644C423.252,749.545,327.945,654.234,210.795,654.234z"/>
		</g>
	</g>
	<g display="inline">
		<g>
			<path fill="#00ADB5" d="M995.647,260.685c-111.579,0-202.355,90.776-202.355,202.355c0,68.69,32.469,142.299,96.502,218.775
				c46.885,55.994,93.176,92.044,95.126,93.554c3.159,2.444,6.944,3.665,10.728,3.665s7.568-1.224,10.728-3.665
				c2.411-1.868,59.66-46.481,111.234-113.623c5.895-7.676,4.453-18.683-3.225-24.579c-7.681-5.897-18.68-4.451-24.579,3.225
				c-35.881,46.714-75.542,82.594-94.145,98.405c-38.491-32.804-167.311-151.868-167.311-275.759
				c0-92.248,75.049-167.298,167.297-167.298s167.297,75.05,167.297,167.298c0,37.609-11.972,78.22-35.578,120.708
				c-4.701,8.461-1.654,19.134,6.809,23.833c8.459,4.704,19.137,1.652,23.834-6.809c26.536-47.759,39.991-94.1,39.991-137.737
				C1198.003,351.461,1107.227,260.685,995.647,260.685z"/>
		</g>
	</g>
	<g display="inline">
		<g>
			<path fill="#00ADB5" d="M271.428,100.206c-46.692,0-84.675,37.985-84.675,84.678c0,46.692,37.985,84.675,84.675,84.675
				c46.69,0.002,84.676-37.983,84.676-84.675C356.104,138.191,318.115,100.206,271.428,100.206z M271.423,234.503
				c-27.356,0.002-49.618-22.259-49.618-49.617c0-27.359,22.259-49.62,49.618-49.62s49.617,22.259,49.617,49.62
				C321.043,212.244,298.784,234.503,271.423,234.503z"/>
		</g>
	</g>
	<g display="inline">
		<g>
			<path fill="#00ADB5" d="M271.428-1C168.931-1,85.545,82.389,85.545,184.886c0,32.095,7.964,65.932,23.674,100.568
				c3.996,8.817,14.384,12.734,23.201,8.726c8.815-3.996,12.722-14.386,8.723-23.203c-13.631-30.057-20.541-59.023-20.541-86.091
				c0.002-83.166,67.662-150.828,150.828-150.828s150.828,67.662,150.828,150.828c0,111.147-114.745,218.21-150.839,249.134
				c-19.47-16.646-61.779-55.364-96.539-104.888c-5.562-7.924-16.493-9.837-24.417-4.277c-7.927,5.562-9.839,16.495-4.277,24.417
				c49.723,70.837,111.896,119.321,114.516,121.348c3.159,2.444,6.944,3.665,10.727,3.665c3.783,0,7.568-1.221,10.728-3.665
				c1.781-1.379,44.076-34.317,86.893-85.447c58.572-69.954,88.268-137.339,88.268-200.283C457.311,82.389,373.923-1,271.428-1z"/>
		</g>
	</g>
	<g display="inline">
		<g>
			<path fill="#00ADB5" d="M507.331,550.971l-21.412-9.363c-8.876-3.879-19.207,0.173-23.084,9.037
				c-3.876,8.871,0.169,19.207,9.038,23.084l21.412,9.363c2.288,1.001,4.669,1.472,7.015,1.472c6.753,0,13.188-3.928,16.071-10.509
				C520.248,565.183,516.202,554.85,507.331,550.971z"/>
		</g>
	</g>
	<g display="inline">
		<g>
			<path fill="#00ADB5" d="M849.972,700.753l-21.412-9.363c-8.876-3.877-19.205,0.169-23.084,9.037
				c-3.876,8.871,0.169,19.207,9.038,23.084l21.412,9.363c2.287,1.001,4.669,1.472,7.015,1.472c6.755,0,13.193-3.926,16.071-10.509
				C862.886,714.966,858.841,704.632,849.972,700.753z"/>
		</g>
	</g>
	<g display="inline">
		<g>
			<path fill="#00ADB5" d="M421.67,513.524l-21.415-9.361c-8.881-3.876-19.205,0.172-23.081,9.04
				c-3.877,8.871,0.171,19.207,9.039,23.081l21.415,9.361c2.288,1.001,4.667,1.472,7.013,1.472c6.757,0,13.193-3.928,16.071-10.512
				C434.588,527.732,430.538,517.401,421.67,513.524z"/>
		</g>
	</g>
	<g display="inline">
		<g>
			<path fill="#00ADB5" d="M336.01,476.078l-21.415-9.36c-8.88-3.879-19.207,0.171-23.081,9.039
				c-3.876,8.871,0.171,19.207,9.04,23.082l21.415,9.36c2.287,1.001,4.666,1.472,7.013,1.472c6.757,0,13.192-3.928,16.071-10.512
				C348.927,490.288,344.879,479.952,336.01,476.078z"/>
		</g>
	</g>
	<g display="inline">
		<g>
			<path fill="#00ADB5" d="M935.632,738.196l-21.415-9.363c-8.864-3.876-19.205,0.172-23.082,9.04
				c-3.876,8.869,0.169,19.205,9.04,23.081l21.415,9.363c2.285,1.001,4.667,1.473,7.013,1.473c6.753,0,13.19-3.926,16.071-10.512
				C948.548,752.409,944.503,742.075,935.632,738.196z"/>
		</g>
	</g>
	<g display="inline">
		<g>
			<path fill="#00ADB5" d="M764.313,663.305l-21.415-9.361c-8.878-3.879-19.207,0.171-23.081,9.04
				c-3.877,8.871,0.171,19.207,9.04,23.081l21.415,9.361c2.285,1.001,4.666,1.472,7.012,1.472c6.755,0,13.191-3.926,16.071-10.512
				C777.229,677.515,773.182,667.181,764.313,663.305z"/>
		</g>
	</g>
	<g display="inline">
		<g>
			<path fill="#00ADB5" d="M678.648,625.86l-21.415-9.36c-8.878-3.879-19.207,0.171-23.081,9.039
				c-3.877,8.871,0.171,19.208,9.039,23.082l21.415,9.36c2.288,1.001,4.667,1.472,7.013,1.472c6.757,0,13.193-3.928,16.071-10.512
				C691.567,640.071,687.52,629.737,678.648,625.86z"/>
		</g>
	</g>
	<g display="inline">
		<g>
			<path fill="#00ADB5" d="M592.988,588.414l-21.414-9.363c-8.867-3.879-19.205,0.172-23.082,9.04
				c-3.876,8.869,0.169,19.205,9.04,23.081l21.415,9.363c2.283,1.001,4.666,1.473,7.013,1.473c6.755,0,13.192-3.926,16.071-10.512
				C605.907,602.627,601.862,592.293,592.988,588.414z"/>
		</g>
	</g>
	<g display="inline">
		<g>
			<path fill="#00ADB5" d="M316.692,1149.938c-4.554-8.543-15.168-11.782-23.714-7.229l-20.625,10.992
				c-8.543,4.554-11.777,15.171-7.226,23.717c3.155,5.918,9.216,9.29,15.485,9.29c2.779,0,5.602-0.663,8.229-2.064l20.625-10.992
				C318.01,1169.099,321.244,1158.481,316.692,1149.938z"/>
		</g>
	</g>
	<g display="inline">
		<g>
			<path fill="#00ADB5" d="M399.19,1105.965c-4.552-8.543-15.169-11.777-23.714-7.226l-20.625,10.992
				c-8.543,4.554-11.777,15.171-7.226,23.714c3.154,5.918,9.216,9.29,15.485,9.29c2.779,0,5.602-0.663,8.227-2.063l20.625-10.992
				C400.506,1125.125,403.742,1114.505,399.19,1105.965z"/>
		</g>
	</g>
	<g display="inline">
		<g>
			<path fill="#00ADB5" d="M481.688,1061.996c-4.552-8.548-15.166-11.784-23.712-7.229l-20.625,10.992
				c-8.543,4.554-11.777,15.171-7.226,23.717c3.154,5.918,9.216,9.29,15.485,9.29c2.779,0,5.602-0.663,8.227-2.063l20.625-10.992
				C483.003,1081.156,486.24,1070.536,481.688,1061.996z"/>
		</g>
	</g>
	<g display="inline">
		<g>
			<path fill="#00ADB5" d="M894.191,842.128c-4.552-8.545-15.169-11.779-23.717-7.226l-20.625,10.992
				c-8.543,4.554-11.777,15.171-7.226,23.717c3.155,5.918,9.216,9.29,15.485,9.29c2.779,0,5.602-0.663,8.229-2.063l20.625-10.992
				C895.506,861.291,898.741,850.671,894.191,842.128z"/>
		</g>
	</g>
	<g display="inline">
		<g>
			<path fill="#00ADB5" d="M976.691,798.157c-4.556-8.546-15.168-11.78-23.716-7.229l-20.625,10.992
				c-8.543,4.554-11.777,15.171-7.226,23.717c3.154,5.918,9.215,9.29,15.484,9.29c2.78,0,5.602-0.663,8.229-2.064l20.625-10.992
				C978.007,817.317,981.241,806.7,976.691,798.157z"/>
		</g>
	</g>
	<g display="inline">
		<g>
			<path fill="#00ADB5" d="M811.687,886.102c-4.552-8.548-15.169-11.786-23.712-7.224l-20.622,10.992
				c-8.543,4.555-11.777,15.169-7.224,23.712c3.152,5.918,9.216,9.291,15.482,9.291c2.78,0,5.602-0.663,8.227-2.067l20.623-10.992
				C813.004,905.265,816.238,894.647,811.687,886.102z"/>
		</g>
	</g>
	<g display="inline">
		<g>
			<path fill="#00ADB5" d="M564.188,1018.018c-4.552-8.541-15.166-11.779-23.714-7.226l-20.625,10.992
				c-8.543,4.554-11.777,15.171-7.226,23.712c3.154,5.918,9.216,9.29,15.484,9.29c2.78,0,5.602-0.663,8.227-2.063l20.626-10.992
				C565.504,1037.178,568.738,1026.561,564.188,1018.018z"/>
		</g>
	</g>
	<g display="inline">
		<g>
			<path fill="#00ADB5" d="M729.189,930.073c-4.552-8.543-15.174-11.785-23.712-7.224l-20.623,10.992
				c-8.543,4.554-11.777,15.169-7.224,23.712c3.152,5.918,9.216,9.29,15.482,9.29c2.782,0,5.604-0.663,8.229-2.067l20.622-10.992
				C730.506,949.233,733.74,938.618,729.189,930.073z"/>
		</g>
	</g>
	<g display="inline">
		<g>
			<path fill="#00ADB5" d="M646.688,974.049c-4.554-8.548-15.173-11.789-23.714-7.226l-20.623,10.992
				c-8.543,4.554-11.777,15.169-7.223,23.712c3.152,5.918,9.215,9.288,15.482,9.288c2.782,0,5.604-0.661,8.229-2.065l20.623-10.992
				C648.006,993.207,651.24,982.592,646.688,974.049z"/>
		</g>
	</g>
	<path display="inline" fill="#00ADB5" d="M995.305,375.224c-8.547,0-15.477,6.929-15.477,15.477v46.432h-46.432
		c-8.547,0-15.477,6.929-15.477,15.477c0,8.549,6.93,15.477,15.477,15.477h46.432v87.703c0,8.548,6.93,15.478,15.477,15.478
		c8.546,0,15.477-6.93,15.477-15.478v-87.703h46.432c8.546,0,15.477-6.928,15.477-15.477c0-8.548-6.931-15.477-15.477-15.477
		h-46.432v-46.432C1010.781,382.153,1003.852,375.224,995.305,375.224z"/>
	<g display="inline">
		<g>
			<path fill="#00ADB5" d="M180.043,842.241c0-18.321-14.907-33.229-33.227-33.229H123.17c-5.292,0-9.583,4.292-9.583,9.583v79.646
				c0,5.292,4.292,9.582,9.583,9.582c5.291,0,9.581-4.29,9.581-9.582v-22.774h8.534l15.914,27.566
				c1.776,3.073,4.996,4.794,8.307,4.794c1.626,0,3.274-0.418,4.782-1.288c4.583-2.646,6.154-8.504,3.507-13.088l-12.348-21.388
				C172.451,866.643,180.043,855.314,180.043,842.241z M132.75,828.176h14.065c7.755,0,14.064,6.311,14.064,14.065
				c0,7.754-6.31,14.062-14.064,14.062H132.75V828.176z"/>
			<path fill="#00ADB5" d="M209.406,907.823c5.291,0,9.582-4.29,9.582-9.582v-79.646c0-5.291-4.291-9.583-9.582-9.583
				c-5.292,0-9.582,4.292-9.582,9.583v79.646C199.824,903.535,204.114,907.823,209.406,907.823z"/>
			<path fill="#00ADB5" d="M271.996,809.013h-23.645c-5.292,0-9.582,4.292-9.582,9.583v79.646c0,5.292,4.291,9.582,9.582,9.582
				c5.29,0,9.582-4.29,9.582-9.582v-22.774h14.063c18.321,0,33.227-14.905,33.227-33.229
				C305.223,823.92,290.316,809.013,271.996,809.013z M271.996,856.303h-14.063v-28.127h14.063c7.756,0,14.063,6.311,14.063,14.065
				C286.059,849.995,279.751,856.303,271.996,856.303z"/>
			<path fill="#00ADB5" d="M295.633,888.661c-5.291,0-9.578,4.289-9.578,9.58c0,5.292,4.293,9.582,9.586,9.582
				c5.292,0,9.582-4.29,9.582-9.582c0-5.291-4.291-9.58-9.582-9.58H295.633z"/>
		</g>
	</g>
</g>
<g display="none">
	<path display="inline" fill="#FFFFFF" d="M303.335,654.258h211.977v211.985c0.622,52.488,43.349,94.714,95.844,94.714
		c52.496,0,95.221-42.226,95.844-94.714V250.59c-0.625-52.49-43.352-94.714-95.844-94.714c-52.493,0-95.222,42.224-95.844,94.714
		v211.985H303.335c-52.495,0.619-94.72,43.347-94.72,95.84C208.616,610.911,250.84,653.636,303.335,654.258z"/>
	<path display="inline" fill="#A4C2F7" d="M918.982,462.575H707V250.59c-0.625-52.49-43.352-94.714-95.844-94.714
		c-52.493,0-95.222,42.224-95.844,94.714v615.649c0.622,52.488,43.349,94.718,95.844,94.718c52.496,0,95.221-42.229,95.844-94.718
		V654.258h211.982c52.49-0.619,94.717-43.347,94.717-95.842C1013.699,505.922,971.473,463.194,918.982,462.575z"/>
	<path display="inline" fill="#E3E7F2" d="M861.475,462.575H649.49V250.59c0-52.096-5.41-94.714-57.501-94.714
		c-52.468,0.06-95.158,42.251-95.841,94.714v211.981H361.962c-52.489,0.619-94.713,43.351-94.713,95.844
		c0,52.492,42.224,95.22,94.713,95.842h134.186v211.981c0.683,52.464,43.373,94.649,95.841,94.713
		c52.091,0,57.501-42.622,57.501-94.713V654.258h211.984c52.488-0.619,94.715-43.347,94.715-95.842
		C956.189,505.922,913.967,463.194,861.475,462.575z"/>
	<path display="inline" fill="#428DFF" d="M611.156,980.125c-63.181,0.24-114.63-50.707-115.008-113.889v-192.81H303.335
		c-63.078-0.62-113.883-51.932-113.883-115.011c0-63.078,50.805-114.389,113.883-115.013h192.813V250.594
		c0.619-63.077,51.93-113.885,115.008-113.885c63.084,0,114.393,50.809,115.016,113.885v192.809h192.805
		c63.078,0.621,113.891,51.932,113.891,115.013c0,63.08-50.813,114.391-113.891,115.011H726.172v192.806
		C725.785,929.418,674.336,980.365,611.156,980.125z M303.335,481.739c-41.902,0.622-75.545,34.767-75.545,76.676
		c0,41.908,33.643,76.051,75.545,76.671h211.977c5.088,0,9.964,2.019,13.56,5.609c3.596,3.596,5.611,8.472,5.611,13.558v211.982
		c0.619,41.9,34.767,75.541,76.673,75.541c41.908,0,76.051-33.641,76.67-75.541V654.258c0-5.086,2.018-9.962,5.613-13.557
		c3.594-3.596,8.473-5.614,13.561-5.611h211.977c41.902-0.62,75.545-34.767,75.545-76.671c0-41.909-33.643-76.054-75.545-76.677H707
		c-5.084,0.004-9.963-2.015-13.561-5.607c-3.596-3.596-5.613-8.476-5.611-13.56V250.594c-0.617-41.901-34.764-75.545-76.672-75.545
		c-41.907,0-76.051,33.645-76.673,75.545v211.981c0.003,5.081-2.016,9.96-5.611,13.556c-3.593,3.596-8.472,5.611-13.556,5.608
		H303.335L303.335,481.739z"/>
</g>
<path fill="#EBEBEB" d="M463.667,795.746c-22.242,0-40.828-15.664-45.32-36.566c-1.082-5.031,2.688-9.793,7.832-9.793h16.953
	c11.34,0,20.535-9.195,20.535-20.535V458.632c0-88.301,71.586-159.887,159.891-159.887c88.301,0,159.887,71.586,159.887,159.887
	v270.219c0,11.34,9.195,20.535,20.535,20.535h16.953c5.145,0,8.914,4.766,7.832,9.793c-4.492,20.902-23.078,36.566-45.32,36.566
	H463.667z"/>
<path fill="#EBEBEB" d="M622.874,341.679c-64.32,0.367-115.879,53.52-115.879,117.84v56.91c0,16.801,13.617,30.418,30.414,30.418
	h17.617c8.285,0,15,6.715,15,15c0,11.758,9.531,21.285,21.285,21.285h9.07l7.5-2.145l7.5,2.145h14.988l7.5-2.395l7.5,2.395h10.43
	c11.758,0,21.285-9.527,21.285-21.285c0-8.285,6.715-15,15.004-15h17.613c16.797,0,30.414-13.617,30.414-30.418v-58.191
	C740.116,393.738,687.46,341.308,622.874,341.679z"/>
<path fill="#D5D4DA" d="M622.874,341.679c-64.32,0.367-115.879,53.52-115.879,117.84v30c0-64.32,51.563-117.473,115.879-117.84
	c64.586-0.371,117.242,52.059,117.242,116.559v-30C740.116,393.738,687.46,341.308,622.874,341.679z"/>
<path fill="#EBEBEB" d="M734.261,722.703c-14.91-17.117-44.488-41.719-102.984-69.848c-74.074-35.102-89.344-60.559-112.457-99.094
	c-14.094-23.496-31.406-52.359-65.945-88.375c-4.09-4.266-10.883-4.355-15.059-0.176l-9.879,9.879
	c-4.043,4.043-4.121,10.586-0.164,14.715c31.66,33.027,47.199,58.93,61.016,81.969c24.492,40.833,43.836,73.083,127.402,112.684
	c57.215,27.512,82.109,50.039,92.457,62.262c4.082,4.824,11.441,5.023,15.75,0.398l9.625-10.328
	C737.698,732.848,737.804,726.766,734.261,722.703z"/>
<path fill="#EBEBEB" d="M518.819,553.761c-7.723-12.871-16.418-27.359-28.375-43.75l-29.926,18.387
	c11.813,15.945,20.328,30.133,28.27,43.375c3.188,5.316,6.293,10.488,9.461,15.547c8.453-8.059,17.465-15.777,27.016-22.887
	C523.147,560.98,521.019,557.429,518.819,553.761z"/>
<path fill="#EBEBEB" d="M518.421,510.98c-7.574-11.965-16.938-25.441-30.176-40.699c-6.836-7.879-18.863-8.441-26.484-1.32
	c-34.5,32.242-117.934,124.535-81.836,235.235c0,0,46.648-107.11,133.637-168.34C521.569,530.222,523.663,519.253,518.421,510.98z"
	/>
<path fill="#8597A5" d="M492.245,474.984c-1.297-1.551-2.621-3.113-4-4.703c-6.836-7.879-18.863-8.445-26.484-1.32
	c-32.113,30.012-106.613,112.066-87.645,212.563C393.386,587.203,456.12,511.871,492.245,474.984z"/>
<path fill="#EBEBEB" d="M672.558,678.934c0,15.609-12.656,28.266-28.266,28.266s-28.266-12.656-28.266-28.266
	s12.656-28.266,28.266-28.266S672.558,663.324,672.558,678.934z"/>
<path fill="#D5D4DA" d="M616.026,678.934c0,11.516,6.891,21.414,16.77,25.82c8.207-5.563,14.711-13.313,18.797-22.613
	c4.086-9.297,5.398-19.336,3.941-29.141c-3.445-1.496-7.246-2.332-11.242-2.332C628.683,650.668,616.026,663.324,616.026,678.934z"
	/>
<path fill="#EBEBEB" d="M629.155,650.449c-5.664-14.547-22.047-21.746-36.594-16.082c-14.547,5.668-21.746,22.051-16.078,36.598
	c5.664,14.543,22.047,21.742,36.594,16.078S634.823,664.992,629.155,650.449z"/>
<path d="M556.511,492.929c-4.141,0-7.5,3.359-7.5,7.5v10.891c0,4.145,3.359,7.5,7.5,7.5s7.5-3.355,7.5-7.5v-10.891
	C564.011,496.289,560.651,492.929,556.511,492.929z"/>
<path d="M690.585,492.929c-4.145,0-7.5,3.359-7.5,7.5v10.891c0,4.145,3.355,7.5,7.5,7.5c4.141,0,7.5-3.355,7.5-7.5v-10.891
	C698.085,496.289,694.726,492.929,690.585,492.929z"/>
<path d="M628.089,510.695c-1.918-3.711-7.25-3.633-9.066,0.129l-4.836,10.031c-1.621,3.367,0.832,7.27,4.566,7.27h10.027
	c3.801,0,6.25-4.023,4.504-7.398L628.089,510.695z"/>
<path d="M379.526,593.378c-4-1.07-8.117,1.301-9.188,5.301c-9.797,36.536-8.977,72.817,2.445,107.84
	c2.086,6.395,11.324,6.836,14.008,0.672c0.332-0.758,24.438-55.297,69.367-107.926v129.586c0,7.188-5.852,13.039-13.039,13.039
	h-16.949c-4.703,0-9.098,2.098-12.055,5.754c-2.977,3.688-4.109,8.465-3.113,13.113c5.297,24.617,27.438,42.488,52.656,42.488
	h319.773c25.219,0,47.363-17.871,52.656-42.488c1-4.648-0.137-9.426-3.113-13.113c-2.957-3.656-7.348-5.754-12.051-5.754h-16.953
	c-7.188,0-13.039-5.852-13.039-13.039V458.632c0.004-92.297-75.086-167.387-167.387-167.387
	c-92.199,0-167.227,74.934-167.383,167.098c-3.125-2.371-6.973-3.711-10.926-3.711c-4.809,0-9.332,1.875-12.734,5.273l-9.879,9.883
	c-6.883,6.879-7.004,18.188-0.273,25.207c0.801,0.84,1.605,1.684,2.406,2.531c-15.758,19.199-32.445,43.672-44.383,72.008
	c-1.605,3.82,0.184,8.219,4,9.824c3.82,1.609,8.219-0.184,9.824-4c12.379-29.383,30.223-54.469,46.422-73.426
	c7.801-9.133,16.078-17.855,24.793-26.121c2.535-2.402,5.227-4.297,8.906-4.324h0.148c3.063,0.031,6.09,1.391,8.102,3.711
	c10.84,12.492,20.66,25.824,29.508,39.793c3.004,4.742,1.871,11.266-2.684,14.602c-11.152,8.176-21.945,16.629-32.121,26.008
	c-0.039,0.035-0.074,0.078-0.117,0.117c-26.238,25.113-49.418,52.762-69.316,83.165c-11.402,17.418-20.023,32.82-25.836,43.961
	c-5.379-26.266-4.441-53.184,2.824-80.277C385.897,598.566,383.526,594.453,379.526,593.378z M434.565,486.066
	c-0.461-0.484-0.922-0.969-1.387-1.453c-1.125-1.172-1.102-3.066,0.051-4.219l9.883-9.883c1.195-1.191,3.18-1.145,4.34,0.066
	c0.293,0.309,0.59,0.617,0.887,0.926C448.167,471.671,434.304,485.792,434.565,486.066z M492.968,464.347
	c-4.523-4.672-10.707-7.496-17.227-7.84c-1.543-0.078-3.07-0.02-4.57,0.164c1.055-83.125,69.004-150.426,152.375-150.426
	c84.027,0,152.391,68.359,152.391,152.387v270.219c0,15.457,12.574,28.035,28.035,28.035h16.953c0.082,0,0.234,0,0.383,0.184
	c0.184,0.227,0.133,0.457,0.117,0.531c-3.816,17.758-19.793,30.645-37.988,30.645H463.659c-18.195,0-34.172-12.887-37.992-30.645
	c-0.016-0.074-0.066-0.305,0.117-0.531c0.148-0.184,0.301-0.184,0.387-0.184h16.949c15.461,0,28.039-12.578,28.039-28.035V582.644
	c3.113-3.262,6.313-6.488,9.59-9.668c0.531,0.883,1.07,1.777,1.598,2.656c19.52,32.543,36.453,60.739,85.215,91.137
	c0.406,2.34,1.047,4.66,1.93,6.922c5.395,13.848,18.477,22.793,33.332,22.793c3.25,0,6.457-0.441,9.574-1.316
	c5.969,11.816,18.102,19.531,31.883,19.531c3.422,0,6.73-0.492,9.863-1.395c27.602,16.668,41.734,29.949,48.77,38.258
	c6.875,8.121,19.699,8.461,26.961,0.668l9.625-10.328c6.313-6.773,6.488-17.148,0.406-24.129
	c-13.801-15.836-34.34-31.965-61.043-47.969c-4.047-15.313-18.016-26.637-34.582-26.637c-3.254,0-6.488,0.461-9.602,1.328
	c-6.066-11.98-18.207-19.555-31.867-19.555c-2.293,0-4.566,0.223-6.801,0.66c-38.652-23.625-52.074-44.579-68.961-72.688
	c3.324,0.941,6.801,1.434,10.352,1.434h17.613c4.137,0,7.504,3.363,7.504,7.5c0,15.871,12.91,28.785,28.785,28.785h64.488
	c15.871,0,28.781-12.914,28.781-28.785c0-4.137,3.367-7.5,7.504-7.5h17.613c20.91,0,37.918-17.012,37.918-37.918v-58.191
	c0-25.855-7.914-50.656-22.883-71.719c-2.398-3.375-7.082-4.168-10.457-1.766c-3.375,2.398-4.168,7.082-1.77,10.457
	c13.156,18.508,20.109,40.301,20.109,63.027v58.191c0,12.637-10.281,22.918-22.918,22.918h-17.613c-12.406,0-22.5,10.094-22.5,22.5
	c0,7.602-6.184,13.785-13.785,13.785h-10.43v-15.348c0-4.141-3.359-7.5-7.5-7.5c-4.145,0-7.5,3.359-7.5,7.5v15.348h-14.988v-15.348
	c0-4.141-3.359-7.5-7.5-7.5c-4.145,0-7.5,3.359-7.5,7.5v15.348h-9.07c-7.602,0-13.785-6.184-13.785-13.785
	c0-12.406-10.094-22.5-22.5-22.5h-17.617c-4.707,0-9.211-1.43-12.992-4.039c5.266-7.828,5.789-18.16,1.398-26.504
	c-3.145-5.969-7.41-11.676-11.324-17.207v-32.078c0-60.5,48.641-110,108.426-110.34c26.16-0.168,51.543,9.148,71.453,26.188
	c3.148,2.691,7.879,2.324,10.574-0.824c2.695-3.145,2.324-7.879-0.82-10.574c-22.469-19.23-51.059-29.793-80.582-29.793
	c-0.234,0-0.473,0-0.711,0.004c-68.008,0.391-123.336,56.617-123.336,125.34v12.453
	C498.847,471.199,493.284,464.679,492.968,464.347z M679.019,687.492c21.516,13.563,38.164,27.035,49.578,40.137
	c1.02,1.172,0.988,2.91-0.07,4.047l-9.625,10.332c-1.234,1.324-3.379,1.234-4.539-0.133c-7.109-8.402-20.598-21.293-45.395-37.035
	c3.93-3.734,6.934-8.32,8.82-13.406C677.854,691.262,678.737,688.652,679.019,687.492z M664.89,676.441
	c1.551,12.117-8.457,23.258-20.609,23.258c-8.059,0-15.148-4.543-18.586-11.484c4.215-3.5,7.598-7.949,9.867-13.113
	c2.27-5.16,3.258-10.656,2.988-16.125c1.855-0.531,3.789-0.809,5.73-0.809C654.601,658.168,663.597,666.359,664.89,676.441z
	 M623.085,656.551c2.773,12.523-7.52,24.938-20.258,24.938c-11.066,0-20.441-9.156-20.75-20.207
	c-0.32-11.422,9.219-21.34,20.734-21.34C612.714,639.941,621.046,647.363,623.085,656.551z M579.819,633.305
	c-1.172,0.98-2.277,2.047-3.313,3.172c-2.684,2.918-4.871,6.281-6.457,9.914c-0.477,1.094-0.922,2.203-1.285,3.344
	c-40.531-26.762-55.254-51.313-73.551-81.821c-1.066-1.77-2.141-3.563-3.23-5.367c1.59-1.41,11.922-10.086,15.578-12.926
	c1.699,2.801,3.316,5.492,4.816,7.996c16.98,28.309,30.691,51.172,67.59,75.567C579.917,633.223,579.87,633.266,579.819,633.305z"/>
</svg>
