<svg id="Camada_1" data-name="Camada 1" xmlns="http://www.w3.org/2000/svg" viewBox="0 0 49.33 40.99"><defs><style>.cls-1{fill:#fff;}.cls-2{fill:#fffefe;}</style></defs><title>Imagem1</title><path class="cls-1" d="M45.07,9.1a1,1,0,0,0-1.37,1.37,1,1,0,0,0,1.37,0,1,1,0,0,0,0-1.37Z" transform="translate(0 -4.78)"/><path class="cls-1" d="M22.94,31.79a1,1,0,1,0,.28.69A1,1,0,0,0,22.94,31.79Z" transform="translate(0 -4.78)"/><path class="cls-2" d="M47.4,12.3a1,1,0,0,0-1.68,1,12.93,12.93,0,0,1-2.1,15.51l-.73.73a3.47,3.47,0,0,0-.82-1.27l-9.9-9.9a6.68,6.68,0,0,0,1.77-1.27l1.9-1.9a1,1,0,0,0-1.36-1.36l-1.9,1.89a4.67,4.67,0,0,1-3.34,1.39h-3.8a1,1,0,0,0-.68.28l-2.9,2.91a2.21,2.21,0,0,1-3.13-3.13l6.63-6.64A13,13,0,0,1,40.75,8.33a1,1,0,0,0,.94-1.68,15,15,0,0,0-9.17-1.73,14.74,14.74,0,0,0-7.85,3.59,14.82,14.82,0,0,0-20.32.62,14.84,14.84,0,0,0,0,21l.36.36a.83.83,0,0,0,.21.16,3.55,3.55,0,0,0,1,2.28A3.6,3.6,0,0,0,8.53,34h.15v.15A3.6,3.6,0,0,0,9.74,36.7a3.66,3.66,0,0,0,2.57,1.06h.14v.15a3.62,3.62,0,0,0,3.63,3.63h.15a3.64,3.64,0,0,0,1.05,2.71,3.65,3.65,0,0,0,5.14,0l1.35-1.35,1.81,1.82a3.62,3.62,0,0,0,5.14,0A3.67,3.67,0,0,0,31.78,42H32a3.61,3.61,0,0,0,3.62-3.78h.15a3.61,3.61,0,0,0,2.57-1.07,3.66,3.66,0,0,0,1.06-2.71h.14a3.6,3.6,0,0,0,2.57-1.06,3.65,3.65,0,0,0,.79-1.18,1.1,1.1,0,0,0,.26-.18L45,30.13A14.88,14.88,0,0,0,47.4,12.3ZM8.53,32.06a1.7,1.7,0,0,1-1.2-2.91L9,27.49A1.7,1.7,0,0,1,11.4,29.9L9.74,31.56A1.7,1.7,0,0,1,8.53,32.06Zm2.57,3.27a1.7,1.7,0,0,1,0-2.41l1.66-1.66h0a1.7,1.7,0,0,1,2.41,2.41l-1.66,1.66A1.7,1.7,0,0,1,11.1,35.33Zm3.77,3.77a1.71,1.71,0,0,1,0-2.4L16.53,35h0a1.71,1.71,0,0,1,1.21-.49,1.7,1.7,0,0,1,1.2,2.9L17.28,39.1A1.7,1.7,0,0,1,14.87,39.1Zm7.85,2.12-1.66,1.66a1.72,1.72,0,0,1-1.21.5,1.71,1.71,0,0,1-1.2-2.91l1.66-1.66h0a1.7,1.7,0,0,1,1.2-.5,1.72,1.72,0,0,1,1.21.5,1.7,1.7,0,0,1,.5,1.2A1.72,1.72,0,0,1,22.72,41.22Zm18-9.22a1.7,1.7,0,0,1-2.41,0l-4-4h0l-3.77-3.77a1,1,0,0,0-1.37,1.36l7.79,7.78a1.71,1.71,0,0,1-1.21,2.91,1.7,1.7,0,0,1-1.2-.5L26.74,28a1,1,0,0,0-1.36,1.36l3.77,3.77h0l4,4a1.7,1.7,0,0,1-2.41,2.41l-4-4a1.08,1.08,0,0,0-.24-.18l-1.15-1.14A1,1,0,0,0,24,35.57l5.37,5.37a1.71,1.71,0,0,1-1.21,2.91,1.7,1.7,0,0,1-1.2-.5l-2-2a3.78,3.78,0,0,0,.23-1.3,3.6,3.6,0,0,0-1.06-2.57,3.64,3.64,0,0,0-2.57-1.06h-.14a3.69,3.69,0,0,0-1.06-2.71,3.64,3.64,0,0,0-2.57-1.06h-.15A3.61,3.61,0,0,0,14,28.84h-.15a3.58,3.58,0,0,0-1.06-2.71,3.62,3.62,0,0,0-5.13,0L6,27.79a3.84,3.84,0,0,0-.54.68A12.92,12.92,0,0,1,23.29,9.85l-5.93,5.92a4.14,4.14,0,0,0,5.86,5.86L25.84,19h3.4a5.69,5.69,0,0,0,.83-.06L40.71,29.59A1.71,1.71,0,0,1,40.71,32Z" transform="translate(0 -4.78)"/></svg>