<svg id="Camada_1" data-name="Camada 1" xmlns="http://www.w3.org/2000/svg" viewBox="0 0 49.82 45.92"><defs><style>.cls-1{fill:#fff;}</style></defs><title>Imagem2</title><path class="cls-1" d="M26.89,23.18a.1.1,0,0,0-.07,0,.08.08,0,0,0-.06,0,.12.12,0,0,0,0,.16.07.07,0,0,0,.06,0,.09.09,0,0,0,.07,0,.12.12,0,0,0,0-.16Z" transform="translate(-0.09 -2.15)"/><path class="cls-1" d="M24.71,25.87a.09.09,0,0,0-.07,0,.11.11,0,0,0-.07,0,.17.17,0,0,0,0,.16.11.11,0,0,0,.07,0,.09.09,0,0,0,.07,0,.12.12,0,0,0,0-.16Z" transform="translate(-0.09 -2.15)"/><path class="cls-1" d="M48.93,39.07H34V33.31a10,10,0,0,1,2.17-6.22L39.34,23a1.7,1.7,0,0,1,1.57-.63A1.7,1.7,0,0,1,42.09,25l-3.45,5.19a1,1,0,0,0,1.62,1.08l3.45-5.2a3.65,3.65,0,0,0-5.9-4.28l-3.22,4.07A12,12,0,0,0,32,33.31v5.76a1,1,0,0,0-1,1V47.1a1,1,0,0,0,1.95,0V41H48V47.1a1,1,0,0,0,1.95,0V40.05A1,1,0,0,0,48.93,39.07Z" transform="translate(-0.09 -2.15)"/><path class="cls-1" d="M48.64,35.16a1,1,0,0,0-1.37,0,1,1,0,1,0,1.37,1.37,1,1,0,0,0,0-1.37Z" transform="translate(-0.09 -2.15)"/><path class="cls-1" d="M46.77,15.4,42.34,4.71a4.15,4.15,0,1,0-7.66,3.22l4.7,11a1,1,0,0,0,1.79-.76l-4.7-11a2.21,2.21,0,1,1,4.07-1.71L45,16.14A26.13,26.13,0,0,1,47,26.2v5.63a1,1,0,0,0,2,0V26.2A28,28,0,0,0,46.77,15.4Z" transform="translate(-0.09 -2.15)"/><path class="cls-1" d="M37.5,43.44h0a1,1,0,0,0-1.43,1.31h0a1,1,0,0,0,1.44-1.31Z" transform="translate(-0.09 -2.15)"/><path class="cls-1" d="M18,39.07V33.31a12,12,0,0,0-2.58-7.43l-3.22-4.07a3.65,3.65,0,0,0-5.9,4.28l3.45,5.2a1,1,0,1,0,1.62-1.08L7.91,25a1.72,1.72,0,0,1-.16-1.59A1.7,1.7,0,0,1,10.66,23l3.22,4.07a10,10,0,0,1,2.17,6.22v5.76H3V26.2A26.13,26.13,0,0,1,5,16.14L9.46,5.46a2.21,2.21,0,1,1,4.07,1.71l-4.7,11a1,1,0,0,0,1.79.76l4.7-11A4.15,4.15,0,1,0,7.66,4.71L3.23,15.4A28,28,0,0,0,1.07,26.2V39.07h0a1,1,0,0,0-1,1V47.1a1,1,0,0,0,2,0V41H17V47.1a1,1,0,0,0,1.95,0V40.05A1,1,0,0,0,18,39.07Z" transform="translate(-0.09 -2.15)"/><path class="cls-1" d="M13.88,43.37a1,1,0,0,0-1.37.06h0a1,1,0,1,0,1.44,1.31h0A1,1,0,0,0,13.88,43.37Z" transform="translate(-0.09 -2.15)"/><path class="cls-1" d="M28.86,11A6,6,0,0,0,25,12.44,6,6,0,0,0,21.14,11a6.55,6.55,0,0,0-6.28,6.78c0,2.15,1.64,4.76,4.89,7.77a47.34,47.34,0,0,0,4.7,3.77,1,1,0,0,0,1.1,0,47.34,47.34,0,0,0,4.7-3.77c3.25-3,4.89-5.62,4.89-7.77A6.55,6.55,0,0,0,28.86,11Zm.08,13.1A42.2,42.2,0,0,1,25,27.33a43.27,43.27,0,0,1-3.92-3.2c-2.76-2.55-4.28-4.8-4.28-6.34A4.62,4.62,0,0,1,21.14,13a4.1,4.1,0,0,1,3.12,1.48,1,1,0,0,0,1.48,0A4.1,4.1,0,0,1,28.86,13a4.62,4.62,0,0,1,4.34,4.84C33.2,19.33,31.69,21.57,28.94,24.11Z" transform="translate(-0.09 -2.15)"/></svg>