<svg id="Camada_1" data-name="Camada 1" xmlns="http://www.w3.org/2000/svg" viewBox="0 0 46.18 46.55"><defs><style>.cls-1{fill:#fff;}</style></defs><title>Imagem3</title><g id="Safety"><path class="cls-1" d="M45.62,16.41A3.18,3.18,0,0,0,42,18.77l-1.83,6.82a3.11,3.11,0,0,0-3.26-.09l-5.3,3.11a7,7,0,0,0-3.46,6v5.89H26.55a.77.77,0,0,0-.77.77V47.5a.77.77,0,0,0,.77.78h14a.77.77,0,0,0,.77-.78V41.29a.77.77,0,0,0-.77-.77H39v-.9a2.31,2.31,0,0,1,.81-1.77l3.62-3.1a3.91,3.91,0,0,0,1.22-1.94L48,20.24a3.11,3.11,0,0,0-2.37-3.83ZM39.74,46.73H27.33V42.07H39.74Zm6.75-26.89L43.12,32.41a2.33,2.33,0,0,1-.73,1.16l-3.62,3.1a3.89,3.89,0,0,0-1.35,2.95v.9H29.66V34.63A5.43,5.43,0,0,1,32.34,30l5.3-3.11a1.49,1.49,0,0,1,.77-.21,1.53,1.53,0,0,1,1.39.85,1.64,1.64,0,0,1-.71,2.11l-4.34,2.5a.78.78,0,0,0-.29,1.06.79.79,0,0,0,1.07.29h0l4.34-2.51a3.16,3.16,0,0,0,1.45-3.8l2.13-8a1.66,1.66,0,0,1,1.86-1.24,1.56,1.56,0,0,1,1.23,1.51,1.83,1.83,0,0,1,0,.4Z" transform="translate(-1.91 -1.72)"/><path class="cls-1" d="M23.45,40.52H21.9V34.63a7,7,0,0,0-3.45-6l-5.31-3.12a3.11,3.11,0,0,0-3.26.1L8.05,18.77A3.19,3.19,0,0,0,4.38,16.4,3.11,3.11,0,0,0,2,20.09l0,.15L5.38,32.81A3.91,3.91,0,0,0,6.6,34.75l3.62,3.1A2.32,2.32,0,0,1,11,39.62v.9H9.48a.78.78,0,0,0-.77.77V47.5a.78.78,0,0,0,.77.78h14a.78.78,0,0,0,.78-.78V41.29A.78.78,0,0,0,23.45,40.52ZM11.23,36.67l-3.61-3.1a2.31,2.31,0,0,1-.74-1.17L3.51,19.84a1.83,1.83,0,0,1,0-.4A1.58,1.58,0,0,1,4.7,17.92a1.65,1.65,0,0,1,1.85,1.25l2.13,8a3.18,3.18,0,0,0,1.45,3.81l4.35,2.5a.77.77,0,0,0,1.06-.29.78.78,0,0,0-.28-1.06l-4.35-2.5a1.63,1.63,0,0,1-.71-2.1,1.53,1.53,0,0,1,1.39-.85,1.61,1.61,0,0,1,.77.2L17.66,30a5.46,5.46,0,0,1,2.69,4.68v5.89H12.59v-.9A3.9,3.9,0,0,0,11.23,36.67ZM22.67,46.73H10.26V42.07H22.67Z" transform="translate(-1.91 -1.72)"/><path class="cls-1" d="M37.42,12.28V2.5a.78.78,0,0,0-.78-.78.77.77,0,0,0-.39.11l-1.1.63a8.51,8.51,0,0,1-8,.22l-1.76-.87a.76.76,0,0,0-.69,0l-1.74.87a8.53,8.53,0,0,1-8.06-.22l-1.1-.63a.77.77,0,0,0-1.06.28.76.76,0,0,0-.1.39v9.78A19.34,19.34,0,0,0,22.86,29.39l1.78.95a.79.79,0,0,0,.73,0l1.78-.95A19.38,19.38,0,0,0,37.42,12.28ZM25,28.78,23.59,28a17.8,17.8,0,0,1-9.45-15.74V3.84a10.09,10.09,0,0,0,9.46.23l1.4-.7,1.4.7a10,10,0,0,0,9.46-.23v8.44A17.79,17.79,0,0,1,26.42,28Z" transform="translate(-1.91 -1.72)"/><path class="cls-1" d="M34.31,7.18a.77.77,0,0,0-.77-.77h-.17a11.66,11.66,0,0,1-7.66-1l-.36-.18a.78.78,0,0,0-.7,0l-.36.18a11.78,11.78,0,0,1-7.66,1,.78.78,0,0,0-.92.6.88.88,0,0,0,0,.16v5.1a16.23,16.23,0,0,0,8.63,14.37l.32.17a.79.79,0,0,0,.73,0l.32-.17a16.24,16.24,0,0,0,8.62-14.37Zm-1.55,5.1a14.72,14.72,0,0,1-7.76,13,14.74,14.74,0,0,1-7.76-13V8.11A13.3,13.3,0,0,0,25,6.85h0a13.26,13.26,0,0,0,7.74,1.26Z" transform="translate(-1.91 -1.72)"/><path class="cls-1" d="M29.39,11l-5.94,5.94L21,14.5a.78.78,0,0,0-1.1,1.1l3,3a.78.78,0,0,0,1.1,0l6.49-6.49a.78.78,0,0,0,0-1.1.78.78,0,0,0-1.1,0l0,0Z" transform="translate(-1.91 -1.72)"/></g></svg>