<svg width="512" height="512" xmlns="http://www.w3.org/2000/svg">
 <!-- Created with Method Draw - http://github.com/duopixel/Method-Draw/ -->

 <g>
  <title>background</title>
  <rect fill="#fff" id="canvas_background" height="514" width="514" y="-1" x="-1"/>
 </g>
 <g>
  <title>Layer 1</title>
  <g stroke="null" id="svg_334">
   <g stroke="null" transform="matrix(0.9761557873522594,0,0,0.9761557873522594,-12121.970895620003,-12050.317812982557) " id="svg_174" display="none">
    <rect stroke="null" id="svg_175" height="19.648" width="137.539" fill="#000033" y="12596.614414" x="12614.556241"/>
    <path stroke="null" id="svg_176" d="m12747.501241,12400.987414l-14.42,0l0,28.839l14.42,0c7.951,0 14.419,-6.467 14.419,-14.419s-6.468,-14.42 -14.419,-14.42z" fill="#000033"/>
    <path stroke="null" id="svg_177" d="m12869.985241,12675.208414l-373.32,0c-10.834,0 -19.648,8.814 -19.648,19.648l0,19.65l412.617,0l0,-19.65c0,-10.834 -8.814,-19.648 -19.649,-19.648z" fill="#000033"/>
    <path stroke="null" id="svg_178" d="m12619.152241,12400.986414l-14.42,0l0,28.84l14.42,0c7.952,0 14.419,-6.468 14.419,-14.42s-6.467,-14.42 -14.419,-14.42z" fill="#000033"/>
    <path stroke="null" id="svg_179" d="m12674.326241,12070.649414c-216.414,0 -392.501,176.085 -392.501,392.501c0,239.181 337.453,742.071 351.827,763.364c9.076,13.492 24.286,21.586 40.524,21.635l0.149,0c16.239,0 31.398,-7.996 40.525,-21.391c14.375,-21.047 351.974,-518.246 351.974,-763.608c0.003,-216.417 -176.084,-392.501 -392.498,-392.501zm-122.992,215.176l0.005,-0.005c3.838,-3.835 10.057,-3.835 13.895,0c3.836,3.837 3.836,10.058 0,13.895c-1.919,1.918 -4.435,2.878 -6.951,2.878c-2.514,0 -5.027,-0.958 -6.946,-2.876c-3.836,-3.839 -3.839,-10.056 -0.003,-13.892zm357.948,438.506c0,5.426 -4.398,9.824 -9.824,9.824l-432.266,0c-5.425,0 -9.824,-4.398 -9.824,-9.824l0,-29.475c0,-21.668 17.628,-39.296 39.297,-39.296l0,-237.748c0,-35.164 9.95,-69.487 28.775,-99.26c2.899,-4.585 8.965,-5.953 13.554,-3.052c4.586,2.9 5.952,8.969 3.052,13.555c-16.834,26.625 -25.733,57.317 -25.733,88.758l0,237.748l334.023,0l0,-237.749c0,-92.09 -74.921,-167.012 -167.012,-167.012c-31.436,0 -62.127,8.899 -88.756,25.733c-4.586,2.901 -10.655,1.531 -13.555,-3.054c-2.898,-4.586 -1.531,-10.654 3.054,-13.554c29.776,-18.824 64.1,-28.773 99.257,-28.773c49.663,0 96.484,19.47 131.838,54.823c35.353,35.354 54.822,82.174 54.822,131.837l0,237.748c21.668,0 39.297,17.628 39.297,39.296l0,29.475l0.001,0zm-235.777,-186.663l58.941,0c5.426,0 9.824,4.399 9.824,9.824c0,5.424 -4.398,9.824 -9.824,9.824l-58.941,0c-5.425,0 -9.824,-4.4 -9.824,-9.824c0,-5.425 4.398,-9.824 9.824,-9.824zm-0.003,-64.842l0,-81.664c0,-5.425 4.399,-9.824 9.824,-9.824s9.824,4.399 9.824,9.824l0,81.664c0,5.425 -4.399,9.824 -9.824,9.824s-9.824,-4.398 -9.824,-9.824zm73.999,-23.352l-14.42,0l0,23.353c0,5.425 -4.4,9.824 -9.824,9.824c-5.426,0 -9.824,-4.399 -9.824,-9.824l0,-81.664c0,-5.425 4.398,-9.824 9.824,-9.824l24.244,0c18.784,0 34.067,15.282 34.067,34.067c0,18.784 -15.283,34.068 -34.067,34.068zm34.067,23.351c0,5.425 -4.397,9.824 -9.824,9.824c-5.426,0 -9.828,-4.399 -9.828,-9.824c0,-5.425 4.396,-9.824 9.821,-9.824l0.007,0c5.426,0 9.824,4.399 9.824,9.824zm-19.649,104.141c5.426,0 9.824,4.398 9.824,9.824l0,39.297c0,5.425 -4.398,9.824 -9.824,9.824l-157.187,0c-5.425,0 -9.824,-4.399 -9.824,-9.824l0,-39.297c0,-5.426 4.399,-9.824 9.824,-9.824l157.187,0zm-137.535,-29.474c0,-5.425 4.396,-9.824 9.82,-9.824l0.008,0c5.425,0 9.824,4.399 9.824,9.824c0,5.424 -4.398,9.824 -9.824,9.824c-5.426,0 -9.828,-4.399 -9.828,-9.824zm22.429,-79.578c2.714,4.699 1.104,10.706 -3.596,13.42c-1.546,0.893 -3.236,1.318 -4.902,1.318c-3.396,0 -6.697,-1.763 -8.518,-4.914l-16.318,-28.265l-8.749,0l0,23.353c0,5.425 -4.399,9.824 -9.824,9.824s-9.824,-4.399 -9.824,-9.824l0,-81.664c0,-5.425 4.399,-9.824 9.824,-9.824l24.245,0c18.785,0 34.068,15.284 34.068,34.068c0,13.404 -7.783,25.021 -19.067,30.578l12.661,21.93z" fill="#000033"/>
   </g>
   <g stroke="null" transform="matrix(0.9761557873522594,0,0,0.9761557873522594,-12121.970895620003,-12050.317812982557) " id="svg_180" display="none">
    <rect stroke="null" id="svg_181" height="19.648" width="137.539" fill="#000033" y="12596.614414" x="12614.556241"/>
    <path stroke="null" id="svg_182" d="m12747.501241,12400.987414l-14.42,0l0,28.839l14.42,0c7.951,0 14.419,-6.467 14.419,-14.419s-6.468,-14.42 -14.419,-14.42z" fill="#000033"/>
    <path stroke="null" id="svg_183" d="m12869.985241,12675.208414l-373.32,0c-10.834,0 -19.648,8.814 -19.648,19.648l0,19.65l412.617,0l0,-19.65c0,-10.834 -8.814,-19.648 -19.649,-19.648z" fill="#000033"/>
    <path stroke="null" id="svg_184" d="m12619.152241,12400.986414l-14.42,0l0,28.84l14.42,0c7.952,0 14.419,-6.468 14.419,-14.42s-6.467,-14.42 -14.419,-14.42z" fill="#000033"/>
    <path stroke="null" id="svg_185" d="m12674.326241,12070.649414c-216.414,0 -392.501,176.085 -392.501,392.501c0,239.181 337.453,742.071 351.827,763.364c9.076,13.492 24.286,21.586 40.524,21.635l0.149,0c16.239,0 31.398,-7.996 40.525,-21.391c14.375,-21.047 351.974,-518.246 351.974,-763.608c0.003,-216.417 -176.084,-392.501 -392.498,-392.501zm-122.992,215.176l0.005,-0.005c3.838,-3.835 10.057,-3.835 13.895,0c3.836,3.837 3.836,10.058 0,13.895c-1.919,1.918 -4.435,2.878 -6.951,2.878c-2.514,0 -5.027,-0.958 -6.946,-2.876c-3.836,-3.839 -3.839,-10.056 -0.003,-13.892zm357.948,438.506c0,5.426 -4.398,9.824 -9.824,9.824l-432.266,0c-5.425,0 -9.824,-4.398 -9.824,-9.824l0,-29.475c0,-21.668 17.628,-39.296 39.297,-39.296l0,-237.748c0,-35.164 9.95,-69.487 28.775,-99.26c2.899,-4.585 8.965,-5.953 13.554,-3.052c4.586,2.9 5.952,8.969 3.052,13.555c-16.834,26.625 -25.733,57.317 -25.733,88.758l0,237.748l334.023,0l0,-237.749c0,-92.09 -74.921,-167.012 -167.012,-167.012c-31.436,0 -62.127,8.899 -88.756,25.733c-4.586,2.901 -10.655,1.531 -13.555,-3.054c-2.898,-4.586 -1.531,-10.654 3.054,-13.554c29.776,-18.824 64.1,-28.773 99.257,-28.773c49.663,0 96.484,19.47 131.838,54.823c35.353,35.354 54.822,82.174 54.822,131.837l0,237.748c21.668,0 39.297,17.628 39.297,39.296l0,29.475l0.001,0zm-235.777,-186.663l58.941,0c5.426,0 9.824,4.399 9.824,9.824c0,5.424 -4.398,9.824 -9.824,9.824l-58.941,0c-5.425,0 -9.824,-4.4 -9.824,-9.824c0,-5.425 4.398,-9.824 9.824,-9.824zm-0.003,-64.842l0,-81.664c0,-5.425 4.399,-9.824 9.824,-9.824s9.824,4.399 9.824,9.824l0,81.664c0,5.425 -4.399,9.824 -9.824,9.824s-9.824,-4.398 -9.824,-9.824zm73.999,-23.352l-14.42,0l0,23.353c0,5.425 -4.4,9.824 -9.824,9.824c-5.426,0 -9.824,-4.399 -9.824,-9.824l0,-81.664c0,-5.425 4.398,-9.824 9.824,-9.824l24.244,0c18.784,0 34.067,15.282 34.067,34.067c0,18.784 -15.283,34.068 -34.067,34.068zm34.067,23.351c0,5.425 -4.397,9.824 -9.824,9.824c-5.426,0 -9.828,-4.399 -9.828,-9.824c0,-5.425 4.396,-9.824 9.821,-9.824l0.007,0c5.426,0 9.824,4.399 9.824,9.824zm-19.649,104.141c5.426,0 9.824,4.398 9.824,9.824l0,39.297c0,5.425 -4.398,9.824 -9.824,9.824l-157.187,0c-5.425,0 -9.824,-4.399 -9.824,-9.824l0,-39.297c0,-5.426 4.399,-9.824 9.824,-9.824l157.187,0zm-137.535,-29.474c0,-5.425 4.396,-9.824 9.82,-9.824l0.008,0c5.425,0 9.824,4.399 9.824,9.824c0,5.424 -4.398,9.824 -9.824,9.824c-5.426,0 -9.828,-4.399 -9.828,-9.824zm22.429,-79.578c2.714,4.699 1.104,10.706 -3.596,13.42c-1.546,0.893 -3.236,1.318 -4.902,1.318c-3.396,0 -6.697,-1.763 -8.518,-4.914l-16.318,-28.265l-8.749,0l0,23.353c0,5.425 -4.399,9.824 -9.824,9.824s-9.824,-4.399 -9.824,-9.824l0,-81.664c0,-5.425 4.399,-9.824 9.824,-9.824l24.245,0c18.785,0 34.068,15.284 34.068,34.068c0,13.404 -7.783,25.021 -19.067,30.578l12.661,21.93z" fill="#000033"/>
   </g>
   <g stroke="null" transform="matrix(0.9761557873522594,0,0,0.9761557873522594,-12121.970895620003,-12050.317812982557) " id="svg_186" display="none">
    <g stroke="null" id="svg_187" display="inline">
     <path stroke="null" id="svg_188" d="m12679.338241,12069.399414c-216.414,0 -392.502,176.085 -392.502,392.501c0,239.18 337.454,742.071 351.828,763.364c9.076,13.492 24.286,21.587 40.524,21.636l0.149,0c16.239,0 31.398,-7.996 40.525,-21.391c14.375,-21.047 351.974,-518.247 351.974,-763.609c0.003,-216.416 -176.084,-392.501 -392.498,-392.501zm147.188,441.563l-98.127,0l0,235.501c0,27.082 -21.979,49.062 -49.062,49.062c-27.082,0 -49.062,-21.979 -49.062,-49.062l0,-235.501l-98.126,0c-27.083,0 -49.062,-21.979 -49.062,-49.062c0,-27.083 21.979,-49.062 49.062,-49.062l98.126,0l0,-98.126c0,-27.083 21.979,-49.062 49.062,-49.062c27.083,0 49.062,21.979 49.062,49.062l0,98.126l98.127,0c27.082,0 49.061,21.979 49.061,49.062c0,27.082 -21.979,49.062 -49.061,49.062z" fill="#272343"/>
    </g>
   </g>
   <g stroke="null" transform="matrix(0.9761557873522594,0,0,0.9761557873522594,-12121.970895620003,-12050.317812982557) " id="svg_189" display="none">
    <path stroke="null" id="svg_190" d="m13215.556241,12144.820414l-40.574,-18.049l-18.065,-40.59l-44.156,4.611l-35.925,-26.052l-35.945,26.052l-44.135,-4.611l-18.052,40.572l-40.59,18.067l4.613,44.156l-26.052,35.924l26.052,35.945l-4.613,44.136l40.574,18.049l18.067,40.59l44.155,-4.611l35.926,26.052l35.944,-26.053l44.136,4.611l18.05,-40.574l40.59,-18.064l-4.614,-44.156l26.055,-35.924l-26.055,-35.945l4.614,-44.136zm-170.752,144.145l-45.327,-45.327l15.109,-15.055l30.218,30.163l90.596,-90.596l15.109,15.106l-105.705,105.709z" fill="#57A4FF"/>
    <path stroke="null" id="svg_191" d="m13241.321241,12221.767414l-24.858,-34.292l4.405,-42.115c0.24,-2.302 -1.027,-4.494 -3.142,-5.435l-38.692,-17.218l-17.218,-38.695c-0.946,-2.109 -3.136,-3.373 -5.436,-3.144l-42.122,4.403l-34.288,-24.856c-1.869,-1.355 -4.398,-1.355 -6.268,0l-34.292,24.855l-42.12,-4.403c-2.297,-0.219 -4.479,1.043 -5.435,3.139l-17.218,38.695l-38.695,17.223c-2.111,0.938 -3.378,3.13 -3.139,5.43l4.403,42.121l-24.856,34.292c-1.355,1.869 -1.355,4.397 0,6.267l24.856,34.29l-4.403,42.123c-0.242,2.3 1.024,4.494 3.139,5.436l38.695,17.218l17.218,38.694c0.951,2.102 3.135,3.365 5.435,3.145l42.12,-4.406l34.292,24.858c1.869,1.356 4.398,1.356 6.268,0l34.289,-24.858l42.122,4.406c2.3,0.231 4.487,-1.033 5.436,-3.139l17.218,-38.695l38.692,-17.223c2.112,-0.941 3.379,-3.131 3.142,-5.43l-4.405,-42.123l24.858,-34.29c1.357,-1.871 1.357,-4.404 -0.001,-6.273zm-34.702,35.945c-0.774,1.066 -1.126,2.38 -0.988,3.688l4.208,40.295l-37.024,16.482c-1.209,0.532 -2.179,1.496 -2.713,2.706l-16.47,37.024l-40.307,-4.213c-1.309,-0.135 -2.62,0.219 -3.684,0.993l-32.805,23.781l-32.812,-23.779c-0.91,-0.665 -2.005,-1.021 -3.129,-1.019c-0.188,0 -0.375,0 -0.534,0.025l-40.309,4.213l-16.469,-37.024c-0.537,-1.21 -1.501,-2.177 -2.711,-2.714l-37.045,-16.475l4.207,-40.295c0.136,-1.309 -0.216,-2.623 -0.988,-3.688l-23.778,-32.812l23.778,-32.812c0.772,-1.066 1.124,-2.38 0.988,-3.688l-4.207,-40.298l37.024,-16.479c1.209,-0.532 2.176,-1.497 2.71,-2.706l16.47,-37.024l40.309,4.213c1.306,0.13 2.617,-0.224 3.684,-0.993l32.812,-23.781l32.812,23.779c1.063,0.771 2.374,1.124 3.683,0.993l40.307,-4.213l16.47,37.024c0.537,1.209 1.504,2.174 2.714,2.711l37.023,16.475l-4.207,40.298c-0.139,1.309 0.214,2.623 0.988,3.688l23.775,32.812l-23.782,32.813z" fill="#1E81CE"/>
    <path stroke="null" id="svg_192" d="m13139.174241,12164.376414c-2.085,-2.085 -5.464,-2.085 -7.549,0l-86.821,86.821l-26.442,-26.394c-2.083,-2.078 -5.456,-2.078 -7.539,0l-15.136,15.043c-1.003,1.001 -1.568,2.362 -1.568,3.78c0,1.418 0.565,2.779 1.568,3.78l45.327,45.327c2.082,2.082 5.464,2.082 7.549,0l105.705,-105.708c2.082,-2.083 2.082,-5.463 0,-7.549l-15.094,-15.1zm-94.37,117.039l-37.772,-37.772l7.55,-7.531l26.453,26.399c2.083,2.08 5.459,2.08 7.544,0l86.821,-86.813l7.56,7.56l-98.156,98.157z" fill="#1E81CE"/>
   </g>
   <g stroke="null" transform="matrix(0.9761557873522594,0,0,0.9761557873522594,-12121.970895620003,-12050.317812982557) " id="svg_194" display="none">
    <path stroke="null" id="svg_195" d="m12622.983241,12524.472414l-9.707,0l0,19.414l9.707,0c5.354,0 9.708,-4.354 9.708,-9.706s-4.354,-9.708 -9.708,-9.708z" fill="#B21F66"/>
    <path stroke="null" id="svg_196" d="m12454.836241,12717.762414c-5.515,0 -10.001,4.486 -10.001,10.002l0,10l273.35,0l0,-10c0,-5.516 -4.488,-10.002 -10.002,-10.002l-253.347,0z" fill="#B21F66"/>
    <path stroke="null" id="svg_197" d="m12691.517241,12583.778414l0,-40.002l0,-4.024c0,-32.628 -14.284,-61.978 -36.919,-82.14c-0.682,-0.457 -1.298,-1.002 -1.847,-1.609c-19.208,-16.363 -44.089,-26.256 -71.24,-26.256c-60.658,0 -110.007,49.349 -110.007,110.006l0,158.009l220.014,0l0,-113.984l-0.001,0zm-118.35,-65.92c0,-3.652 2.961,-6.614 6.614,-6.614c3.651,0 6.614,2.962 6.614,6.614l0,54.976c0,3.652 -2.962,6.614 -6.614,6.614c-3.652,0 -6.614,-2.96 -6.614,-6.614l0,-54.976zm0.002,98.629l39.68,0c3.652,0 6.614,2.961 6.614,6.613s-2.961,6.614 -6.614,6.614l-39.68,0c-3.652,0 -6.614,-2.962 -6.614,-6.614s2.962,-6.613 6.614,-6.613zm-59.527,-43.653l0,-54.976c0,-3.652 2.961,-6.614 6.614,-6.614l16.322,0c12.646,0 22.935,10.289 22.935,22.936c0,9.023 -5.24,16.844 -12.837,20.585l8.523,14.763c1.827,3.164 0.743,7.208 -2.421,9.034c-1.04,0.601 -2.178,0.889 -3.3,0.889c-2.286,0 -4.508,-1.188 -5.734,-3.309l-10.984,-19.028l-5.89,0l0,15.721c0,3.652 -2.961,6.614 -6.614,6.614s-6.614,-2.963 -6.614,-6.615zm39.688,50.267c0,3.652 -2.96,6.614 -6.614,6.614c-3.652,0 -6.616,-2.962 -6.616,-6.614s2.959,-6.613 6.611,-6.613l0.005,0c3.653,-0.001 6.614,2.96 6.614,6.613zm85.974,52.909c0,3.652 -2.961,6.615 -6.614,6.615l-105.82,0c-3.651,0 -6.613,-2.963 -6.613,-6.615l0,-26.455c0,-3.652 2.961,-6.613 6.613,-6.613l105.82,0c3.652,0 6.614,2.961 6.614,6.613l0,26.455zm0.001,-96.562c-3.653,0 -6.617,-2.962 -6.617,-6.614s2.959,-6.613 6.611,-6.613l0.005,0c3.652,0 6.614,2.961 6.614,6.613s-2.961,6.614 -6.613,6.614zm-16.322,-22.335l-9.707,0l0,15.721c0,3.652 -2.962,6.614 -6.614,6.614c-3.652,0 -6.614,-2.962 -6.614,-6.614l0,-54.976c0,-3.652 2.961,-6.614 6.614,-6.614l16.321,0c12.646,0 22.936,10.289 22.936,22.934c0,12.647 -10.29,22.935 -22.936,22.935z" fill="#B21F66"/>
    <rect stroke="null" id="svg_198" height="13.227" width="92.592" fill="#B21F66" y="12656.170414" x="12533.484241"/>
    <path stroke="null" id="svg_199" d="m12680.836241,12068.399414c-248.17,0 -450.072,201.903 -450.072,450.073c0,102.364 33.493,198.827 96.866,278.944l353.206,446.684l353.207,-446.684c63.373,-80.128 96.865,-176.58 96.865,-278.944c0,-248.17 -201.902,-450.073 -450.072,-450.073zm7.394,215.446l0.004,-0.005c3.908,-3.905 10.237,-3.905 14.144,0c3.905,3.905 3.905,10.237 0,14.142c-1.953,1.953 -4.515,2.93 -7.075,2.93c-2.559,0 -5.117,-0.975 -7.07,-2.928c-3.906,-3.905 -3.909,-10.234 -0.003,-14.139zm248.607,299.935c0,5.523 -4.478,10 -10,10l-215.32,0l0,104.173c14.979,1.664 26.667,14.395 26.667,29.811l0,20c0,5.523 -4.478,10 -10,10l-293.349,0c-5.522,0 -10,-4.477 -10,-10l0,-20c0,-15.416 11.688,-28.146 26.667,-29.811l0,-158.2c0,-71.687 58.32,-130.006 130.006,-130.006c25.183,0 48.711,7.205 68.647,19.651l0,-53.63c0,-19.562 4.292,-38.403 12.756,-56c2.395,-4.977 8.373,-7.071 13.347,-4.677c4.977,2.394 7.071,8.37 4.678,13.347c-7.152,14.87 -10.779,30.794 -10.779,47.331l0,68.983c24.071,22.476 39.622,53.961 41.217,89.026l178.796,0l0,-158.009c0,-60.657 -49.349,-110.006 -110.006,-110.006c-16.538,0 -32.465,3.627 -47.338,10.782c-4.977,2.394 -10.953,0.301 -13.348,-4.677c-2.393,-4.977 -0.3,-10.953 4.678,-13.347c17.6,-8.466 36.443,-12.758 56.008,-12.758c71.686,0 130.006,58.32 130.006,130.006l0,158.199c14.979,1.664 26.668,14.396 26.668,29.813l0,19.999l-0.001,0zm-116.675,-213.986c5.521,0 10,4.477 10,10c0,5.523 -4.479,10 -10,10l-30,0l0,56.667c0,5.523 -4.479,10 -10,10c-5.522,0 -10,-4.477 -10,-10l0,-56.667l-30,0c-5.522,0 -10,-4.477 -10,-10c0,-5.523 4.478,-10 10,-10l30,0l0,-30c0,-5.523 4.478,-10 10,-10s10,4.477 10,10l0,30l30,0zm-0.001,133.982c0,5.523 -4.479,10 -10,10l-59.997,0c-5.522,0 -10,-4.477 -10,-10c0,-5.522 4.478,-10 10,-10l59.997,0c5.522,0.001 10,4.478 10,10z" fill="#B21F66"/>
    <path stroke="null" id="svg_200" d="m12546.286241,12534.180414c0,-5.353 -4.355,-9.708 -9.708,-9.708l-9.708,0l0,19.414l9.708,0c5.353,0 9.708,-4.354 9.708,-9.706z" fill="#B21F66"/>
    <path stroke="null" id="svg_201" d="m12906.836241,12553.778414l-195.319,0l0,20.002l205.32,0l0,-10c0,-5.515 -4.486,-10.002 -10.001,-10.002z" fill="#B21F66"/>
   </g>
   <g stroke="null" transform="matrix(0.9761557873522594,0,0,0.9761557873522594,-12121.970895620003,-12050.317812982557) " id="svg_203" display="none">
    <path stroke="null" id="svg_204" d="m12746.159241,12398.779414l-14.678,0l0,29.355l14.678,0c8.094,0 14.678,-6.583 14.678,-14.677c0,-8.094 -6.584,-14.678 -14.678,-14.678z" fill="#000033"/>
    <path stroke="null" id="svg_205" d="m12615.514241,12398.778414l-14.678,0l0,29.356l14.678,0c8.094,0 14.678,-6.584 14.678,-14.678c0,-8.094 -6.584,-14.678 -14.678,-14.678z" fill="#000033"/>
    <rect stroke="null" id="svg_206" height="20" width="140" fill="#000033" y="12597.906414" x="12610.836241"/>
    <path stroke="null" id="svg_207" d="m12680.836241,12068.399414c-248.17,0 -450.073,201.903 -450.073,450.073c0,102.364 33.494,198.827 96.866,278.944l353.207,446.684l353.208,-446.684c63.373,-80.128 96.865,-176.58 96.865,-278.944c-0.001,-248.17 -201.903,-450.073 -450.073,-450.073zm-134.353,213.157l0.005,-0.005c3.907,-3.904 10.237,-3.904 14.143,0c3.905,3.906 3.905,10.238 0,14.143c-1.953,1.953 -4.514,2.93 -7.075,2.93c-2.559,0 -5.117,-0.976 -7.07,-2.928c-3.905,-3.906 -3.908,-10.234 -0.003,-14.14zm364.353,446.351c0,5.523 -4.478,10 -10,10l-440,0c-5.522,0 -10,-4.477 -10,-10l0,-30c0,-22.057 17.944,-40 40,-40l0,-242.002c0,-35.793 10.128,-70.73 29.29,-101.036c2.951,-4.667 9.126,-6.06 13.797,-3.107c4.668,2.952 6.058,9.129 3.107,13.797c-17.136,27.101 -26.194,58.342 -26.194,90.346l0,242.001l340,0l0,-242.001c0,-93.738 -76.262,-170 -170,-170c-31.998,0 -63.239,9.058 -90.345,26.194c-4.668,2.953 -10.845,1.558 -13.797,-3.109c-2.951,-4.668 -1.559,-10.845 3.109,-13.797c30.309,-19.16 65.246,-29.288 101.033,-29.288c50.552,0 98.21,19.818 134.196,55.804c35.986,35.986 55.804,83.645 55.804,134.196l0,242.001c22.056,0 40,17.943 40,40l0,30.001zm-239.996,-190.002l59.996,0c5.522,0 10,4.479 10,10s-4.478,10 -10,10l-59.996,0c-5.522,0 -10,-4.479 -10,-10s4.477,-10 10,-10zm-0.003,-66.002l0,-83.125c0,-5.522 4.478,-10 10,-10c5.521,0 10,4.478 10,10l0,83.125c0,5.522 -4.479,10 -10,10c-5.523,0 -10,-4.477 -10,-10zm75.322,-23.77l-14.678,0l0,23.77c0,5.522 -4.479,10 -10,10c-5.522,0 -10,-4.478 -10,-10l0,-83.125c0,-5.522 4.478,-10 10,-10l24.678,0c19.121,0 34.678,15.556 34.678,34.677s-15.557,34.678 -34.678,34.678zm34.678,23.769c0,5.522 -4.477,10 -10,10s-10.004,-4.478 -10.004,-10s4.474,-10 9.996,-10l0.008,0c5.522,0 10,4.478 10,10zm-20.001,106.004c5.522,0 10,4.478 10,10l0,40c0,5.522 -4.478,10 -10,10l-160,0c-5.522,0 -10,-4.478 -10,-10l0,-40c0,-5.522 4.478,-10 10,-10l160,0zm-139.996,-30.001c0,-5.521 4.474,-10 9.996,-10l0.008,0c5.522,0 10,4.479 10,10s-4.477,10 -10,10c-5.523,0 -10.004,-4.478 -10.004,-10zm22.83,-81.002c2.762,4.783 1.123,10.898 -3.66,13.66c-1.574,0.909 -3.294,1.342 -4.99,1.342c-3.457,0 -6.817,-1.794 -8.67,-5.002l-16.61,-28.77l-8.905,0l0,23.77c0,5.522 -4.478,10 -10,10s-10,-4.478 -10,-10l0,-83.125c0,-5.522 4.478,-10 10,-10l24.678,0c19.121,0 34.678,15.557 34.678,34.678c0,13.644 -7.923,25.468 -19.409,31.125l12.888,22.322z" fill="#000033"/>
    <path stroke="null" id="svg_208" d="m12870.836241,12677.907414l-380,0c-11.028,0 -20,8.971 -20,20l0,20l420,0l0,-20c0,-11.029 -8.972,-20 -20,-20z" fill="#000033"/>
   </g>
   <g stroke="null" transform="matrix(0.9761557873522594,0,0,0.9761557873522594,-12121.970895620003,-12050.317812982557) " id="svg_209" display="none">
    <path stroke="null" id="svg_210" d="m12493.535241,12623.654414l-6.172,0l0,12.342l6.172,0c3.403,0 6.171,-2.768 6.171,-6.17c0.001,-3.403 -2.768,-6.172 -6.171,-6.172z" fill="#00ADB5"/>
    <path stroke="null" id="svg_211" d="m12569.982241,12341.389414c0,-12.006 -9.767,-21.772 -21.771,-21.772c-12.005,0 -21.771,9.768 -21.771,21.772c0,12.004 9.768,21.772 21.771,21.771c12.005,0 21.772,-9.766 21.771,-21.771z" fill="#00ADB5"/>
    <path stroke="null" id="svg_212" d="m12548.462241,12623.654414l-6.171,0l0,12.342l6.171,0c3.403,0 6.171,-2.768 6.171,-6.17c0,-3.403 -2.768,-6.172 -6.171,-6.172z" fill="#00ADB5"/>
    <path stroke="null" id="svg_213" d="m12680.836241,12068.399414c-248.17,0 -450.073,201.903 -450.073,450.073c0,102.364 33.494,198.827 96.866,278.944l353.207,446.684l353.208,-446.684c63.373,-80.128 96.865,-176.58 96.865,-278.944c-0.001,-248.17 -201.903,-450.073 -450.073,-450.073zm-132.624,191.427c44.973,0 81.563,36.589 81.564,81.565c0,27.619 -13.03,57.187 -38.73,87.881c-18.787,22.435 -37.345,36.888 -38.126,37.493c-1.386,1.073 -3.047,1.608 -4.708,1.608c-1.659,0 -3.32,-0.535 -4.707,-1.608c-1.15,-0.89 -28.43,-22.164 -50.248,-53.246c-2.44,-3.476 -1.602,-8.274 1.876,-10.714c3.477,-2.439 8.274,-1.6 10.714,1.877c15.252,21.729 33.817,38.719 42.36,46.022c15.837,-13.569 66.186,-60.546 66.186,-109.315c0,-36.492 -29.689,-66.181 -66.18,-66.181c-36.492,0 -66.18,29.689 -66.181,66.181c0,11.877 3.031,24.587 9.013,37.775c1.754,3.868 0.04,8.427 -3.828,10.181c-3.869,1.759 -8.427,0.041 -10.18,-3.829c-6.894,-15.197 -10.388,-30.044 -10.388,-44.127c0.001,-44.974 36.589,-81.563 81.563,-81.563zm32.306,219.461c-1.263,2.889 -4.087,4.613 -7.052,4.613c-1.03,0 -2.073,-0.207 -3.077,-0.646l-9.396,-4.107c-3.892,-1.7 -5.667,-6.235 -3.967,-10.128c1.7,-3.891 6.231,-5.668 10.127,-3.967l9.396,4.108c3.893,1.699 5.669,6.234 3.969,10.127zm-69.459,-137.899c0,-20.488 16.666,-37.155 37.153,-37.155c20.486,0 37.155,16.667 37.155,37.155s-16.667,37.156 -37.155,37.154c-20.486,0 -37.153,-16.666 -37.153,-37.154zm53.844,433.856l-9.05,4.822c-1.153,0.615 -2.391,0.905 -3.61,0.905c-2.751,0 -5.41,-1.479 -6.795,-4.075c-1.997,-3.751 -0.578,-8.408 3.171,-10.406l9.05,-4.823c3.75,-1.999 8.407,-0.577 10.405,3.171c1.997,3.749 0.578,8.408 -3.171,10.406zm36.199,-19.294l-9.05,4.822c-1.152,0.615 -2.391,0.906 -3.61,0.906c-2.751,0 -5.411,-1.48 -6.795,-4.076c-1.997,-3.749 -0.578,-8.408 3.17,-10.406l9.05,-4.824c3.75,-1.996 8.408,-0.576 10.405,3.172c1.998,3.747 0.578,8.406 -3.17,10.406zm-74.785,28.807c-1.387,1.071 -3.047,1.607 -4.708,1.607c-1.66,0 -3.32,-0.536 -4.707,-1.607c-3.615,-2.796 -88.517,-69.355 -88.517,-144.204c0,-16.764 4.502,-33.207 13.021,-47.547c2.17,-3.651 6.888,-4.855 10.54,-2.685c3.652,2.169 4.854,6.888 2.685,10.539c-7.108,11.966 -10.865,25.69 -10.865,39.692c0,57.891 60.318,113.297 77.836,128.162c17.507,-14.877 77.843,-70.356 77.843,-128.162c0,-42.922 -34.919,-77.84 -77.84,-77.84c-17.818,0 -34.583,5.857 -48.484,16.941c-3.323,2.648 -8.16,2.1 -10.809,-1.22c-2.647,-3.321 -2.102,-8.16 1.219,-10.809c16.417,-13.087 37.041,-20.294 58.075,-20.294c51.403,0 93.222,41.82 93.224,93.222c0.002,74.85 -84.899,141.41 -88.513,144.205zm-20.944,-132.462c1.161,2.012 0.472,4.583 -1.539,5.743c-0.662,0.382 -1.385,0.565 -2.098,0.565c-1.453,0 -2.865,-0.755 -3.645,-2.103l-6.982,-12.096l-3.745,0l0,9.993c0,2.321 -1.882,4.204 -4.204,4.204s-4.205,-1.883 -4.205,-4.204l0,-34.948c0,-2.321 1.883,-4.206 4.205,-4.206l10.375,0c8.038,0 14.579,6.542 14.579,14.581c0,5.736 -3.331,10.707 -8.16,13.085l5.419,9.386zm11.421,2.103l0,-34.948c0,-2.321 1.883,-4.206 4.205,-4.206c2.321,0 4.204,1.884 4.204,4.206l0,34.948c0,2.321 -1.883,4.204 -4.204,4.204c-2.322,0 -4.205,-1.881 -4.205,-4.204zm31.668,-9.993l-6.171,0l0,9.993c0,2.321 -1.883,4.204 -4.204,4.204c-2.322,0 -4.205,-1.883 -4.205,-4.204l0,-34.948c0,-2.321 1.882,-4.206 4.205,-4.206l10.375,0c8.039,0 14.58,6.542 14.58,14.579c0,8.042 -6.541,14.582 -14.58,14.582zm14.58,9.993c0,2.321 -1.883,4.204 -4.205,4.204c-2.322,0 -4.206,-1.883 -4.206,-4.204c0,-2.323 1.881,-4.204 4.203,-4.204l0.003,0c2.322,0 4.205,1.881 4.205,4.204zm48.01,-154.068c-1.029,0 -2.073,-0.206 -3.077,-0.646l-9.396,-4.107c-3.891,-1.7 -5.667,-6.235 -3.966,-10.127c1.701,-3.891 6.23,-5.667 10.127,-3.967l9.397,4.108c3.891,1.701 5.668,6.234 3.967,10.127c-1.263,2.889 -4.087,4.612 -7.052,4.612zm26.249,236.326l-9.049,4.823c-1.152,0.614 -2.391,0.906 -3.61,0.906c-2.751,0 -5.411,-1.48 -6.795,-4.077c-1.997,-3.749 -0.578,-8.408 3.17,-10.406l9.05,-4.823c3.75,-1.999 8.407,-0.579 10.404,3.171c1.998,3.747 0.577,8.408 -3.17,10.406zm8.259,-220.541l-9.395,-4.108c-3.892,-1.701 -5.667,-6.236 -3.966,-10.128c1.701,-3.89 6.234,-5.667 10.129,-3.965l9.395,4.108c3.893,1.702 5.667,6.236 3.967,10.128c-1.265,2.888 -4.089,4.611 -7.053,4.611c-1.028,0 -2.073,-0.206 -3.077,-0.646zm27.94,201.244l-9.051,4.823c-1.152,0.614 -2.39,0.904 -3.609,0.904c-2.751,0 -5.41,-1.479 -6.794,-4.075c-1.997,-3.749 -0.578,-8.407 3.171,-10.405l9.049,-4.823c3.751,-1.999 8.408,-0.577 10.405,3.17c1.997,3.749 0.577,8.408 -3.171,10.406zm9.647,-184.814l-9.396,-4.108c-3.893,-1.701 -5.667,-6.236 -3.966,-10.128c1.7,-3.891 6.237,-5.668 10.128,-3.967l9.396,4.108c3.893,1.703 5.668,6.237 3.968,10.128c-1.264,2.89 -4.088,4.612 -7.053,4.612c-1.03,0.001 -2.075,-0.206 -3.077,-0.645zm26.553,165.518l-9.048,4.824c-1.153,0.616 -2.391,0.906 -3.611,0.906c-2.75,0 -5.41,-1.479 -6.794,-4.075c-1.999,-3.749 -0.579,-8.407 3.169,-10.404l9.049,-4.823c3.748,-2.004 8.408,-0.58 10.406,3.17c1.997,3.748 0.577,8.406 -3.171,10.402zm11.032,-149.087l-9.396,-4.107c-3.891,-1.7 -5.667,-6.236 -3.966,-10.128c1.7,-3.892 6.232,-5.668 10.128,-3.967l9.396,4.108c3.893,1.701 5.67,6.235 3.968,10.127c-1.263,2.889 -4.086,4.613 -7.051,4.613c-1.03,0 -2.074,-0.207 -3.079,-0.646zm25.168,129.792l-9.048,4.823c-1.152,0.617 -2.391,0.907 -3.611,0.907c-2.75,0 -5.41,-1.479 -6.794,-4.076c-1.997,-3.748 -0.578,-8.406 3.17,-10.404l9.049,-4.823c3.747,-2.001 8.407,-0.579 10.405,3.17c1.996,3.749 0.578,8.407 -3.171,10.403zm12.42,-113.363l-9.396,-4.107c-3.892,-1.7 -5.668,-6.235 -3.967,-10.128c1.699,-3.891 6.232,-5.668 10.128,-3.966l9.396,4.107c3.893,1.701 5.668,6.235 3.968,10.128c-1.263,2.89 -4.088,4.612 -7.051,4.612c-1.029,0 -2.075,-0.207 -3.078,-0.646zm23.779,94.071l-9.049,4.822c-1.152,0.617 -2.39,0.908 -3.609,0.908c-2.75,0 -5.411,-1.48 -6.794,-4.076c-1.998,-3.749 -0.578,-8.407 3.17,-10.405l9.048,-4.823c3.749,-2.001 8.408,-0.582 10.405,3.17c1.996,3.749 0.578,8.407 -3.171,10.404zm4.411,-81.747c-3.892,-1.701 -5.666,-6.236 -3.966,-10.128c1.702,-3.891 6.234,-5.667 10.129,-3.965l9.396,4.108c3.891,1.702 5.666,6.236 3.966,10.128c-1.263,2.889 -4.088,4.611 -7.052,4.611c-1.029,0 -2.074,-0.206 -3.077,-0.646l-9.396,-4.108zm31.789,62.454l-9.05,4.823c-1.152,0.614 -2.391,0.905 -3.61,0.905c-2.751,0 -5.41,-1.479 -6.795,-4.076c-1.997,-3.75 -0.578,-8.408 3.17,-10.406l9.051,-4.823c3.75,-1.999 8.409,-0.579 10.406,3.17c1.996,3.748 0.577,8.409 -3.172,10.407zm5.798,-46.024c-3.893,-1.701 -5.668,-6.236 -3.967,-10.128c1.701,-3.891 6.238,-5.667 10.128,-3.967l9.396,4.108c3.893,1.702 5.667,6.237 3.967,10.128c-1.263,2.89 -4.088,4.613 -7.051,4.613c-1.029,0 -2.075,-0.207 -3.077,-0.646l-9.396,-4.108zm30.402,26.729l-9.05,4.824c-1.153,0.613 -2.391,0.906 -3.611,0.906c-2.751,0 -5.41,-1.48 -6.794,-4.078c-1.997,-3.749 -0.578,-8.408 3.171,-10.406l9.05,-4.823c3.751,-1.997 8.407,-0.577 10.406,3.171c1.996,3.748 0.577,8.407 -3.172,10.406zm82.731,-97.016c-2.062,3.713 -6.746,5.052 -10.458,2.988c-3.714,-2.062 -5.051,-6.745 -2.987,-10.457c10.358,-18.644 15.611,-36.463 15.611,-52.965c0,-40.477 -32.931,-73.407 -73.407,-73.407c-40.478,0 -73.407,32.93 -73.407,73.407c0,54.361 56.524,106.605 73.413,120.999c8.162,-6.938 25.564,-22.682 41.31,-43.179c2.588,-3.368 7.414,-4.003 10.784,-1.415c3.369,2.587 4.002,7.417 1.415,10.785c-22.63,29.461 -47.75,49.036 -48.808,49.856c-1.386,1.07 -3.047,1.607 -4.707,1.607s-3.321,-0.536 -4.708,-1.607c-0.855,-0.663 -21.167,-16.481 -41.739,-41.05c-28.096,-33.557 -42.344,-65.855 -42.344,-95.996c0,-48.958 39.832,-88.79 88.791,-88.79s88.79,39.831 88.789,88.787c-0.001,19.148 -5.905,39.482 -17.548,60.437zm-98.557,-58.22c-3.75,0 -6.79,-3.04 -6.79,-6.791s3.04,-6.791 6.79,-6.791l20.374,0l0,-20.373c0,-3.751 3.04,-6.791 6.791,-6.791c3.75,0 6.791,3.04 6.791,6.791l0,20.373l20.373,0c3.75,0 6.791,3.04 6.791,6.791s-3.041,6.791 -6.791,6.791l-20.373,0l0,38.482c0,3.751 -3.042,6.792 -6.791,6.792c-3.751,0 -6.791,-3.041 -6.791,-6.792l0,-38.482l-20.374,0z" fill="#00ADB5"/>
   </g>
   <g stroke="null" transform="matrix(0.9761557873522594,0,0,0.9761557873522594,-12121.970895620003,-12050.317812982557) " id="svg_214" display="none">
    <path stroke="null" id="svg_215" d="m13252.052241,12144.820414l-40.574,-18.049l-18.065,-40.59l-44.156,4.611l-35.924,-26.052l-35.945,26.052l-44.135,-4.611l-18.052,40.572l-40.59,18.067l4.613,44.156l-26.052,35.924l26.052,35.945l-4.613,44.136l40.574,18.049l18.067,40.59l44.155,-4.611l35.925,26.053l35.944,-26.053l44.136,4.611l18.05,-40.574l40.59,-18.064l-4.614,-44.156l26.055,-35.924l-26.055,-35.945l4.614,-44.137zm-170.752,144.145l-45.327,-45.327l15.109,-15.055l30.218,30.163l90.596,-90.596l15.109,15.106l-105.705,105.709z" fill="#57A4FF"/>
    <path stroke="null" id="svg_216" d="m13277.817241,12221.767414l-24.858,-34.292l4.405,-42.115c0.24,-2.302 -1.027,-4.494 -3.142,-5.435l-38.692,-17.218l-17.218,-38.695c-0.946,-2.109 -3.136,-3.373 -5.436,-3.144l-42.122,4.403l-34.288,-24.856c-1.869,-1.355 -4.398,-1.355 -6.268,0l-34.292,24.856l-42.12,-4.403c-2.297,-0.219 -4.479,1.043 -5.435,3.139l-17.218,38.695l-38.695,17.223c-2.111,0.938 -3.378,3.13 -3.139,5.43l4.403,42.121l-24.856,34.292c-1.355,1.869 -1.355,4.397 0,6.267l24.856,34.29l-4.403,42.123c-0.242,2.3 1.024,4.494 3.139,5.436l38.695,17.218l17.218,38.694c0.951,2.102 3.135,3.365 5.435,3.145l42.12,-4.406l34.292,24.858c1.869,1.356 4.398,1.356 6.268,0l34.289,-24.858l42.122,4.406c2.3,0.231 4.487,-1.033 5.436,-3.139l17.218,-38.695l38.692,-17.223c2.112,-0.941 3.379,-3.131 3.142,-5.43l-4.405,-42.123l24.858,-34.29c1.357,-1.872 1.357,-4.405 -0.001,-6.274zm-34.702,35.945c-0.774,1.066 -1.126,2.38 -0.988,3.688l4.208,40.295l-37.024,16.482c-1.209,0.532 -2.179,1.496 -2.713,2.706l-16.47,37.024l-40.307,-4.213c-1.309,-0.135 -2.62,0.219 -3.684,0.993l-32.806,23.779l-32.812,-23.779c-0.91,-0.665 -2.005,-1.021 -3.129,-1.019c-0.188,0 -0.375,0 -0.534,0.025l-40.309,4.213l-16.469,-37.024c-0.537,-1.21 -1.501,-2.177 -2.711,-2.714l-37.045,-16.475l4.207,-40.295c0.136,-1.309 -0.216,-2.623 -0.988,-3.688l-23.778,-32.812l23.778,-32.812c0.772,-1.066 1.124,-2.38 0.988,-3.688l-4.207,-40.298l37.024,-16.479c1.209,-0.532 2.176,-1.497 2.71,-2.706l16.47,-37.024l40.309,4.213c1.306,0.13 2.617,-0.224 3.684,-0.993l32.812,-23.779l32.812,23.779c1.063,0.771 2.374,1.124 3.683,0.993l40.307,-4.213l16.47,37.024c0.537,1.209 1.504,2.174 2.714,2.711l37.023,16.475l-4.207,40.298c-0.139,1.309 0.214,2.623 0.988,3.688l23.775,32.812l-23.781,32.813z" fill="#1E81CE"/>
    <path stroke="null" id="svg_217" d="m13175.670241,12164.376414c-2.085,-2.085 -5.464,-2.085 -7.549,0l-86.821,86.821l-26.442,-26.394c-2.083,-2.078 -5.456,-2.078 -7.539,0l-15.136,15.043c-1.003,1.001 -1.568,2.362 -1.568,3.78c0,1.418 0.565,2.779 1.568,3.78l45.327,45.327c2.082,2.082 5.464,2.082 7.549,0l105.705,-105.708c2.082,-2.083 2.082,-5.463 0,-7.549l-15.094,-15.1zm-94.37,117.039l-37.772,-37.772l7.55,-7.531l26.453,26.399c2.083,2.08 5.459,2.08 7.544,0l86.821,-86.813l7.56,7.56l-98.156,98.157z" fill="#1E81CE"/>
   </g>
   <g stroke="null" transform="matrix(0.9761557873522594,0,0,0.9761557873522594,-12121.970895620003,-12050.317812982557) " id="svg_218" display="none">
    <path stroke="null" id="svg_219" d="m13037.680241,12430.282414l-97.202,-43.24l-43.279,-97.24l-105.783,11.047l-86.063,-62.413l-86.112,62.413l-105.732,-11.047l-43.247,97.197l-97.24,43.283l11.052,105.783l-62.412,86.063l62.412,86.112l-11.052,105.734l97.203,43.239l43.283,97.24l105.781,-11.049l86.063,62.414l86.111,-62.414l105.734,11.049l43.241,-97.203l97.24,-43.276l-11.055,-105.784l62.419,-86.063l-62.419,-86.112l11.057,-105.733zm-409.066,345.324l-108.589,-108.589l36.197,-36.066l72.392,72.26l217.037,-217.037l36.197,36.19l-253.234,253.242z" fill="#57A4FF"/>
    <path stroke="null" id="svg_220" d="m13099.405241,12614.621414l-59.553,-82.152l10.554,-100.894c0.575,-5.515 -2.461,-10.767 -7.526,-13.021l-92.693,-41.248l-41.248,-92.7c-2.268,-5.052 -7.513,-8.081 -13.022,-7.532l-100.91,10.548l-82.146,-59.545c-4.478,-3.247 -10.537,-3.247 -15.015,0l-82.152,59.545l-100.905,-10.548c-5.503,-0.524 -10.729,2.499 -13.02,7.52l-41.248,92.7l-92.701,41.261c-5.058,2.249 -8.092,7.5 -7.519,13.008l10.549,100.907l-59.548,82.152c-3.247,4.478 -3.247,10.535 0,15.013l59.548,82.146l-10.549,100.912c-0.58,5.51 2.454,10.767 7.519,13.021l92.701,41.248l41.248,92.699c2.279,5.035 7.51,8.063 13.02,7.533l100.905,-10.557l82.152,59.553c4.478,3.25 10.537,3.25 15.015,0l82.146,-59.553l100.91,10.557c5.51,0.555 10.75,-2.475 13.022,-7.52l41.248,-92.701l92.693,-41.26c5.061,-2.255 8.095,-7.5 7.526,-13.008l-10.554,-100.912l59.553,-82.148c3.252,-4.477 3.252,-10.546 0,-15.024zm-83.134,86.112c-1.855,2.554 -2.697,5.701 -2.367,8.836l10.08,96.535l-88.697,39.486c-2.896,1.275 -5.22,3.584 -6.5,6.482l-39.455,88.699l-96.563,-10.094c-3.135,-0.322 -6.276,0.525 -8.824,2.379l-78.592,56.969l-78.605,-56.969c-2.18,-1.592 -4.803,-2.447 -7.495,-2.439c-0.449,0 -0.898,0 -1.28,0.061l-96.565,10.094l-39.454,-88.699c-1.287,-2.898 -3.596,-5.215 -6.494,-6.502l-88.748,-39.467l10.079,-96.535c0.325,-3.135 -0.517,-6.282 -2.367,-8.836l-56.965,-78.605l56.965,-78.605c1.851,-2.553 2.692,-5.701 2.367,-8.836l-10.079,-96.542l88.698,-39.479c2.896,-1.275 5.212,-3.585 6.492,-6.483l39.456,-88.698l96.566,10.093c3.128,0.313 6.27,-0.537 8.824,-2.379l78.605,-56.967l78.605,56.967c2.549,1.848 5.688,2.692 8.822,2.379l96.562,-10.093l39.456,88.698c1.287,2.897 3.604,5.208 6.502,6.495l88.695,39.468l-10.078,96.542c-0.332,3.135 0.512,6.283 2.367,8.836l56.958,78.605l-56.971,78.604z" fill="#1E81CE"/>
    <path stroke="null" id="svg_221" d="m12854.694241,12477.132414c-4.995,-4.996 -13.09,-4.996 -18.085,0l-207.995,207.996l-63.347,-63.23c-4.99,-4.978 -13.071,-4.978 -18.062,0l-36.26,36.04c-2.403,2.398 -3.758,5.658 -3.758,9.054c0,3.398 1.354,6.659 3.758,9.057l108.588,108.59c4.988,4.987 13.09,4.987 18.085,0l253.234,-253.243c4.987,-4.989 4.987,-13.088 0,-18.085l-36.158,-36.179zm-226.08,280.387l-90.49,-90.49l18.087,-18.042l63.373,63.245c4.99,4.982 13.078,4.982 18.073,0l207.994,-207.977l18.11,18.11l-235.147,235.154z" fill="#1E81CE"/>
   </g>
   <g stroke="null" transform="matrix(0.9761557873522594,0,0,0.9761557873522594,-12121.970895620003,-12050.317812982557) " id="svg_222" display="none">
    <g stroke="null" id="svg_223" display="inline">
     <g stroke="null" id="svg_224">
      <path stroke="null" id="svg_225" d="m12609.804241,12170.737414c-9.908,-4.341 -21.601,-2.291 -29.511,5.221l-280.874,265.271l-191.31,0c-15.074,0 -27.273,12.198 -27.273,27.271l0,381.818c0,15.074 12.199,27.273 27.273,27.273l191.309,0l280.876,265.27c5.168,4.9 11.905,7.459 18.724,7.459c3.649,0 7.325,-0.719 10.788,-2.238c10.015,-4.287 16.486,-14.141 16.486,-25.035l0,-927.273c-0.002,-10.895 -6.474,-20.749 -16.488,-25.037z" fill="#7E6BC4"/>
      <path stroke="null" id="svg_226" d="m12751.879241,12506.550414l-38.861,38.861c-8.962,8.962 -11.353,23.441 -3.869,33.668c16.489,22.549 26.233,50.324 26.233,80.331c0,30.005 -9.744,57.781 -26.233,80.328c-7.483,10.227 -5.093,24.709 3.869,33.67l38.861,38.859c11.901,11.904 31.344,10.07 41.625,-3.264c31.947,-41.439 50.97,-93.336 50.97,-149.593c0,-56.261 -19.022,-108.156 -50.97,-149.598c-10.281,-13.333 -29.724,-15.166 -41.625,-3.262z" fill="#7E6BC4"/>
      <path stroke="null" id="svg_227" d="m12946.123241,12352.351414c-10.253,-11.583 -28.512,-11.537 -39.447,-0.598l-38.588,38.587c-10.337,10.334 -10.239,26.578 -0.689,37.639c53.67,62.149 86.167,143.064 86.167,231.428c0,88.364 -32.497,169.28 -86.167,231.432c-9.553,11.063 -9.645,27.301 0.689,37.635l38.588,38.588c10.936,10.939 29.194,10.984 39.452,-0.596c72.476,-81.836 116.526,-189.4 116.526,-307.056c0,-117.66 -44.05,-225.223 -116.531,-307.059z" fill="#7E6BC4"/>
      <path stroke="null" id="svg_228" d="m13100.403241,12197.824414c-10.437,-11.327 -28.511,-11.293 -39.397,-0.404l-38.639,38.639c-10.363,10.363 -10.312,26.721 -0.427,37.547c93.007,101.864 149.804,237.33 149.804,385.804c0,148.474 -56.797,283.937 -149.804,385.802c-9.883,10.826 -9.938,27.186 0.427,37.547l38.639,38.637c10.89,10.893 28.963,10.924 39.4,-0.404c111.963,-121.522 180.43,-283.707 180.43,-461.582c0,-177.879 -68.467,-340.065 -180.433,-461.586z" fill="#7E6BC4"/>
     </g>
    </g>
   </g>
   <g stroke="null" transform="matrix(0.9761557873522594,0,0,0.9761557873522594,-12121.970895620003,-12050.317812982557) " id="svg_229" display="none">
    <g stroke="null" id="svg_230" display="inline">
     <path stroke="null" id="svg_231" d="m12908.170241,12690.604414l0,-158.199c0,-71.686 -58.32,-130.006 -130.006,-130.006c-19.564,0 -38.408,4.292 -56.008,12.758c-4.978,2.394 -7.07,8.37 -4.678,13.347c2.395,4.978 8.371,7.071 13.348,4.677c14.873,-7.155 30.8,-10.782 47.338,-10.782c60.657,0 110.006,49.349 110.006,110.006l0,158.01l-178.796,0c-1.595,-35.065 -17.146,-66.551 -41.217,-89.026l0,-68.983c0,-16.537 3.627,-32.461 10.779,-47.331c2.394,-4.977 0.3,-10.953 -4.677,-13.347c-4.974,-2.394 -10.952,-0.3 -13.347,4.677c-8.464,17.597 -12.756,36.438 -12.756,56l0,53.63c-19.936,-12.446 -43.464,-19.651 -68.647,-19.651c-71.686,0 -130.006,58.32 -130.006,130.006l0,158.2c-14.979,1.663 -26.667,14.394 -26.667,29.81l0,20.001c0,5.523 4.478,10 10,10l293.349,0c5.522,0 10,-4.477 10,-10l0,-20.001c0,-15.416 -11.688,-28.146 -26.667,-29.811l0,-104.172l215.32,0c5.522,0 10,-4.477 10,-10l0,-20c0,-15.416 -11.689,-28.149 -26.668,-29.813zm-328.659,-104.221c27.151,0 52.032,9.893 71.24,26.256c0.549,0.607 1.165,1.152 1.847,1.609c22.636,20.163 36.919,49.512 36.919,82.14l0,4.024l0,40.002l0,113.985l-220.013,0l0,-158.01c0,-60.657 49.349,-110.006 110.007,-110.006zm136.675,298.017l0,10.001l-273.35,0l0,-10.001c0,-5.515 4.486,-10.001 10.001,-10.001l253.347,0c5.513,0 10.002,4.486 10.002,10.001zm198.652,-153.983l-205.32,0l0,-20.002l195.319,0c5.515,0 10.001,4.486 10.001,10.002l0,10z" fill="#B21F66"/>
     <path stroke="null" id="svg_232" d="m12778.163241,12486.430414c-5.522,0 -10,4.477 -10,10l0,30l-30,0c-5.522,0 -10,4.477 -10,10c0,5.523 4.478,10 10,10l30,0l0,56.667c0,5.523 4.478,10 10,10c5.521,0 10,-4.477 10,-10l0,-56.667l30,0c5.521,0 10,-4.477 10,-10c0,-5.523 -4.479,-10 -10,-10l-30,0l0,-30c0,-5.523 -4.477,-10 -10,-10z" fill="#B21F66"/>
     <path stroke="null" id="svg_233" d="m12748.165241,12650.413414c-5.522,0 -10,4.477 -10,10c0,5.523 4.478,10 10,10l59.997,0c5.521,0 10,-4.477 10,-10c0,-5.522 -4.479,-10 -10,-10l-59.997,0z" fill="#B21F66"/>
     <path stroke="null" id="svg_234" d="m12693.303241,12457.548414c2.561,0 5.122,-0.977 7.075,-2.93c3.905,-3.905 3.905,-10.237 0,-14.142c-3.906,-3.905 -10.235,-3.905 -14.144,0l-0.004,0.005c-3.905,3.905 -3.902,10.234 0.002,14.139c1.954,1.953 4.512,2.928 7.071,2.928z" fill="#B21F66"/>
     <g stroke="null" id="svg_235">
      <g stroke="null" id="svg_236">
       <path stroke="null" id="svg_237" d="m12518.258241,12806.192414l0,26.455c0,3.652 2.961,6.614 6.613,6.614l105.82,0c3.652,0 6.614,-2.962 6.614,-6.614l0,-26.455c0,-3.652 -2.961,-6.613 -6.614,-6.613l-105.82,0c-3.652,0 -6.613,2.961 -6.613,6.613zm13.227,6.614l92.592,0l0,13.228l-92.592,0l0,-13.228z" fill="#B21F66"/>
       <path stroke="null" id="svg_238" d="m12564.556241,12779.737414c0,3.652 2.961,6.614 6.614,6.614l39.68,0c3.652,0 6.614,-2.962 6.614,-6.614s-2.961,-6.613 -6.614,-6.613l-39.68,0c-3.652,0 -6.614,2.961 -6.614,6.613z" fill="#B21F66"/>
       <path stroke="null" id="svg_239" d="m12551.331241,12779.737414c0,-3.652 -2.961,-6.613 -6.614,-6.613l-0.005,0c-3.651,0 -6.611,2.961 -6.611,6.613s2.964,6.614 6.616,6.614c3.654,0 6.614,-2.962 6.614,-6.614z" fill="#B21F66"/>
       <path stroke="null" id="svg_240" d="m12557.514241,12690.816414c0,-12.646 -10.289,-22.936 -22.935,-22.936l-16.322,0c-3.652,0 -6.614,2.962 -6.614,6.614l0,54.976c0,3.652 2.961,6.614 6.614,6.614s6.614,-2.962 6.614,-6.614l0,-15.721l5.89,0l10.984,19.028c1.226,2.121 3.448,3.309 5.734,3.309c1.122,0 2.26,-0.288 3.3,-0.889c3.164,-1.826 4.248,-5.87 2.421,-9.034l-8.523,-14.763c7.597,-3.74 12.837,-11.561 12.837,-20.584zm-32.643,-9.708l9.708,0c5.353,0 9.708,4.355 9.708,9.708s-4.355,9.706 -9.708,9.706l-9.708,0l0,-19.414z" fill="#B21F66"/>
       <path stroke="null" id="svg_241" d="m12577.782241,12736.085414c3.651,0 6.614,-2.962 6.614,-6.614l0,-54.976c0,-3.652 -2.962,-6.614 -6.614,-6.614c-3.652,0 -6.614,2.962 -6.614,6.614l0,54.976c0,3.654 2.961,6.614 6.614,6.614z" fill="#B21F66"/>
       <path stroke="null" id="svg_242" d="m12620.984241,12667.880414l-16.321,0c-3.652,0 -6.614,2.962 -6.614,6.614l0,54.976c0,3.652 2.961,6.614 6.614,6.614c3.651,0 6.614,-2.962 6.614,-6.614l0,-15.721l9.707,0c12.646,0 22.936,-10.288 22.936,-22.936c-0.001,-12.643 -10.29,-22.933 -22.936,-22.933zm0,32.642l-9.707,0l0,-19.414l9.707,0c5.354,0 9.708,4.355 9.708,9.708s-4.354,9.706 -9.708,9.706z" fill="#B21F66"/>
       <path stroke="null" id="svg_243" d="m12637.300241,12722.857414c-3.652,0 -6.611,2.961 -6.611,6.613s2.963,6.614 6.617,6.614c3.652,0 6.614,-2.962 6.614,-6.614s-2.961,-6.613 -6.614,-6.613l-0.006,0z" fill="#B21F66"/>
      </g>
     </g>
    </g>
   </g>
   <g stroke="null" transform="matrix(0.9761557873522594,0,0,0.9761557873522594,-12121.970895620003,-12050.317812982557) " id="svg_244" display="none">
    <g stroke="null" id="svg_245" display="inline">
     <g stroke="null" id="svg_246">
      <path stroke="null" id="svg_247" d="m12291.631241,12713.633414c-47.937,0 -94.941,16.425 -132.354,46.251c-7.568,6.035 -8.81,17.065 -2.777,24.633c6.035,7.568 17.06,8.815 24.633,2.78c31.68,-25.259 69.888,-38.608 110.496,-38.608c97.819,0 177.399,79.579 177.399,177.398c0,131.74 -137.508,258.181 -177.406,292.086c-39.923,-33.879 -177.392,-160.151 -177.392,-292.086c0,-31.91 8.562,-63.188 24.762,-90.457c4.943,-8.322 2.203,-19.076 -6.12,-24.021s-19.076,-2.203 -24.021,6.12c-19.413,32.681 -29.674,70.155 -29.674,108.36c0,170.581 193.493,322.271 201.731,328.644c3.159,2.445 6.944,3.666 10.728,3.666c3.783,0 7.568,-1.224 10.727,-3.666c8.236,-6.372 201.729,-158.063 201.729,-328.644c-0.004,-117.145 -95.311,-212.456 -212.461,-212.456z" fill="#00ADB5"/>
     </g>
    </g>
    <g stroke="null" id="svg_248" display="inline">
     <g stroke="null" id="svg_249">
      <path stroke="null" id="svg_250" d="m13076.483241,12320.084414c-111.579,0 -202.355,90.776 -202.355,202.355c0,68.69 32.469,142.299 96.502,218.775c46.885,55.994 93.176,92.044 95.126,93.554c3.159,2.444 6.944,3.665 10.728,3.665s7.568,-1.224 10.728,-3.665c2.411,-1.868 59.66,-46.481 111.234,-113.623c5.895,-7.676 4.453,-18.683 -3.225,-24.579c-7.681,-5.897 -18.68,-4.451 -24.579,3.225c-35.881,46.714 -75.542,82.594 -94.145,98.405c-38.491,-32.804 -167.311,-151.868 -167.311,-275.759c0,-92.248 75.049,-167.298 167.297,-167.298s167.297,75.05 167.297,167.298c0,37.609 -11.972,78.22 -35.578,120.708c-4.701,8.461 -1.654,19.134 6.809,23.833c8.459,4.704 19.137,1.652 23.834,-6.809c26.536,-47.759 39.991,-94.1 39.991,-137.737c0.003,-111.572 -90.773,-202.348 -202.353,-202.348z" fill="#00ADB5"/>
     </g>
    </g>
    <g stroke="null" id="svg_251" display="inline">
     <g stroke="null" id="svg_252">
      <path stroke="null" id="svg_253" d="m12352.264241,12159.605414c-46.692,0 -84.675,37.985 -84.675,84.678c0,46.692 37.985,84.675 84.675,84.675c46.69,0.002 84.676,-37.983 84.676,-84.675c0,-46.693 -37.989,-84.678 -84.676,-84.678zm-0.005,134.297c-27.356,0.002 -49.618,-22.259 -49.618,-49.617c0,-27.359 22.259,-49.62 49.618,-49.62s49.617,22.259 49.617,49.62c0.003,27.358 -22.256,49.617 -49.617,49.617z" fill="#00ADB5"/>
     </g>
    </g>
    <g stroke="null" id="svg_254" display="inline">
     <g stroke="null" id="svg_255">
      <path stroke="null" id="svg_256" d="m12352.264241,12058.399414c-102.497,0 -185.883,83.389 -185.883,185.886c0,32.095 7.964,65.932 23.674,100.568c3.996,8.817 14.384,12.734 23.201,8.726c8.815,-3.996 12.722,-14.386 8.723,-23.203c-13.631,-30.057 -20.541,-59.023 -20.541,-86.091c0.002,-83.166 67.662,-150.828 150.828,-150.828s150.828,67.662 150.828,150.828c0,111.147 -114.745,218.21 -150.839,249.134c-19.47,-16.646 -61.779,-55.364 -96.539,-104.888c-5.562,-7.924 -16.493,-9.837 -24.417,-4.277c-7.927,5.562 -9.839,16.495 -4.277,24.417c49.723,70.837 111.896,119.321 114.516,121.348c3.159,2.444 6.944,3.665 10.727,3.665c3.783,0 7.568,-1.221 10.728,-3.665c1.781,-1.379 44.076,-34.317 86.893,-85.447c58.572,-69.954 88.268,-137.339 88.268,-200.283c-0.007,-102.501 -83.395,-185.89 -185.89,-185.89z" fill="#00ADB5"/>
     </g>
    </g>
    <g stroke="null" id="svg_257" display="inline">
     <g stroke="null" id="svg_258">
      <path stroke="null" id="svg_259" d="m12588.167241,12610.370414l-21.412,-9.363c-8.876,-3.879 -19.207,0.173 -23.084,9.037c-3.876,8.871 0.169,19.207 9.038,23.084l21.412,9.363c2.288,1.001 4.669,1.472 7.015,1.472c6.753,0 13.188,-3.928 16.071,-10.509c3.877,-8.872 -0.169,-19.205 -9.04,-23.084z" fill="#00ADB5"/>
     </g>
    </g>
    <g stroke="null" id="svg_260" display="inline">
     <g stroke="null" id="svg_261">
      <path stroke="null" id="svg_262" d="m12930.808241,12760.152414l-21.412,-9.363c-8.876,-3.877 -19.205,0.169 -23.084,9.037c-3.876,8.871 0.169,19.207 9.038,23.084l21.412,9.363c2.287,1.001 4.669,1.472 7.015,1.472c6.755,0 13.193,-3.926 16.071,-10.509c3.874,-8.871 -0.171,-19.205 -9.04,-23.084z" fill="#00ADB5"/>
     </g>
    </g>
    <g stroke="null" id="svg_263" display="inline">
     <g stroke="null" id="svg_264">
      <path stroke="null" id="svg_265" d="m12502.506241,12572.923414l-21.415,-9.361c-8.881,-3.876 -19.205,0.172 -23.081,9.04c-3.877,8.871 0.171,19.207 9.039,23.081l21.415,9.361c2.288,1.001 4.667,1.472 7.013,1.472c6.757,0 13.193,-3.928 16.071,-10.512c3.876,-8.873 -0.174,-19.204 -9.042,-23.081z" fill="#00ADB5"/>
     </g>
    </g>
    <g stroke="null" id="svg_266" display="inline">
     <g stroke="null" id="svg_267">
      <path stroke="null" id="svg_268" d="m12416.846241,12535.477414l-21.415,-9.36c-8.88,-3.879 -19.207,0.171 -23.081,9.039c-3.876,8.871 0.171,19.207 9.04,23.082l21.415,9.36c2.287,1.001 4.666,1.472 7.013,1.472c6.757,0 13.192,-3.928 16.071,-10.512c3.874,-8.871 -0.174,-19.207 -9.043,-23.081z" fill="#00ADB5"/>
     </g>
    </g>
    <g stroke="null" id="svg_269" display="inline">
     <g stroke="null" id="svg_270">
      <path stroke="null" id="svg_271" d="m13016.468241,12797.595414l-21.415,-9.363c-8.864,-3.876 -19.205,0.172 -23.082,9.04c-3.876,8.869 0.169,19.205 9.04,23.081l21.415,9.363c2.285,1.001 4.667,1.473 7.013,1.473c6.753,0 13.19,-3.926 16.071,-10.512c3.874,-8.869 -0.171,-19.203 -9.042,-23.082z" fill="#00ADB5"/>
     </g>
    </g>
    <g stroke="null" id="svg_272" display="inline">
     <g stroke="null" id="svg_273">
      <path stroke="null" id="svg_274" d="m12845.149241,12722.704414l-21.415,-9.361c-8.878,-3.879 -19.207,0.171 -23.081,9.04c-3.877,8.871 0.171,19.207 9.04,23.081l21.415,9.361c2.285,1.001 4.666,1.472 7.012,1.472c6.755,0 13.191,-3.926 16.071,-10.512c3.874,-8.871 -0.173,-19.205 -9.042,-23.081z" fill="#00ADB5"/>
     </g>
    </g>
    <g stroke="null" id="svg_275" display="inline">
     <g stroke="null" id="svg_276">
      <path stroke="null" id="svg_277" d="m12759.484241,12685.259414l-21.415,-9.36c-8.878,-3.879 -19.207,0.171 -23.081,9.039c-3.877,8.871 0.171,19.208 9.039,23.082l21.415,9.36c2.288,1.001 4.667,1.472 7.013,1.472c6.757,0 13.193,-3.928 16.071,-10.512c3.877,-8.87 -0.17,-19.204 -9.042,-23.081z" fill="#00ADB5"/>
     </g>
    </g>
    <g stroke="null" id="svg_278" display="inline">
     <g stroke="null" id="svg_279">
      <path stroke="null" id="svg_280" d="m12673.824241,12647.813414l-21.414,-9.363c-8.867,-3.879 -19.205,0.172 -23.082,9.04c-3.876,8.869 0.169,19.205 9.04,23.081l21.415,9.363c2.283,1.001 4.666,1.473 7.013,1.473c6.755,0 13.192,-3.926 16.071,-10.512c3.876,-8.869 -0.169,-19.203 -9.043,-23.082z" fill="#00ADB5"/>
     </g>
    </g>
    <g stroke="null" id="svg_281" display="inline">
     <g stroke="null" id="svg_282">
      <path stroke="null" id="svg_283" d="m12397.528241,13209.337414c-4.554,-8.543 -15.168,-11.782 -23.714,-7.229l-20.625,10.992c-8.543,4.554 -11.777,15.171 -7.226,23.717c3.155,5.918 9.216,9.29 15.485,9.29c2.779,0 5.602,-0.663 8.229,-2.064l20.625,-10.992c8.544,-4.553 11.778,-15.171 7.226,-23.714z" fill="#00ADB5"/>
     </g>
    </g>
    <g stroke="null" id="svg_284" display="inline">
     <g stroke="null" id="svg_285">
      <path stroke="null" id="svg_286" d="m12480.026241,13165.364414c-4.552,-8.543 -15.169,-11.777 -23.714,-7.226l-20.625,10.992c-8.543,4.554 -11.777,15.171 -7.226,23.714c3.154,5.918 9.216,9.29 15.485,9.29c2.779,0 5.602,-0.663 8.227,-2.063l20.625,-10.992c8.544,-4.555 11.78,-15.175 7.228,-23.715z" fill="#00ADB5"/>
     </g>
    </g>
    <g stroke="null" id="svg_287" display="inline">
     <g stroke="null" id="svg_288">
      <path stroke="null" id="svg_289" d="m12562.524241,13121.395414c-4.552,-8.548 -15.166,-11.784 -23.712,-7.229l-20.625,10.992c-8.543,4.554 -11.777,15.171 -7.226,23.717c3.154,5.918 9.216,9.29 15.485,9.29c2.779,0 5.602,-0.663 8.227,-2.063l20.625,-10.992c8.541,-4.555 11.778,-15.175 7.226,-23.715z" fill="#00ADB5"/>
     </g>
    </g>
    <g stroke="null" id="svg_290" display="inline">
     <g stroke="null" id="svg_291">
      <path stroke="null" id="svg_292" d="m12975.027241,12901.527414c-4.552,-8.545 -15.169,-11.779 -23.717,-7.226l-20.625,10.992c-8.543,4.554 -11.777,15.171 -7.226,23.717c3.155,5.918 9.216,9.29 15.485,9.29c2.779,0 5.602,-0.663 8.229,-2.063l20.625,-10.992c8.544,-4.555 11.779,-15.175 7.229,-23.718z" fill="#00ADB5"/>
     </g>
    </g>
    <g stroke="null" id="svg_293" display="inline">
     <g stroke="null" id="svg_294">
      <path stroke="null" id="svg_295" d="m13057.527241,12857.556414c-4.556,-8.546 -15.168,-11.78 -23.716,-7.229l-20.625,10.992c-8.543,4.554 -11.777,15.171 -7.226,23.717c3.154,5.918 9.215,9.29 15.484,9.29c2.78,0 5.602,-0.663 8.229,-2.064l20.625,-10.992c8.545,-4.554 11.779,-15.171 7.229,-23.714z" fill="#00ADB5"/>
     </g>
    </g>
    <g stroke="null" id="svg_296" display="inline">
     <g stroke="null" id="svg_297">
      <path stroke="null" id="svg_298" d="m12892.523241,12945.501414c-4.552,-8.548 -15.169,-11.786 -23.712,-7.224l-20.622,10.992c-8.543,4.555 -11.777,15.169 -7.224,23.712c3.152,5.918 9.216,9.291 15.482,9.291c2.78,0 5.602,-0.663 8.227,-2.067l20.623,-10.992c8.543,-4.549 11.777,-15.167 7.226,-23.712z" fill="#00ADB5"/>
     </g>
    </g>
    <g stroke="null" id="svg_299" display="inline">
     <g stroke="null" id="svg_300">
      <path stroke="null" id="svg_301" d="m12645.024241,13077.417414c-4.552,-8.541 -15.166,-11.779 -23.714,-7.226l-20.625,10.992c-8.543,4.554 -11.777,15.171 -7.226,23.712c3.154,5.918 9.216,9.29 15.484,9.29c2.78,0 5.602,-0.663 8.227,-2.063l20.626,-10.992c8.544,-4.553 11.778,-15.17 7.228,-23.713z" fill="#00ADB5"/>
     </g>
    </g>
    <g stroke="null" id="svg_302" display="inline">
     <g stroke="null" id="svg_303">
      <path stroke="null" id="svg_304" d="m12810.025241,12989.472414c-4.552,-8.543 -15.174,-11.785 -23.712,-7.224l-20.623,10.992c-8.543,4.554 -11.777,15.169 -7.224,23.712c3.152,5.918 9.216,9.29 15.482,9.29c2.782,0 5.604,-0.663 8.229,-2.067l20.622,-10.992c8.543,-4.551 11.777,-15.166 7.226,-23.711z" fill="#00ADB5"/>
     </g>
    </g>
    <g stroke="null" id="svg_305" display="inline">
     <g stroke="null" id="svg_306">
      <path stroke="null" id="svg_307" d="m12727.524241,13033.448414c-4.554,-8.548 -15.173,-11.789 -23.714,-7.226l-20.623,10.992c-8.543,4.554 -11.777,15.169 -7.223,23.712c3.152,5.918 9.215,9.288 15.482,9.288c2.782,0 5.604,-0.661 8.229,-2.065l20.623,-10.992c8.544,-4.551 11.778,-15.166 7.226,-23.709z" fill="#00ADB5"/>
     </g>
    </g>
    <path stroke="null" id="svg_308" d="m13076.141241,12434.623414c-8.547,0 -15.477,6.929 -15.477,15.477l0,46.432l-46.432,0c-8.547,0 -15.477,6.929 -15.477,15.477c0,8.549 6.93,15.477 15.477,15.477l46.432,0l0,87.703c0,8.548 6.93,15.478 15.477,15.478c8.546,0 15.477,-6.93 15.477,-15.478l0,-87.703l46.432,0c8.546,0 15.477,-6.928 15.477,-15.477c0,-8.548 -6.931,-15.477 -15.477,-15.477l-46.432,0l0,-46.432c-0.001,-8.548 -6.93,-15.477 -15.477,-15.477z" fill="#00ADB5"/>
    <g stroke="null" id="svg_309" display="inline">
     <g stroke="null" id="svg_310">
      <path stroke="null" id="svg_311" d="m12260.879241,12901.640414c0,-18.321 -14.907,-33.229 -33.227,-33.229l-23.646,0c-5.292,0 -9.583,4.292 -9.583,9.583l0,79.646c0,5.292 4.292,9.582 9.583,9.582c5.291,0 9.581,-4.29 9.581,-9.582l0,-22.774l8.534,0l15.914,27.566c1.776,3.073 4.996,4.794 8.307,4.794c1.626,0 3.274,-0.418 4.782,-1.288c4.583,-2.646 6.154,-8.504 3.507,-13.088l-12.348,-21.388c11.004,-5.42 18.596,-16.749 18.596,-29.822zm-47.293,-14.065l14.065,0c7.755,0 14.064,6.311 14.064,14.065c0,7.754 -6.31,14.062 -14.064,14.062l-14.065,0l0,-28.127z" fill="#00ADB5"/>
      <path stroke="null" id="svg_312" d="m12290.242241,12967.222414c5.291,0 9.582,-4.29 9.582,-9.582l0,-79.646c0,-5.291 -4.291,-9.583 -9.582,-9.583c-5.292,0 -9.582,4.292 -9.582,9.583l0,79.646c0,5.294 4.29,9.582 9.582,9.582z" fill="#00ADB5"/>
      <path stroke="null" id="svg_313" d="m12352.832241,12868.412414l-23.645,0c-5.292,0 -9.582,4.292 -9.582,9.583l0,79.646c0,5.292 4.291,9.582 9.582,9.582c5.29,0 9.582,-4.29 9.582,-9.582l0,-22.774l14.063,0c18.321,0 33.227,-14.905 33.227,-33.229c0,-18.319 -14.907,-33.226 -33.227,-33.226zm0,47.29l-14.063,0l0,-28.127l14.063,0c7.756,0 14.063,6.311 14.063,14.065c0,7.754 -6.308,14.062 -14.063,14.062z" fill="#00ADB5"/>
      <path stroke="null" id="svg_314" d="m12376.469241,12948.060414c-5.291,0 -9.578,4.289 -9.578,9.58c0,5.292 4.293,9.582 9.586,9.582c5.292,0 9.582,-4.29 9.582,-9.582c0,-5.291 -4.291,-9.58 -9.582,-9.58l-0.008,0z" fill="#00ADB5"/>
     </g>
    </g>
   </g>
   <g stroke="null" transform="matrix(0.9761557873522594,0,0,0.9761557873522594,-12121.970895620003,-12050.317812982557) " id="svg_315" display="none">
    <path stroke="null" id="svg_316" d="m12384.171241,12713.657414l211.977,0l0,211.985c0.622,52.488 43.349,94.714 95.844,94.714c52.496,0 95.221,-42.226 95.844,-94.714l0,-615.653c-0.625,-52.49 -43.352,-94.714 -95.844,-94.714c-52.493,0 -95.222,42.224 -95.844,94.714l0,211.985l-211.977,0c-52.495,0.619 -94.72,43.347 -94.72,95.84c0.001,52.496 42.225,95.221 94.72,95.843z" fill="#FFFFFF"/>
    <path stroke="null" id="svg_317" d="m12999.818241,12521.974414l-211.982,0l0,-211.985c-0.625,-52.49 -43.352,-94.714 -95.844,-94.714c-52.493,0 -95.222,42.224 -95.844,94.714l0,615.649c0.622,52.488 43.349,94.718 95.844,94.718c52.496,0 95.221,-42.229 95.844,-94.718l0,-211.981l211.982,0c52.49,-0.619 94.717,-43.347 94.717,-95.842c0,-52.494 -42.226,-95.222 -94.717,-95.841z" fill="#A4C2F7"/>
    <path stroke="null" id="svg_318" d="m12942.311241,12521.974414l-211.985,0l0,-211.985c0,-52.096 -5.41,-94.714 -57.501,-94.714c-52.468,0.06 -95.158,42.251 -95.841,94.714l0,211.981l-134.186,0c-52.489,0.619 -94.713,43.351 -94.713,95.844c0,52.492 42.224,95.22 94.713,95.842l134.186,0l0,211.981c0.683,52.464 43.373,94.649 95.841,94.713c52.091,0 57.501,-42.622 57.501,-94.713l0,-211.98l211.984,0c52.488,-0.619 94.715,-43.347 94.715,-95.842c0,-52.494 -42.222,-95.222 -94.714,-95.841z" fill="#E3E7F2"/>
    <path stroke="null" id="svg_319" d="m12691.992241,13039.524414c-63.181,0.24 -114.63,-50.707 -115.008,-113.889l0,-192.81l-192.813,0c-63.078,-0.62 -113.883,-51.932 -113.883,-115.011c0,-63.078 50.805,-114.389 113.883,-115.013l192.813,0l0,-192.808c0.619,-63.077 51.93,-113.885 115.008,-113.885c63.084,0 114.393,50.809 115.016,113.885l0,192.809l192.805,0c63.078,0.621 113.891,51.932 113.891,115.013c0,63.08 -50.813,114.391 -113.891,115.011l-192.805,0l0,192.806c-0.387,63.185 -51.836,114.132 -115.016,113.892zm-307.821,-498.386c-41.902,0.622 -75.545,34.767 -75.545,76.676c0,41.908 33.643,76.051 75.545,76.671l211.977,0c5.088,0 9.964,2.019 13.56,5.609c3.596,3.596 5.611,8.472 5.611,13.558l0,211.982c0.619,41.9 34.767,75.541 76.673,75.541c41.908,0 76.051,-33.641 76.67,-75.541l0,-211.977c0,-5.086 2.018,-9.962 5.613,-13.557c3.594,-3.596 8.473,-5.614 13.561,-5.611l211.977,0c41.902,-0.62 75.545,-34.767 75.545,-76.671c0,-41.909 -33.643,-76.054 -75.545,-76.677l-211.977,0c-5.084,0.004 -9.963,-2.015 -13.561,-5.607c-3.596,-3.596 -5.613,-8.476 -5.611,-13.56l0,-211.981c-0.617,-41.901 -34.764,-75.545 -76.672,-75.545c-41.907,0 -76.051,33.645 -76.673,75.545l0,211.981c0.003,5.081 -2.016,9.96 -5.611,13.556c-3.593,3.596 -8.472,5.611 -13.556,5.608l-211.981,0l0,0z" fill="#428DFF"/>
   </g>
   <path stroke="null" id="svg_320" d="m123.418202,498.306525c-21.711657,0 -39.854488,-15.290504 -44.23938,-35.694113c-1.056201,-4.91104 2.623907,-9.559494 7.645252,-9.559494l16.548769,0c11.069607,0 20.045359,-8.975752 20.045359,-20.045359l0,-263.776817c0,-86.195532 69.879088,-156.07462 156.078525,-156.07462c86.195532,0 156.07462,69.879088 156.07462,156.07462l0,263.775841c0,11.069607 8.975752,20.045359 20.045359,20.045359l16.548769,0c5.022322,0 8.701453,4.652358 7.645252,9.559494c-4.384892,20.403608 -22.527723,35.694113 -44.23938,35.694113l-312.153145,0l0,0.000976z" fill="#EBEBEB"/>
   <path stroke="null" id="svg_321" d="m278.829037,55.066395c-62.78634,0.358249 -113.115956,52.243858 -113.115956,115.030198l0,55.553026c0,16.400393 13.292313,29.692707 29.688802,29.692707l17.196937,0c8.087451,0 14.642337,6.554886 14.642337,14.642337c0,11.47764 9.303741,20.777476 20.777476,20.777476l8.853733,0l7.321168,-2.093854l7.321168,2.093854l14.630623,0l7.321168,-2.337893l7.321168,2.337893l10.181305,0c11.47764,0 20.777476,-9.299836 20.777476,-20.777476c0,-8.087451 6.554886,-14.642337 14.646241,-14.642337l17.193032,0c16.396489,0 29.688802,-13.292313 29.688802,-29.692707l0,-56.803481c0.000976,-62.962048 -51.399483,-114.141896 -114.445481,-113.779742z" fill="#EBEBEB"/>
   <path stroke="null" id="svg_322" d="m278.829037,55.066395c-62.78634,0.358249 -113.115956,52.243858 -113.115956,115.030198l0,29.284674c0,-62.78634 50.333521,-114.671949 113.115956,-115.030198c63.045998,-0.362154 114.446457,50.817694 114.446457,113.779742l0,-29.284674c0,-62.962048 -51.400459,-114.141896 -114.446457,-113.779742z" fill="#D5D4DA"/>
   <path stroke="null" id="svg_323" d="m387.560102,427.005178c-14.554483,-16.708859 -43.427219,-40.724243 -100.528428,-68.182529c-72.307764,-34.26502 -87.213663,-59.115018 -109.775551,-96.731182c-13.75794,-22.935756 -30.657149,-51.110541 -64.372593,-86.267768c-3.992477,-4.164281 -10.623503,-4.251158 -14.69993,-0.171803l-9.643443,9.643443c-3.946598,3.946598 -4.022738,10.333585 -0.16009,14.364132c30.905092,32.239497 46.073577,57.524861 59.561122,80.014514c23.908008,39.859369 42.790765,71.340393 124.3642,109.997139c55.850753,26.855998 80.151176,48.845859 90.252436,60.777412c3.984668,4.708976 11.168198,4.903231 15.374454,0.38851l9.395499,-10.081737c3.587373,-3.84703 3.690845,-9.784009 0.232325,-13.75013z" fill="#EBEBEB"/>
   <path stroke="null" id="svg_324" d="m177.255146,262.091467c-7.538851,-12.564101 -16.026526,-26.706646 -27.69842,-42.706816l-29.212438,17.948576c11.531328,15.564804 19.843295,29.414502 27.595924,42.340757c3.111985,5.189244 6.142948,10.237922 9.23541,15.176294c8.251445,-7.866839 17.048561,-15.40081 26.371825,-22.341278c-2.067498,-3.370666 -4.144757,-6.836995 -6.2923,-10.417535z" fill="#EBEBEB"/>
   <path stroke="null" id="svg_325" d="m176.866636,220.330546c-7.393404,-11.679704 -16.534127,-24.834379 -29.456477,-39.728564c-6.673001,-7.691131 -18.413227,-8.239731 -25.85251,-1.288526c-33.677375,31.473215 -115.121957,121.565561 -79.884685,229.626007c0,0 45.535715,-104.556046 130.450531,-164.326065c7.816079,-5.499662 9.86015,-16.207115 4.743141,-24.282851z" fill="#EBEBEB"/>
   <path stroke="null" id="svg_326" d="m151.314783,185.192843c-1.266074,-1.514018 -2.558504,-3.038773 -3.904623,-4.590861c-6.673001,-7.691131 -18.413227,-8.243636 -25.85251,-1.288526c-31.347291,29.296387 -104.070897,109.393874 -85.555174,207.494603c18.810522,-92.07199 80.048679,-165.607758 115.312307,-201.615216z" fill="#8597A5"/>
   <path stroke="null" id="svg_327" d="m327.328361,384.279816c0,15.236816 -12.354228,27.592019 -27.592019,27.592019s-27.592019,-12.354228 -27.592019,-27.592019s12.354228,-27.592019 27.592019,-27.592019s27.592019,12.354228 27.592019,27.592019z" fill="#EBEBEB"/>
   <path stroke="null" id="svg_328" d="m272.144322,384.279816c0,11.24141 6.72669,20.9034 16.370133,25.204342c8.011311,-5.430355 14.360228,-12.995562 18.3488,-22.073811c3.988573,-9.07532 5.269289,-18.874948 3.84703,-28.446156c-3.362857,-1.460329 -7.073225,-2.276395 -10.973943,-2.276395c-15.236816,0 -27.592019,12.354228 -27.592019,27.592019z" fill="#D5D4DA"/>
   <path stroke="null" id="svg_329" d="m284.960271,356.474018c-5.528946,-14.200138 -21.521307,-21.227484 -35.721445,-15.698537c-14.200138,5.532851 -21.227484,21.525211 -15.694633,35.72535c5.528946,14.196234 21.521307,21.223579 35.721445,15.694633s21.227484,-21.525211 15.694633,-35.721445z" fill="#EBEBEB"/>
   <path stroke="null" id="svg_330" d="m214.04841,202.709958c-4.042261,0 -7.321168,3.278907 -7.321168,7.321168l0,10.631313c0,4.046166 3.278907,7.321168 7.321168,7.321168s7.321168,-3.275003 7.321168,-7.321168l0,-10.631313c0,-4.041285 -3.279883,-7.321168 -7.321168,-7.321168z"/>
   <path stroke="null" id="svg_331" d="m344.925521,202.709958c-4.046166,0 -7.321168,3.278907 -7.321168,7.321168l0,10.631313c0,4.046166 3.275003,7.321168 7.321168,7.321168c4.042261,0 7.321168,-3.275003 7.321168,-7.321168l0,-10.631313c0,-4.041285 -3.278907,-7.321168 -7.321168,-7.321168z"/>
   <path stroke="null" id="svg_332" d="m283.919689,220.052342c-1.872267,-3.622514 -7.077129,-3.546374 -8.849828,0.125924l-4.720689,9.791819c-1.582349,3.286717 0.812162,7.096653 4.457127,7.096653l9.787914,0c3.710368,0 6.100974,-3.927075 4.396606,-7.221601l-5.071129,-9.792795z"/>
   <path stroke="null" id="svg_333" d="m41.283478,300.763831c-3.904623,-1.044487 -7.923457,1.269979 -8.968919,5.174602c-9.563398,35.664828 -8.762951,71.080736 2.386701,105.26864c2.036261,6.242516 11.053988,6.673001 13.67399,0.655977c0.324084,-0.739926 23.855295,-53.978487 67.712999,-105.35259l0,126.496124c0,7.016608 -5.712464,12.728095 -12.728095,12.728095l-16.544864,0c-4.590861,0 -8.881065,2.047975 -11.767558,5.6168c-2.906016,3.600063 -4.011024,8.263159 -3.038773,12.800331c5.170697,24.030027 26.783762,41.474907 51.400459,41.474907l312.148265,0c24.617673,0 46.233667,-17.44488 51.400459,-41.474907c0.976156,-4.537172 -0.133733,-9.201244 -3.038773,-12.800331c-2.886493,-3.568826 -7.172793,-5.6168 -11.763653,-5.6168l-16.548769,0c-7.016608,0 -12.728095,-5.712464 -12.728095,-12.728095l0,-263.775841c0.003905,-90.096251 -73.295633,-163.395789 -163.395789,-163.395789c-90.000587,0 -163.239604,73.147258 -163.391884,163.11368c-3.050487,-2.314465 -6.806734,-3.622514 -10.665478,-3.622514c-4.694333,0 -9.109486,1.830292 -12.430368,5.147269l-9.643443,9.647348c-6.71888,6.714976 -6.836995,17.754321 -0.266491,24.605959c0.781901,0.819971 1.56673,1.643846 2.348631,2.47065c-15.382263,18.741215 -31.671375,42.630676 -43.324722,70.291026c-1.56673,3.728915 0.179613,8.023024 3.904623,9.589754c3.728915,1.570635 8.023024,-0.179613 9.589754,-3.904623c12.083832,-28.682385 29.502356,-53.17023 45.315104,-71.675215c7.614991,-8.915231 15.694633,-17.429262 24.20183,-25.498165c2.474555,-2.344726 5.102366,-4.194541 8.693643,-4.220898l0.144471,0c2.989965,0.030261 5.944789,1.357833 7.908814,3.622514c10.581529,12.194138 20.167379,25.208247 28.804405,38.844167c2.932372,4.628931 1.826387,10.997371 -2.620002,14.253827c-10.886089,7.98105 -21.421739,16.232495 -31.3551,25.38786c-0.03807,0.034165 -0.072236,0.07614 -0.11421,0.11421c-25.612376,24.5142 -48.239667,51.503932 -67.663215,81.181996c-11.130128,17.002682 -19.545567,32.037433 -25.219961,42.912785c-5.250742,-25.639708 -4.335108,-51.915869 2.756664,-78.362858c1.046439,-3.905599 -1.268026,-7.920528 -5.17265,-8.969896zm53.726638,-104.75323c-0.450008,-0.472459 -0.900016,-0.945895 -1.353928,-1.418354c-1.098175,-1.144055 -1.075724,-2.992894 0.049784,-4.118401l9.647348,-9.647348c1.166506,-1.162602 3.104175,-1.117698 4.236516,0.064426c0.286014,0.301632 0.575932,0.602288 0.86585,0.90392c-0.167899,0.163994 -13.700346,13.94829 -13.44557,14.215757zm57.010426,-21.201128c-4.415153,-4.5606 -10.4517,-7.317264 -16.816236,-7.653061c-1.506208,-0.07614 -2.996798,-0.019523 -4.461032,0.16009c1.029844,-81.14295 67.358654,-146.83921 148.741738,-146.83921c82.023442,0 148.757357,66.729033 148.757357,148.753452l0,263.775841c0,15.08844 12.274183,27.366527 27.366527,27.366527l16.548769,0c0.080045,0 0.22842,0 0.373868,0.179613c0.179613,0.221587 0.129829,0.446103 0.11421,0.518339c-3.72501,17.334574 -19.321051,29.914294 -37.082206,29.914294l-312.153145,0c-17.761155,0 -33.357196,-12.57972 -37.086111,-29.914294c-0.015618,-0.072236 -0.064426,-0.297728 0.11421,-0.518339c0.144471,-0.179613 0.293823,-0.179613 0.377772,-0.179613l16.544864,0c15.092345,0 27.370432,-12.278087 27.370432,-27.366527l0,-142.720809c3.038773,-3.18422 6.162471,-6.333299 9.361334,-9.437474c0.518339,0.861946 1.044487,1.734629 1.559897,2.59267c19.054561,31.767038 35.583807,59.290726 83.183115,88.96391c0.396319,2.284205 1.022035,4.548886 1.883981,6.75695c5.26636,13.517805 18.03643,22.249519 32.537225,22.249519c3.172506,0 6.303038,-0.430485 9.345716,-1.284621c5.826674,11.534257 17.670372,19.065299 31.122775,19.065299c3.340405,0 6.569528,-0.480269 9.627825,-1.361737c26.943852,16.270565 40.738886,29.23489 47.607118,37.345768c6.711071,7.927361 19.229293,8.259254 26.318136,0.652072l9.395499,-10.081737c6.162471,-6.611503 6.333299,-16.739119 0.396319,-23.553663c-13.471926,-15.458403 -33.52119,-31.20282 -59.587478,-46.825217c-3.950502,-14.947874 -17.586423,-26.001862 -33.757419,-26.001862c-3.176411,0 -6.333299,0.450008 -9.373048,1.296335c-5.921361,-11.694346 -17.772868,-19.088726 -31.107156,-19.088726c-2.238325,0 -4.457127,0.217683 -6.638836,0.644263c-37.730373,-23.06168 -50.832336,-43.516049 -67.316679,-70.954812c3.244742,0.918563 6.638836,1.399807 10.105165,1.399807l17.193032,0c4.038356,0 7.325073,3.282812 7.325073,7.321168c0,15.492569 12.602171,28.098644 28.098644,28.098644l62.950334,0c15.492569,0 28.09474,-12.606076 28.09474,-28.098644c0,-4.038356 3.286717,-7.321168 7.325073,-7.321168l17.193032,0c20.411418,0 37.013875,-16.606362 37.013875,-37.013875l0,-56.803481c0,-25.238508 -7.725297,-49.448148 -22.337373,-70.008917c-2.340822,-3.294526 -6.913135,-4.068617 -10.207661,-1.723891c-3.294526,2.340822 -4.068617,6.913135 -1.727796,10.207661c12.842306,18.066691 19.629517,39.340054 19.629517,61.524171l0,56.803481c0,12.335681 -10.035858,22.371538 -22.371538,22.371538l-17.193032,0c-12.110189,0 -21.963505,9.853317 -21.963505,21.963505c0,7.420736 -6.036547,13.456308 -13.456308,13.456308l-10.181305,0l0,-14.982039c0,-4.042261 -3.278907,-7.321168 -7.321168,-7.321168c-4.046166,0 -7.321168,3.278907 -7.321168,7.321168l0,14.982039l-14.630623,0l0,-14.982039c0,-4.042261 -3.278907,-7.321168 -7.321168,-7.321168c-4.046166,0 -7.321168,3.278907 -7.321168,7.321168l0,14.982039l-8.853733,0c-7.420736,0 -13.456308,-6.036547 -13.456308,-13.456308c0,-12.110189 -9.853317,-21.963505 -21.963505,-21.963505l-17.196937,0c-4.594765,0 -8.991371,-1.395903 -12.682216,-3.942693c5.140436,-7.641348 5.650966,-17.726989 1.364666,-25.872033c-3.07001,-5.826674 -7.233314,-11.397595 -11.053988,-16.796713l0,-31.313125c0,-59.057425 47.481194,-107.377137 105.840667,-107.70903c25.536235,-0.163994 50.313998,8.929873 69.749259,25.563568c3.072938,2.626835 7.691131,2.268586 10.321871,-0.804352c2.63074,-3.07001 2.268586,-7.691131 -0.800448,-10.321871c-21.933244,-18.771476 -49.841538,-29.082609 -78.660586,-29.082609c-0.22842,0 -0.461722,0 -0.694047,0.003905c-66.386403,0.381677 -120.39515,55.267012 -120.39515,122.351366l0,12.156068c-0.62474,-0.753592 -6.055094,-7.118128 -6.36356,-7.442212zm181.61476,217.824283c21.002968,13.239601 37.254009,26.390372 48.395852,39.179965c0.995679,1.144055 0.964442,2.840613 -0.068331,3.950502l-9.395499,10.085642c-1.204576,1.29243 -3.29843,1.204576 -4.430771,-0.129829c-6.939491,-8.201661 -20.106857,-20.785285 -44.312592,-36.15193c3.836292,-3.644966 6.768664,-8.121616 8.609694,-13.086344c0.064426,-0.167899 0.926372,-2.715665 1.201648,-3.848006zm-13.792105,-10.787498c1.514018,11.82808 -8.255349,22.703431 -20.117595,22.703431c-7.866839,0 -14.786808,-4.434676 -18.142831,-11.210173c4.114497,-3.416545 7.416832,-7.759462 9.631729,-12.800331c2.215874,-5.036964 3.180316,-10.401916 2.916753,-15.740512c1.810769,-0.518339 3.698654,-0.78971 5.593373,-0.78971c10.074904,0 18.856401,7.995692 20.118571,17.837295zm-40.808193,-19.415739c2.70688,12.224399 -7.340692,24.343373 -19.774964,24.343373c-10.80214,0 -19.9536,-8.937682 -20.255233,-19.72518c-0.31237,-11.149651 8.99918,-20.831165 20.239614,-20.831165c9.666871,-0.000976 17.800201,7.244052 19.790582,16.212971zm-42.234356,-22.691717c-1.144055,0.956633 -2.222707,1.998191 -3.234004,3.096366c-2.620002,2.848423 -4.754855,6.131235 -6.303038,9.677608c-0.465626,1.067914 -0.900016,2.150471 -1.25436,3.264265c-39.56457,-26.123881 -53.936512,-50.089482 -71.797234,-79.870043c-1.040582,-1.727796 -2.08995,-3.478043 -3.152983,-5.239028c1.552088,-1.37638 11.637729,-9.845507 15.206555,-12.61779c1.658489,2.734212 3.236933,5.361048 4.701166,7.805342c16.575125,27.633994 29.959197,49.951844 65.97837,73.765164c-0.048808,0.03807 -0.094687,0.080045 -0.144471,0.118115z"/>
  </g>
 </g>
</svg>