<svg width="512" height="512" xmlns="http://www.w3.org/2000/svg">
 <!-- Created with Method Draw - http://github.com/duopixel/Method-Draw/ -->

 <g>
  <title>background</title>
  <rect fill="#fff" id="canvas_background" height="514" width="514" y="-1" x="-1"/>
 </g>
 <g>
  <title>Layer 1</title>
  <g stroke="null" id="svg_169">
   <g stroke="null" transform="matrix(0.9937721994508438,0,0,0.9937721994508438,-12385.584411310781,-12331.329032798292) " id="svg_5" display="none">
    <rect stroke="null" id="svg_6" height="19.648" width="137.539" fill="#000033" y="12594.60188" x="12590.976267"/>
    <path stroke="null" id="svg_7" d="m12723.921267,12398.97488l-14.42,0l0,28.839l14.42,0c7.951,0 14.419,-6.467 14.419,-14.419s-6.468,-14.42 -14.419,-14.42z" fill="#000033"/>
    <path stroke="null" id="svg_8" d="m12846.405267,12673.19588l-373.32,0c-10.834,0 -19.648,8.814 -19.648,19.648l0,19.65l412.617,0l0,-19.65c0,-10.834 -8.814,-19.648 -19.649,-19.648z" fill="#000033"/>
    <path stroke="null" id="svg_9" d="m12595.572267,12398.97388l-14.42,0l0,28.84l14.42,0c7.952,0 14.419,-6.468 14.419,-14.42s-6.467,-14.42 -14.419,-14.42z" fill="#000033"/>
    <path stroke="null" id="svg_10" d="m12650.746267,12068.63688c-216.414,0 -392.501,176.085 -392.501,392.501c0,239.181 337.453,742.071 351.827,763.364c9.076,13.492 24.286,21.586 40.524,21.635l0.149,0c16.239,0 31.398,-7.996 40.525,-21.391c14.375,-21.047 351.974,-518.246 351.974,-763.608c0.003,-216.417 -176.084,-392.501 -392.498,-392.501zm-122.992,215.176l0.005,-0.005c3.838,-3.835 10.057,-3.835 13.895,0c3.836,3.837 3.836,10.058 0,13.895c-1.919,1.918 -4.435,2.878 -6.951,2.878c-2.514,0 -5.027,-0.958 -6.946,-2.876c-3.836,-3.839 -3.839,-10.056 -0.003,-13.892zm357.948,438.506c0,5.426 -4.398,9.824 -9.824,9.824l-432.266,0c-5.425,0 -9.824,-4.398 -9.824,-9.824l0,-29.475c0,-21.668 17.628,-39.296 39.297,-39.296l0,-237.748c0,-35.164 9.95,-69.487 28.775,-99.26c2.899,-4.585 8.965,-5.953 13.554,-3.052c4.586,2.9 5.952,8.969 3.052,13.555c-16.834,26.625 -25.733,57.317 -25.733,88.758l0,237.748l334.023,0l0,-237.749c0,-92.09 -74.921,-167.012 -167.012,-167.012c-31.436,0 -62.127,8.899 -88.756,25.733c-4.586,2.901 -10.655,1.531 -13.555,-3.054c-2.898,-4.586 -1.531,-10.654 3.054,-13.554c29.776,-18.824 64.1,-28.773 99.257,-28.773c49.663,0 96.484,19.47 131.838,54.823c35.353,35.354 54.822,82.174 54.822,131.837l0,237.748c21.668,0 39.297,17.628 39.297,39.296l0,29.475l0.001,0zm-235.777,-186.663l58.941,0c5.426,0 9.824,4.399 9.824,9.824c0,5.424 -4.398,9.824 -9.824,9.824l-58.941,0c-5.425,0 -9.824,-4.4 -9.824,-9.824c0,-5.425 4.398,-9.824 9.824,-9.824zm-0.003,-64.842l0,-81.664c0,-5.425 4.399,-9.824 9.824,-9.824s9.824,4.399 9.824,9.824l0,81.664c0,5.425 -4.399,9.824 -9.824,9.824s-9.824,-4.398 -9.824,-9.824zm73.999,-23.352l-14.42,0l0,23.353c0,5.425 -4.4,9.824 -9.824,9.824c-5.426,0 -9.824,-4.399 -9.824,-9.824l0,-81.664c0,-5.425 4.398,-9.824 9.824,-9.824l24.244,0c18.784,0 34.067,15.282 34.067,34.067c0,18.784 -15.283,34.068 -34.067,34.068zm34.067,23.351c0,5.425 -4.397,9.824 -9.824,9.824c-5.426,0 -9.828,-4.399 -9.828,-9.824c0,-5.425 4.396,-9.824 9.821,-9.824l0.007,0c5.426,0 9.824,4.399 9.824,9.824zm-19.649,104.141c5.426,0 9.824,4.398 9.824,9.824l0,39.297c0,5.425 -4.398,9.824 -9.824,9.824l-157.187,0c-5.425,0 -9.824,-4.399 -9.824,-9.824l0,-39.297c0,-5.426 4.399,-9.824 9.824,-9.824l157.187,0zm-137.535,-29.474c0,-5.425 4.396,-9.824 9.82,-9.824l0.008,0c5.425,0 9.824,4.399 9.824,9.824c0,5.424 -4.398,9.824 -9.824,9.824c-5.426,0 -9.828,-4.399 -9.828,-9.824zm22.429,-79.578c2.714,4.699 1.104,10.706 -3.596,13.42c-1.546,0.893 -3.236,1.318 -4.902,1.318c-3.396,0 -6.697,-1.763 -8.518,-4.914l-16.318,-28.265l-8.749,0l0,23.353c0,5.425 -4.399,9.824 -9.824,9.824s-9.824,-4.399 -9.824,-9.824l0,-81.664c0,-5.425 4.399,-9.824 9.824,-9.824l24.245,0c18.785,0 34.068,15.284 34.068,34.068c0,13.404 -7.783,25.021 -19.067,30.578l12.661,21.93z" fill="#000033"/>
   </g>
   <g stroke="null" transform="matrix(0.9937721994508438,0,0,0.9937721994508438,-12385.584411310781,-12331.329032798292) " id="svg_11" display="none">
    <rect stroke="null" id="svg_12" height="19.648" width="137.539" fill="#000033" y="12594.60188" x="12590.976267"/>
    <path stroke="null" id="svg_13" d="m12723.921267,12398.97488l-14.42,0l0,28.839l14.42,0c7.951,0 14.419,-6.467 14.419,-14.419s-6.468,-14.42 -14.419,-14.42z" fill="#000033"/>
    <path stroke="null" id="svg_14" d="m12846.405267,12673.19588l-373.32,0c-10.834,0 -19.648,8.814 -19.648,19.648l0,19.65l412.617,0l0,-19.65c0,-10.834 -8.814,-19.648 -19.649,-19.648z" fill="#000033"/>
    <path stroke="null" id="svg_15" d="m12595.572267,12398.97388l-14.42,0l0,28.84l14.42,0c7.952,0 14.419,-6.468 14.419,-14.42s-6.467,-14.42 -14.419,-14.42z" fill="#000033"/>
    <path stroke="null" id="svg_16" d="m12650.746267,12068.63688c-216.414,0 -392.501,176.085 -392.501,392.501c0,239.181 337.453,742.071 351.827,763.364c9.076,13.492 24.286,21.586 40.524,21.635l0.149,0c16.239,0 31.398,-7.996 40.525,-21.391c14.375,-21.047 351.974,-518.246 351.974,-763.608c0.003,-216.417 -176.084,-392.501 -392.498,-392.501zm-122.992,215.176l0.005,-0.005c3.838,-3.835 10.057,-3.835 13.895,0c3.836,3.837 3.836,10.058 0,13.895c-1.919,1.918 -4.435,2.878 -6.951,2.878c-2.514,0 -5.027,-0.958 -6.946,-2.876c-3.836,-3.839 -3.839,-10.056 -0.003,-13.892zm357.948,438.506c0,5.426 -4.398,9.824 -9.824,9.824l-432.266,0c-5.425,0 -9.824,-4.398 -9.824,-9.824l0,-29.475c0,-21.668 17.628,-39.296 39.297,-39.296l0,-237.748c0,-35.164 9.95,-69.487 28.775,-99.26c2.899,-4.585 8.965,-5.953 13.554,-3.052c4.586,2.9 5.952,8.969 3.052,13.555c-16.834,26.625 -25.733,57.317 -25.733,88.758l0,237.748l334.023,0l0,-237.749c0,-92.09 -74.921,-167.012 -167.012,-167.012c-31.436,0 -62.127,8.899 -88.756,25.733c-4.586,2.901 -10.655,1.531 -13.555,-3.054c-2.898,-4.586 -1.531,-10.654 3.054,-13.554c29.776,-18.824 64.1,-28.773 99.257,-28.773c49.663,0 96.484,19.47 131.838,54.823c35.353,35.354 54.822,82.174 54.822,131.837l0,237.748c21.668,0 39.297,17.628 39.297,39.296l0,29.475l0.001,0zm-235.777,-186.663l58.941,0c5.426,0 9.824,4.399 9.824,9.824c0,5.424 -4.398,9.824 -9.824,9.824l-58.941,0c-5.425,0 -9.824,-4.4 -9.824,-9.824c0,-5.425 4.398,-9.824 9.824,-9.824zm-0.003,-64.842l0,-81.664c0,-5.425 4.399,-9.824 9.824,-9.824s9.824,4.399 9.824,9.824l0,81.664c0,5.425 -4.399,9.824 -9.824,9.824s-9.824,-4.398 -9.824,-9.824zm73.999,-23.352l-14.42,0l0,23.353c0,5.425 -4.4,9.824 -9.824,9.824c-5.426,0 -9.824,-4.399 -9.824,-9.824l0,-81.664c0,-5.425 4.398,-9.824 9.824,-9.824l24.244,0c18.784,0 34.067,15.282 34.067,34.067c0,18.784 -15.283,34.068 -34.067,34.068zm34.067,23.351c0,5.425 -4.397,9.824 -9.824,9.824c-5.426,0 -9.828,-4.399 -9.828,-9.824c0,-5.425 4.396,-9.824 9.821,-9.824l0.007,0c5.426,0 9.824,4.399 9.824,9.824zm-19.649,104.141c5.426,0 9.824,4.398 9.824,9.824l0,39.297c0,5.425 -4.398,9.824 -9.824,9.824l-157.187,0c-5.425,0 -9.824,-4.399 -9.824,-9.824l0,-39.297c0,-5.426 4.399,-9.824 9.824,-9.824l157.187,0zm-137.535,-29.474c0,-5.425 4.396,-9.824 9.82,-9.824l0.008,0c5.425,0 9.824,4.399 9.824,9.824c0,5.424 -4.398,9.824 -9.824,9.824c-5.426,0 -9.828,-4.399 -9.828,-9.824zm22.429,-79.578c2.714,4.699 1.104,10.706 -3.596,13.42c-1.546,0.893 -3.236,1.318 -4.902,1.318c-3.396,0 -6.697,-1.763 -8.518,-4.914l-16.318,-28.265l-8.749,0l0,23.353c0,5.425 -4.399,9.824 -9.824,9.824s-9.824,-4.399 -9.824,-9.824l0,-81.664c0,-5.425 4.399,-9.824 9.824,-9.824l24.245,0c18.785,0 34.068,15.284 34.068,34.068c0,13.404 -7.783,25.021 -19.067,30.578l12.661,21.93z" fill="#000033"/>
   </g>
   <g stroke="null" transform="matrix(0.9937721994508438,0,0,0.9937721994508438,-12385.584411310781,-12331.329032798292) " id="svg_17" display="none">
    <g stroke="null" id="svg_18" display="inline">
     <path stroke="null" id="svg_19" d="m12655.758267,12067.38688c-216.414,0 -392.502,176.085 -392.502,392.501c0,239.18 337.454,742.071 351.828,763.364c9.076,13.492 24.286,21.587 40.524,21.636l0.149,0c16.239,0 31.398,-7.996 40.525,-21.391c14.375,-21.047 351.974,-518.247 351.974,-763.609c0.003,-216.416 -176.084,-392.501 -392.498,-392.501zm147.188,441.563l-98.127,0l0,235.501c0,27.082 -21.979,49.062 -49.062,49.062c-27.082,0 -49.062,-21.979 -49.062,-49.062l0,-235.501l-98.126,0c-27.083,0 -49.062,-21.979 -49.062,-49.062c0,-27.083 21.979,-49.062 49.062,-49.062l98.126,0l0,-98.126c0,-27.083 21.979,-49.062 49.062,-49.062c27.083,0 49.062,21.979 49.062,49.062l0,98.126l98.127,0c27.082,0 49.061,21.979 49.061,49.062c0,27.082 -21.979,49.062 -49.061,49.062z" fill="#272343"/>
    </g>
   </g>
   <g stroke="null" transform="matrix(0.9937721994508438,0,0,0.9937721994508438,-12385.584411310781,-12331.329032798292) " id="svg_20" display="none">
    <path stroke="null" id="svg_21" d="m13191.976267,12142.80788l-40.574,-18.049l-18.065,-40.59l-44.156,4.611l-35.925,-26.052l-35.945,26.052l-44.135,-4.611l-18.052,40.572l-40.59,18.067l4.613,44.156l-26.052,35.924l26.052,35.945l-4.613,44.136l40.574,18.049l18.067,40.59l44.155,-4.611l35.926,26.052l35.944,-26.053l44.136,4.611l18.05,-40.574l40.59,-18.064l-4.614,-44.156l26.055,-35.924l-26.055,-35.945l4.614,-44.136zm-170.752,144.145l-45.327,-45.327l15.109,-15.055l30.218,30.163l90.596,-90.596l15.109,15.106l-105.705,105.709z" fill="#57A4FF"/>
    <path stroke="null" id="svg_22" d="m13217.741267,12219.75488l-24.858,-34.292l4.405,-42.115c0.24,-2.302 -1.027,-4.494 -3.142,-5.435l-38.692,-17.218l-17.218,-38.695c-0.946,-2.109 -3.136,-3.373 -5.436,-3.144l-42.122,4.403l-34.288,-24.856c-1.869,-1.355 -4.398,-1.355 -6.268,0l-34.292,24.855l-42.12,-4.403c-2.297,-0.219 -4.479,1.043 -5.435,3.139l-17.218,38.695l-38.695,17.223c-2.111,0.938 -3.378,3.13 -3.139,5.43l4.403,42.121l-24.856,34.292c-1.355,1.869 -1.355,4.397 0,6.267l24.856,34.29l-4.403,42.123c-0.242,2.3 1.024,4.494 3.139,5.436l38.695,17.218l17.218,38.694c0.951,2.102 3.135,3.365 5.435,3.145l42.12,-4.406l34.292,24.858c1.869,1.356 4.398,1.356 6.268,0l34.289,-24.858l42.122,4.406c2.3,0.231 4.487,-1.033 5.436,-3.139l17.218,-38.695l38.692,-17.223c2.112,-0.941 3.379,-3.131 3.142,-5.43l-4.405,-42.123l24.858,-34.29c1.357,-1.871 1.357,-4.404 -0.001,-6.273zm-34.702,35.945c-0.774,1.066 -1.126,2.38 -0.988,3.688l4.208,40.295l-37.024,16.482c-1.209,0.532 -2.179,1.496 -2.713,2.706l-16.47,37.024l-40.307,-4.213c-1.309,-0.135 -2.62,0.219 -3.684,0.993l-32.805,23.781l-32.812,-23.779c-0.91,-0.665 -2.005,-1.021 -3.129,-1.019c-0.188,0 -0.375,0 -0.534,0.025l-40.309,4.213l-16.469,-37.024c-0.537,-1.21 -1.501,-2.177 -2.711,-2.714l-37.045,-16.475l4.207,-40.295c0.136,-1.309 -0.216,-2.623 -0.988,-3.688l-23.778,-32.812l23.778,-32.812c0.772,-1.066 1.124,-2.38 0.988,-3.688l-4.207,-40.298l37.024,-16.479c1.209,-0.532 2.176,-1.497 2.71,-2.706l16.47,-37.024l40.309,4.213c1.306,0.13 2.617,-0.224 3.684,-0.993l32.812,-23.781l32.812,23.779c1.063,0.771 2.374,1.124 3.683,0.993l40.307,-4.213l16.47,37.024c0.537,1.209 1.504,2.174 2.714,2.711l37.023,16.475l-4.207,40.298c-0.139,1.309 0.214,2.623 0.988,3.688l23.775,32.812l-23.782,32.813z" fill="#1E81CE"/>
    <path stroke="null" id="svg_23" d="m13115.594267,12162.36388c-2.085,-2.085 -5.464,-2.085 -7.549,0l-86.821,86.821l-26.442,-26.394c-2.083,-2.078 -5.456,-2.078 -7.539,0l-15.136,15.043c-1.003,1.001 -1.568,2.362 -1.568,3.78c0,1.418 0.565,2.779 1.568,3.78l45.327,45.327c2.082,2.082 5.464,2.082 7.549,0l105.705,-105.708c2.082,-2.083 2.082,-5.463 0,-7.549l-15.094,-15.1zm-94.37,117.039l-37.772,-37.772l7.55,-7.531l26.453,26.399c2.083,2.08 5.459,2.08 7.544,0l86.821,-86.813l7.56,7.56l-98.156,98.157z" fill="#1E81CE"/>
   </g>
   <g stroke="null" transform="matrix(0.9937721994508438,0,0,0.9937721994508438,-12385.584411310781,-12331.329032798292) " id="svg_25" display="none">
    <path stroke="null" id="svg_26" d="m12599.403267,12522.45988l-9.707,0l0,19.414l9.707,0c5.354,0 9.708,-4.354 9.708,-9.706s-4.354,-9.708 -9.708,-9.708z" fill="#B21F66"/>
    <path stroke="null" id="svg_27" d="m12431.256267,12715.74988c-5.515,0 -10.001,4.486 -10.001,10.002l0,10l273.35,0l0,-10c0,-5.516 -4.488,-10.002 -10.002,-10.002l-253.347,0z" fill="#B21F66"/>
    <path stroke="null" id="svg_28" d="m12667.937267,12581.76588l0,-40.002l0,-4.024c0,-32.628 -14.284,-61.978 -36.919,-82.14c-0.682,-0.457 -1.298,-1.002 -1.847,-1.609c-19.208,-16.363 -44.089,-26.256 -71.24,-26.256c-60.658,0 -110.007,49.349 -110.007,110.006l0,158.009l220.014,0l0,-113.984l-0.001,0zm-118.35,-65.92c0,-3.652 2.961,-6.614 6.614,-6.614c3.651,0 6.614,2.962 6.614,6.614l0,54.976c0,3.652 -2.962,6.614 -6.614,6.614c-3.652,0 -6.614,-2.96 -6.614,-6.614l0,-54.976zm0.002,98.629l39.68,0c3.652,0 6.614,2.961 6.614,6.613s-2.961,6.614 -6.614,6.614l-39.68,0c-3.652,0 -6.614,-2.962 -6.614,-6.614s2.962,-6.613 6.614,-6.613zm-59.527,-43.653l0,-54.976c0,-3.652 2.961,-6.614 6.614,-6.614l16.322,0c12.646,0 22.935,10.289 22.935,22.936c0,9.023 -5.24,16.844 -12.837,20.585l8.523,14.763c1.827,3.164 0.743,7.208 -2.421,9.034c-1.04,0.601 -2.178,0.889 -3.3,0.889c-2.286,0 -4.508,-1.188 -5.734,-3.309l-10.984,-19.028l-5.89,0l0,15.721c0,3.652 -2.961,6.614 -6.614,6.614s-6.614,-2.963 -6.614,-6.615zm39.688,50.267c0,3.652 -2.96,6.614 -6.614,6.614c-3.652,0 -6.616,-2.962 -6.616,-6.614s2.959,-6.613 6.611,-6.613l0.005,0c3.653,-0.001 6.614,2.96 6.614,6.613zm85.974,52.909c0,3.652 -2.961,6.615 -6.614,6.615l-105.82,0c-3.651,0 -6.613,-2.963 -6.613,-6.615l0,-26.455c0,-3.652 2.961,-6.613 6.613,-6.613l105.82,0c3.652,0 6.614,2.961 6.614,6.613l0,26.455zm0.001,-96.562c-3.653,0 -6.617,-2.962 -6.617,-6.614s2.959,-6.613 6.611,-6.613l0.005,0c3.652,0 6.614,2.961 6.614,6.613s-2.961,6.614 -6.613,6.614zm-16.322,-22.335l-9.707,0l0,15.721c0,3.652 -2.962,6.614 -6.614,6.614c-3.652,0 -6.614,-2.962 -6.614,-6.614l0,-54.976c0,-3.652 2.961,-6.614 6.614,-6.614l16.321,0c12.646,0 22.936,10.289 22.936,22.934c0,12.647 -10.29,22.935 -22.936,22.935z" fill="#B21F66"/>
    <rect stroke="null" id="svg_29" height="13.227" width="92.592" fill="#B21F66" y="12654.15788" x="12509.904267"/>
    <path stroke="null" id="svg_30" d="m12657.256267,12066.38688c-248.17,0 -450.072,201.903 -450.072,450.073c0,102.364 33.493,198.827 96.866,278.944l353.206,446.684l353.207,-446.684c63.373,-80.128 96.865,-176.58 96.865,-278.944c0,-248.17 -201.902,-450.073 -450.072,-450.073zm7.394,215.446l0.004,-0.005c3.908,-3.905 10.237,-3.905 14.144,0c3.905,3.905 3.905,10.237 0,14.142c-1.953,1.953 -4.515,2.93 -7.075,2.93c-2.559,0 -5.117,-0.975 -7.07,-2.928c-3.906,-3.905 -3.909,-10.234 -0.003,-14.139zm248.607,299.935c0,5.523 -4.478,10 -10,10l-215.32,0l0,104.173c14.979,1.664 26.667,14.395 26.667,29.811l0,20c0,5.523 -4.478,10 -10,10l-293.349,0c-5.522,0 -10,-4.477 -10,-10l0,-20c0,-15.416 11.688,-28.146 26.667,-29.811l0,-158.2c0,-71.687 58.32,-130.006 130.006,-130.006c25.183,0 48.711,7.205 68.647,19.651l0,-53.63c0,-19.562 4.292,-38.403 12.756,-56c2.395,-4.977 8.373,-7.071 13.347,-4.677c4.977,2.394 7.071,8.37 4.678,13.347c-7.152,14.87 -10.779,30.794 -10.779,47.331l0,68.983c24.071,22.476 39.622,53.961 41.217,89.026l178.796,0l0,-158.009c0,-60.657 -49.349,-110.006 -110.006,-110.006c-16.538,0 -32.465,3.627 -47.338,10.782c-4.977,2.394 -10.953,0.301 -13.348,-4.677c-2.393,-4.977 -0.3,-10.953 4.678,-13.347c17.6,-8.466 36.443,-12.758 56.008,-12.758c71.686,0 130.006,58.32 130.006,130.006l0,158.199c14.979,1.664 26.668,14.396 26.668,29.813l0,19.999l-0.001,0zm-116.675,-213.986c5.521,0 10,4.477 10,10c0,5.523 -4.479,10 -10,10l-30,0l0,56.667c0,5.523 -4.479,10 -10,10c-5.522,0 -10,-4.477 -10,-10l0,-56.667l-30,0c-5.522,0 -10,-4.477 -10,-10c0,-5.523 4.478,-10 10,-10l30,0l0,-30c0,-5.523 4.478,-10 10,-10s10,4.477 10,10l0,30l30,0zm-0.001,133.982c0,5.523 -4.479,10 -10,10l-59.997,0c-5.522,0 -10,-4.477 -10,-10c0,-5.522 4.478,-10 10,-10l59.997,0c5.522,0.001 10,4.478 10,10z" fill="#B21F66"/>
    <path stroke="null" id="svg_31" d="m12522.706267,12532.16788c0,-5.353 -4.355,-9.708 -9.708,-9.708l-9.708,0l0,19.414l9.708,0c5.353,0 9.708,-4.354 9.708,-9.706z" fill="#B21F66"/>
    <path stroke="null" id="svg_32" d="m12883.256267,12551.76588l-195.319,0l0,20.002l205.32,0l0,-10c0,-5.515 -4.486,-10.002 -10.001,-10.002z" fill="#B21F66"/>
   </g>
   <g stroke="null" transform="matrix(0.9937721994508438,0,0,0.9937721994508438,-12385.584411310781,-12331.329032798292) " id="svg_34" display="none">
    <path stroke="null" id="svg_35" d="m12722.579267,12396.76688l-14.678,0l0,29.355l14.678,0c8.094,0 14.678,-6.583 14.678,-14.677c0,-8.094 -6.584,-14.678 -14.678,-14.678z" fill="#000033"/>
    <path stroke="null" id="svg_36" d="m12591.934267,12396.76588l-14.678,0l0,29.356l14.678,0c8.094,0 14.678,-6.584 14.678,-14.678c0,-8.094 -6.584,-14.678 -14.678,-14.678z" fill="#000033"/>
    <rect stroke="null" id="svg_37" height="20" width="140" fill="#000033" y="12595.89388" x="12587.256267"/>
    <path stroke="null" id="svg_38" d="m12657.256267,12066.38688c-248.17,0 -450.073,201.903 -450.073,450.073c0,102.364 33.494,198.827 96.866,278.944l353.207,446.684l353.208,-446.684c63.373,-80.128 96.865,-176.58 96.865,-278.944c-0.001,-248.17 -201.903,-450.073 -450.073,-450.073zm-134.353,213.157l0.005,-0.005c3.907,-3.904 10.237,-3.904 14.143,0c3.905,3.906 3.905,10.238 0,14.143c-1.953,1.953 -4.514,2.93 -7.075,2.93c-2.559,0 -5.117,-0.976 -7.07,-2.928c-3.905,-3.906 -3.908,-10.234 -0.003,-14.14zm364.353,446.351c0,5.523 -4.478,10 -10,10l-440,0c-5.522,0 -10,-4.477 -10,-10l0,-30c0,-22.057 17.944,-40 40,-40l0,-242.002c0,-35.793 10.128,-70.73 29.29,-101.036c2.951,-4.667 9.126,-6.06 13.797,-3.107c4.668,2.952 6.058,9.129 3.107,13.797c-17.136,27.101 -26.194,58.342 -26.194,90.346l0,242.001l340,0l0,-242.001c0,-93.738 -76.262,-170 -170,-170c-31.998,0 -63.239,9.058 -90.345,26.194c-4.668,2.953 -10.845,1.558 -13.797,-3.109c-2.951,-4.668 -1.559,-10.845 3.109,-13.797c30.309,-19.16 65.246,-29.288 101.033,-29.288c50.552,0 98.21,19.818 134.196,55.804c35.986,35.986 55.804,83.645 55.804,134.196l0,242.001c22.056,0 40,17.943 40,40l0,30.001zm-239.996,-190.002l59.996,0c5.522,0 10,4.479 10,10s-4.478,10 -10,10l-59.996,0c-5.522,0 -10,-4.479 -10,-10s4.477,-10 10,-10zm-0.003,-66.002l0,-83.125c0,-5.522 4.478,-10 10,-10c5.521,0 10,4.478 10,10l0,83.125c0,5.522 -4.479,10 -10,10c-5.523,0 -10,-4.477 -10,-10zm75.322,-23.77l-14.678,0l0,23.77c0,5.522 -4.479,10 -10,10c-5.522,0 -10,-4.478 -10,-10l0,-83.125c0,-5.522 4.478,-10 10,-10l24.678,0c19.121,0 34.678,15.556 34.678,34.677s-15.557,34.678 -34.678,34.678zm34.678,23.769c0,5.522 -4.477,10 -10,10s-10.004,-4.478 -10.004,-10s4.474,-10 9.996,-10l0.008,0c5.522,0 10,4.478 10,10zm-20.001,106.004c5.522,0 10,4.478 10,10l0,40c0,5.522 -4.478,10 -10,10l-160,0c-5.522,0 -10,-4.478 -10,-10l0,-40c0,-5.522 4.478,-10 10,-10l160,0zm-139.996,-30.001c0,-5.521 4.474,-10 9.996,-10l0.008,0c5.522,0 10,4.479 10,10s-4.477,10 -10,10c-5.523,0 -10.004,-4.478 -10.004,-10zm22.83,-81.002c2.762,4.783 1.123,10.898 -3.66,13.66c-1.574,0.909 -3.294,1.342 -4.99,1.342c-3.457,0 -6.817,-1.794 -8.67,-5.002l-16.61,-28.77l-8.905,0l0,23.77c0,5.522 -4.478,10 -10,10s-10,-4.478 -10,-10l0,-83.125c0,-5.522 4.478,-10 10,-10l24.678,0c19.121,0 34.678,15.557 34.678,34.678c0,13.644 -7.923,25.468 -19.409,31.125l12.888,22.322z" fill="#000033"/>
    <path stroke="null" id="svg_39" d="m12847.256267,12675.89488l-380,0c-11.028,0 -20,8.971 -20,20l0,20l420,0l0,-20c0,-11.029 -8.972,-20 -20,-20z" fill="#000033"/>
   </g>
   <g stroke="null" transform="matrix(0.9937721994508438,0,0,0.9937721994508438,-12385.584411310781,-12331.329032798292) " id="svg_40" display="none">
    <path stroke="null" id="svg_41" d="m12469.955267,12621.64188l-6.172,0l0,12.342l6.172,0c3.403,0 6.171,-2.768 6.171,-6.17c0.001,-3.403 -2.768,-6.172 -6.171,-6.172z" fill="#00ADB5"/>
    <path stroke="null" id="svg_42" d="m12546.402267,12339.37688c0,-12.006 -9.767,-21.772 -21.771,-21.772c-12.005,0 -21.771,9.768 -21.771,21.772c0,12.004 9.768,21.772 21.771,21.771c12.005,0 21.772,-9.766 21.771,-21.771z" fill="#00ADB5"/>
    <path stroke="null" id="svg_43" d="m12524.882267,12621.64188l-6.171,0l0,12.342l6.171,0c3.403,0 6.171,-2.768 6.171,-6.17c0,-3.403 -2.768,-6.172 -6.171,-6.172z" fill="#00ADB5"/>
    <path stroke="null" id="svg_44" d="m12657.256267,12066.38688c-248.17,0 -450.073,201.903 -450.073,450.073c0,102.364 33.494,198.827 96.866,278.944l353.207,446.684l353.208,-446.684c63.373,-80.128 96.865,-176.58 96.865,-278.944c-0.001,-248.17 -201.903,-450.073 -450.073,-450.073zm-132.624,191.427c44.973,0 81.563,36.589 81.564,81.565c0,27.619 -13.03,57.187 -38.73,87.881c-18.787,22.435 -37.345,36.888 -38.126,37.493c-1.386,1.073 -3.047,1.608 -4.708,1.608c-1.659,0 -3.32,-0.535 -4.707,-1.608c-1.15,-0.89 -28.43,-22.164 -50.248,-53.246c-2.44,-3.476 -1.602,-8.274 1.876,-10.714c3.477,-2.439 8.274,-1.6 10.714,1.877c15.252,21.729 33.817,38.719 42.36,46.022c15.837,-13.569 66.186,-60.546 66.186,-109.315c0,-36.492 -29.689,-66.181 -66.18,-66.181c-36.492,0 -66.18,29.689 -66.181,66.181c0,11.877 3.031,24.587 9.013,37.775c1.754,3.868 0.04,8.427 -3.828,10.181c-3.869,1.759 -8.427,0.041 -10.18,-3.829c-6.894,-15.197 -10.388,-30.044 -10.388,-44.127c0.001,-44.974 36.589,-81.563 81.563,-81.563zm32.306,219.461c-1.263,2.889 -4.087,4.613 -7.052,4.613c-1.03,0 -2.073,-0.207 -3.077,-0.646l-9.396,-4.107c-3.892,-1.7 -5.667,-6.235 -3.967,-10.128c1.7,-3.891 6.231,-5.668 10.127,-3.967l9.396,4.108c3.893,1.699 5.669,6.234 3.969,10.127zm-69.459,-137.899c0,-20.488 16.666,-37.155 37.153,-37.155c20.486,0 37.155,16.667 37.155,37.155s-16.667,37.156 -37.155,37.154c-20.486,0 -37.153,-16.666 -37.153,-37.154zm53.844,433.856l-9.05,4.822c-1.153,0.615 -2.391,0.905 -3.61,0.905c-2.751,0 -5.41,-1.479 -6.795,-4.075c-1.997,-3.751 -0.578,-8.408 3.171,-10.406l9.05,-4.823c3.75,-1.999 8.407,-0.577 10.405,3.171c1.997,3.749 0.578,8.408 -3.171,10.406zm36.199,-19.294l-9.05,4.822c-1.152,0.615 -2.391,0.906 -3.61,0.906c-2.751,0 -5.411,-1.48 -6.795,-4.076c-1.997,-3.749 -0.578,-8.408 3.17,-10.406l9.05,-4.824c3.75,-1.996 8.408,-0.576 10.405,3.172c1.998,3.747 0.578,8.406 -3.17,10.406zm-74.785,28.807c-1.387,1.071 -3.047,1.607 -4.708,1.607c-1.66,0 -3.32,-0.536 -4.707,-1.607c-3.615,-2.796 -88.517,-69.355 -88.517,-144.204c0,-16.764 4.502,-33.207 13.021,-47.547c2.17,-3.651 6.888,-4.855 10.54,-2.685c3.652,2.169 4.854,6.888 2.685,10.539c-7.108,11.966 -10.865,25.69 -10.865,39.692c0,57.891 60.318,113.297 77.836,128.162c17.507,-14.877 77.843,-70.356 77.843,-128.162c0,-42.922 -34.919,-77.84 -77.84,-77.84c-17.818,0 -34.583,5.857 -48.484,16.941c-3.323,2.648 -8.16,2.1 -10.809,-1.22c-2.647,-3.321 -2.102,-8.16 1.219,-10.809c16.417,-13.087 37.041,-20.294 58.075,-20.294c51.403,0 93.222,41.82 93.224,93.222c0.002,74.85 -84.899,141.41 -88.513,144.205zm-20.944,-132.462c1.161,2.012 0.472,4.583 -1.539,5.743c-0.662,0.382 -1.385,0.565 -2.098,0.565c-1.453,0 -2.865,-0.755 -3.645,-2.103l-6.982,-12.096l-3.745,0l0,9.993c0,2.321 -1.882,4.204 -4.204,4.204s-4.205,-1.883 -4.205,-4.204l0,-34.948c0,-2.321 1.883,-4.206 4.205,-4.206l10.375,0c8.038,0 14.579,6.542 14.579,14.581c0,5.736 -3.331,10.707 -8.16,13.085l5.419,9.386zm11.421,2.103l0,-34.948c0,-2.321 1.883,-4.206 4.205,-4.206c2.321,0 4.204,1.884 4.204,4.206l0,34.948c0,2.321 -1.883,4.204 -4.204,4.204c-2.322,0 -4.205,-1.881 -4.205,-4.204zm31.668,-9.993l-6.171,0l0,9.993c0,2.321 -1.883,4.204 -4.204,4.204c-2.322,0 -4.205,-1.883 -4.205,-4.204l0,-34.948c0,-2.321 1.882,-4.206 4.205,-4.206l10.375,0c8.039,0 14.58,6.542 14.58,14.579c0,8.042 -6.541,14.582 -14.58,14.582zm14.58,9.993c0,2.321 -1.883,4.204 -4.205,4.204c-2.322,0 -4.206,-1.883 -4.206,-4.204c0,-2.323 1.881,-4.204 4.203,-4.204l0.003,0c2.322,0 4.205,1.881 4.205,4.204zm48.01,-154.068c-1.029,0 -2.073,-0.206 -3.077,-0.646l-9.396,-4.107c-3.891,-1.7 -5.667,-6.235 -3.966,-10.127c1.701,-3.891 6.23,-5.667 10.127,-3.967l9.397,4.108c3.891,1.701 5.668,6.234 3.967,10.127c-1.263,2.889 -4.087,4.612 -7.052,4.612zm26.249,236.326l-9.049,4.823c-1.152,0.614 -2.391,0.906 -3.61,0.906c-2.751,0 -5.411,-1.48 -6.795,-4.077c-1.997,-3.749 -0.578,-8.408 3.17,-10.406l9.05,-4.823c3.75,-1.999 8.407,-0.579 10.404,3.171c1.998,3.747 0.577,8.408 -3.17,10.406zm8.259,-220.541l-9.395,-4.108c-3.892,-1.701 -5.667,-6.236 -3.966,-10.128c1.701,-3.89 6.234,-5.667 10.129,-3.965l9.395,4.108c3.893,1.702 5.667,6.236 3.967,10.128c-1.265,2.888 -4.089,4.611 -7.053,4.611c-1.028,0 -2.073,-0.206 -3.077,-0.646zm27.94,201.244l-9.051,4.823c-1.152,0.614 -2.39,0.904 -3.609,0.904c-2.751,0 -5.41,-1.479 -6.794,-4.075c-1.997,-3.749 -0.578,-8.407 3.171,-10.405l9.049,-4.823c3.751,-1.999 8.408,-0.577 10.405,3.17c1.997,3.749 0.577,8.408 -3.171,10.406zm9.647,-184.814l-9.396,-4.108c-3.893,-1.701 -5.667,-6.236 -3.966,-10.128c1.7,-3.891 6.237,-5.668 10.128,-3.967l9.396,4.108c3.893,1.703 5.668,6.237 3.968,10.128c-1.264,2.89 -4.088,4.612 -7.053,4.612c-1.03,0.001 -2.075,-0.206 -3.077,-0.645zm26.553,165.518l-9.048,4.824c-1.153,0.616 -2.391,0.906 -3.611,0.906c-2.75,0 -5.41,-1.479 -6.794,-4.075c-1.999,-3.749 -0.579,-8.407 3.169,-10.404l9.049,-4.823c3.748,-2.004 8.408,-0.58 10.406,3.17c1.997,3.748 0.577,8.406 -3.171,10.402zm11.032,-149.087l-9.396,-4.107c-3.891,-1.7 -5.667,-6.236 -3.966,-10.128c1.7,-3.892 6.232,-5.668 10.128,-3.967l9.396,4.108c3.893,1.701 5.67,6.235 3.968,10.127c-1.263,2.889 -4.086,4.613 -7.051,4.613c-1.03,0 -2.074,-0.207 -3.079,-0.646zm25.168,129.792l-9.048,4.823c-1.152,0.617 -2.391,0.907 -3.611,0.907c-2.75,0 -5.41,-1.479 -6.794,-4.076c-1.997,-3.748 -0.578,-8.406 3.17,-10.404l9.049,-4.823c3.747,-2.001 8.407,-0.579 10.405,3.17c1.996,3.749 0.578,8.407 -3.171,10.403zm12.42,-113.363l-9.396,-4.107c-3.892,-1.7 -5.668,-6.235 -3.967,-10.128c1.699,-3.891 6.232,-5.668 10.128,-3.966l9.396,4.107c3.893,1.701 5.668,6.235 3.968,10.128c-1.263,2.89 -4.088,4.612 -7.051,4.612c-1.029,0 -2.075,-0.207 -3.078,-0.646zm23.779,94.071l-9.049,4.822c-1.152,0.617 -2.39,0.908 -3.609,0.908c-2.75,0 -5.411,-1.48 -6.794,-4.076c-1.998,-3.749 -0.578,-8.407 3.17,-10.405l9.048,-4.823c3.749,-2.001 8.408,-0.582 10.405,3.17c1.996,3.749 0.578,8.407 -3.171,10.404zm4.411,-81.747c-3.892,-1.701 -5.666,-6.236 -3.966,-10.128c1.702,-3.891 6.234,-5.667 10.129,-3.965l9.396,4.108c3.891,1.702 5.666,6.236 3.966,10.128c-1.263,2.889 -4.088,4.611 -7.052,4.611c-1.029,0 -2.074,-0.206 -3.077,-0.646l-9.396,-4.108zm31.789,62.454l-9.05,4.823c-1.152,0.614 -2.391,0.905 -3.61,0.905c-2.751,0 -5.41,-1.479 -6.795,-4.076c-1.997,-3.75 -0.578,-8.408 3.17,-10.406l9.051,-4.823c3.75,-1.999 8.409,-0.579 10.406,3.17c1.996,3.748 0.577,8.409 -3.172,10.407zm5.798,-46.024c-3.893,-1.701 -5.668,-6.236 -3.967,-10.128c1.701,-3.891 6.238,-5.667 10.128,-3.967l9.396,4.108c3.893,1.702 5.667,6.237 3.967,10.128c-1.263,2.89 -4.088,4.613 -7.051,4.613c-1.029,0 -2.075,-0.207 -3.077,-0.646l-9.396,-4.108zm30.402,26.729l-9.05,4.824c-1.153,0.613 -2.391,0.906 -3.611,0.906c-2.751,0 -5.41,-1.48 -6.794,-4.078c-1.997,-3.749 -0.578,-8.408 3.171,-10.406l9.05,-4.823c3.751,-1.997 8.407,-0.577 10.406,3.171c1.996,3.748 0.577,8.407 -3.172,10.406zm82.731,-97.016c-2.062,3.713 -6.746,5.052 -10.458,2.988c-3.714,-2.062 -5.051,-6.745 -2.987,-10.457c10.358,-18.644 15.611,-36.463 15.611,-52.965c0,-40.477 -32.931,-73.407 -73.407,-73.407c-40.478,0 -73.407,32.93 -73.407,73.407c0,54.361 56.524,106.605 73.413,120.999c8.162,-6.938 25.564,-22.682 41.31,-43.179c2.588,-3.368 7.414,-4.003 10.784,-1.415c3.369,2.587 4.002,7.417 1.415,10.785c-22.63,29.461 -47.75,49.036 -48.808,49.856c-1.386,1.07 -3.047,1.607 -4.707,1.607s-3.321,-0.536 -4.708,-1.607c-0.855,-0.663 -21.167,-16.481 -41.739,-41.05c-28.096,-33.557 -42.344,-65.855 -42.344,-95.996c0,-48.958 39.832,-88.79 88.791,-88.79s88.79,39.831 88.789,88.787c-0.001,19.148 -5.905,39.482 -17.548,60.437zm-98.557,-58.22c-3.75,0 -6.79,-3.04 -6.79,-6.791s3.04,-6.791 6.79,-6.791l20.374,0l0,-20.373c0,-3.751 3.04,-6.791 6.791,-6.791c3.75,0 6.791,3.04 6.791,6.791l0,20.373l20.373,0c3.75,0 6.791,3.04 6.791,6.791s-3.041,6.791 -6.791,6.791l-20.373,0l0,38.482c0,3.751 -3.042,6.792 -6.791,6.792c-3.751,0 -6.791,-3.041 -6.791,-6.792l0,-38.482l-20.374,0z" fill="#00ADB5"/>
   </g>
   <g stroke="null" transform="matrix(0.9937721994508438,0,0,0.9937721994508438,-12385.584411310781,-12331.329032798292) " id="svg_45" display="none">
    <path stroke="null" id="svg_46" d="m13228.472267,12142.80788l-40.574,-18.049l-18.065,-40.59l-44.156,4.611l-35.924,-26.052l-35.945,26.052l-44.135,-4.611l-18.052,40.572l-40.59,18.067l4.613,44.156l-26.052,35.924l26.052,35.945l-4.613,44.136l40.574,18.049l18.067,40.59l44.155,-4.611l35.925,26.053l35.944,-26.053l44.136,4.611l18.05,-40.574l40.59,-18.064l-4.614,-44.156l26.055,-35.924l-26.055,-35.945l4.614,-44.137zm-170.752,144.145l-45.327,-45.327l15.109,-15.055l30.218,30.163l90.596,-90.596l15.109,15.106l-105.705,105.709z" fill="#57A4FF"/>
    <path stroke="null" id="svg_47" d="m13254.237267,12219.75488l-24.858,-34.292l4.405,-42.115c0.24,-2.302 -1.027,-4.494 -3.142,-5.435l-38.692,-17.218l-17.218,-38.695c-0.946,-2.109 -3.136,-3.373 -5.436,-3.144l-42.122,4.403l-34.288,-24.856c-1.869,-1.355 -4.398,-1.355 -6.268,0l-34.292,24.856l-42.12,-4.403c-2.297,-0.219 -4.479,1.043 -5.435,3.139l-17.218,38.695l-38.695,17.223c-2.111,0.938 -3.378,3.13 -3.139,5.43l4.403,42.121l-24.856,34.292c-1.355,1.869 -1.355,4.397 0,6.267l24.856,34.29l-4.403,42.123c-0.242,2.3 1.024,4.494 3.139,5.436l38.695,17.218l17.218,38.694c0.951,2.102 3.135,3.365 5.435,3.145l42.12,-4.406l34.292,24.858c1.869,1.356 4.398,1.356 6.268,0l34.289,-24.858l42.122,4.406c2.3,0.231 4.487,-1.033 5.436,-3.139l17.218,-38.695l38.692,-17.223c2.112,-0.941 3.379,-3.131 3.142,-5.43l-4.405,-42.123l24.858,-34.29c1.357,-1.872 1.357,-4.405 -0.001,-6.274zm-34.702,35.945c-0.774,1.066 -1.126,2.38 -0.988,3.688l4.208,40.295l-37.024,16.482c-1.209,0.532 -2.179,1.496 -2.713,2.706l-16.47,37.024l-40.307,-4.213c-1.309,-0.135 -2.62,0.219 -3.684,0.993l-32.806,23.779l-32.812,-23.779c-0.91,-0.665 -2.005,-1.021 -3.129,-1.019c-0.188,0 -0.375,0 -0.534,0.025l-40.309,4.213l-16.469,-37.024c-0.537,-1.21 -1.501,-2.177 -2.711,-2.714l-37.045,-16.475l4.207,-40.295c0.136,-1.309 -0.216,-2.623 -0.988,-3.688l-23.778,-32.812l23.778,-32.812c0.772,-1.066 1.124,-2.38 0.988,-3.688l-4.207,-40.298l37.024,-16.479c1.209,-0.532 2.176,-1.497 2.71,-2.706l16.47,-37.024l40.309,4.213c1.306,0.13 2.617,-0.224 3.684,-0.993l32.812,-23.779l32.812,23.779c1.063,0.771 2.374,1.124 3.683,0.993l40.307,-4.213l16.47,37.024c0.537,1.209 1.504,2.174 2.714,2.711l37.023,16.475l-4.207,40.298c-0.139,1.309 0.214,2.623 0.988,3.688l23.775,32.812l-23.781,32.813z" fill="#1E81CE"/>
    <path stroke="null" id="svg_48" d="m13152.090267,12162.36388c-2.085,-2.085 -5.464,-2.085 -7.549,0l-86.821,86.821l-26.442,-26.394c-2.083,-2.078 -5.456,-2.078 -7.539,0l-15.136,15.043c-1.003,1.001 -1.568,2.362 -1.568,3.78c0,1.418 0.565,2.779 1.568,3.78l45.327,45.327c2.082,2.082 5.464,2.082 7.549,0l105.705,-105.708c2.082,-2.083 2.082,-5.463 0,-7.549l-15.094,-15.1zm-94.37,117.039l-37.772,-37.772l7.55,-7.531l26.453,26.399c2.083,2.08 5.459,2.08 7.544,0l86.821,-86.813l7.56,7.56l-98.156,98.157z" fill="#1E81CE"/>
   </g>
   <g stroke="null" transform="matrix(0.9937721994508438,0,0,0.9937721994508438,-12385.584411310781,-12331.329032798292) " id="svg_49" display="none">
    <path stroke="null" id="svg_50" d="m13014.100267,12428.26988l-97.202,-43.24l-43.279,-97.24l-105.783,11.047l-86.063,-62.413l-86.112,62.413l-105.732,-11.047l-43.247,97.197l-97.24,43.283l11.052,105.783l-62.412,86.063l62.412,86.112l-11.052,105.734l97.203,43.239l43.283,97.24l105.781,-11.049l86.063,62.414l86.111,-62.414l105.734,11.049l43.241,-97.203l97.24,-43.276l-11.055,-105.784l62.419,-86.063l-62.419,-86.112l11.057,-105.733zm-409.066,345.324l-108.589,-108.589l36.197,-36.066l72.392,72.26l217.037,-217.037l36.197,36.19l-253.234,253.242z" fill="#57A4FF"/>
    <path stroke="null" id="svg_51" d="m13075.825267,12612.60888l-59.553,-82.152l10.554,-100.894c0.575,-5.515 -2.461,-10.767 -7.526,-13.021l-92.693,-41.248l-41.248,-92.7c-2.268,-5.052 -7.513,-8.081 -13.022,-7.532l-100.91,10.548l-82.146,-59.545c-4.478,-3.247 -10.537,-3.247 -15.015,0l-82.152,59.545l-100.905,-10.548c-5.503,-0.524 -10.729,2.499 -13.02,7.52l-41.248,92.7l-92.701,41.261c-5.058,2.249 -8.092,7.5 -7.519,13.008l10.549,100.907l-59.548,82.152c-3.247,4.478 -3.247,10.535 0,15.013l59.548,82.146l-10.549,100.912c-0.58,5.51 2.454,10.767 7.519,13.021l92.701,41.248l41.248,92.699c2.279,5.035 7.51,8.063 13.02,7.533l100.905,-10.557l82.152,59.553c4.478,3.25 10.537,3.25 15.015,0l82.146,-59.553l100.91,10.557c5.51,0.555 10.75,-2.475 13.022,-7.52l41.248,-92.701l92.693,-41.26c5.061,-2.255 8.095,-7.5 7.526,-13.008l-10.554,-100.912l59.553,-82.148c3.252,-4.477 3.252,-10.546 0,-15.024zm-83.134,86.112c-1.855,2.554 -2.697,5.701 -2.367,8.836l10.08,96.535l-88.697,39.486c-2.896,1.275 -5.22,3.584 -6.5,6.482l-39.455,88.699l-96.563,-10.094c-3.135,-0.322 -6.276,0.525 -8.824,2.379l-78.592,56.969l-78.605,-56.969c-2.18,-1.592 -4.803,-2.447 -7.495,-2.439c-0.449,0 -0.898,0 -1.28,0.061l-96.565,10.094l-39.454,-88.699c-1.287,-2.898 -3.596,-5.215 -6.494,-6.502l-88.748,-39.467l10.079,-96.535c0.325,-3.135 -0.517,-6.282 -2.367,-8.836l-56.965,-78.605l56.965,-78.605c1.851,-2.553 2.692,-5.701 2.367,-8.836l-10.079,-96.542l88.698,-39.479c2.896,-1.275 5.212,-3.585 6.492,-6.483l39.456,-88.698l96.566,10.093c3.128,0.313 6.27,-0.537 8.824,-2.379l78.605,-56.967l78.605,56.967c2.549,1.848 5.688,2.692 8.822,2.379l96.562,-10.093l39.456,88.698c1.287,2.897 3.604,5.208 6.502,6.495l88.695,39.468l-10.078,96.542c-0.332,3.135 0.512,6.283 2.367,8.836l56.958,78.605l-56.971,78.604z" fill="#1E81CE"/>
    <path stroke="null" id="svg_52" d="m12831.114267,12475.11988c-4.995,-4.996 -13.09,-4.996 -18.085,0l-207.995,207.996l-63.347,-63.23c-4.99,-4.978 -13.071,-4.978 -18.062,0l-36.26,36.04c-2.403,2.398 -3.758,5.658 -3.758,9.054c0,3.398 1.354,6.659 3.758,9.057l108.588,108.59c4.988,4.987 13.09,4.987 18.085,0l253.234,-253.243c4.987,-4.989 4.987,-13.088 0,-18.085l-36.158,-36.179zm-226.08,280.387l-90.49,-90.49l18.087,-18.042l63.373,63.245c4.99,4.982 13.078,4.982 18.073,0l207.994,-207.977l18.11,18.11l-235.147,235.154z" fill="#1E81CE"/>
   </g>
   <g stroke="null" transform="matrix(0.9937721994508438,0,0,0.9937721994508438,-12385.584411310781,-12331.329032798292) " id="svg_53" display="none">
    <g stroke="null" id="svg_54" display="inline">
     <g stroke="null" id="svg_55">
      <path stroke="null" id="svg_56" d="m12586.224267,12168.72488c-9.908,-4.341 -21.601,-2.291 -29.511,5.221l-280.874,265.271l-191.31,0c-15.074,0 -27.273,12.198 -27.273,27.271l0,381.818c0,15.074 12.199,27.273 27.273,27.273l191.309,0l280.876,265.27c5.168,4.9 11.905,7.459 18.724,7.459c3.649,0 7.325,-0.719 10.788,-2.238c10.015,-4.287 16.486,-14.141 16.486,-25.035l0,-927.273c-0.002,-10.895 -6.474,-20.749 -16.488,-25.037z" fill="#7E6BC4"/>
      <path stroke="null" id="svg_57" d="m12728.299267,12504.53788l-38.861,38.861c-8.962,8.962 -11.353,23.441 -3.869,33.668c16.489,22.549 26.233,50.324 26.233,80.331c0,30.005 -9.744,57.781 -26.233,80.328c-7.483,10.227 -5.093,24.709 3.869,33.67l38.861,38.859c11.901,11.904 31.344,10.07 41.625,-3.264c31.947,-41.439 50.97,-93.336 50.97,-149.593c0,-56.261 -19.022,-108.156 -50.97,-149.598c-10.281,-13.333 -29.724,-15.166 -41.625,-3.262z" fill="#7E6BC4"/>
      <path stroke="null" id="svg_58" d="m12922.543267,12350.33888c-10.253,-11.583 -28.512,-11.537 -39.447,-0.598l-38.588,38.587c-10.337,10.334 -10.239,26.578 -0.689,37.639c53.67,62.149 86.167,143.064 86.167,231.428c0,88.364 -32.497,169.28 -86.167,231.432c-9.553,11.063 -9.645,27.301 0.689,37.635l38.588,38.588c10.936,10.939 29.194,10.984 39.452,-0.596c72.476,-81.836 116.526,-189.4 116.526,-307.056c0,-117.66 -44.05,-225.223 -116.531,-307.059z" fill="#7E6BC4"/>
      <path stroke="null" id="svg_59" d="m13076.823267,12195.81188c-10.437,-11.327 -28.511,-11.293 -39.397,-0.404l-38.639,38.639c-10.363,10.363 -10.312,26.721 -0.427,37.547c93.007,101.864 149.804,237.33 149.804,385.804c0,148.474 -56.797,283.937 -149.804,385.802c-9.883,10.826 -9.938,27.186 0.427,37.547l38.639,38.637c10.89,10.893 28.963,10.924 39.4,-0.404c111.963,-121.522 180.43,-283.707 180.43,-461.582c0,-177.879 -68.467,-340.065 -180.433,-461.586z" fill="#7E6BC4"/>
     </g>
    </g>
   </g>
   <g stroke="null" transform="matrix(0.9937721994508438,0,0,0.9937721994508438,-12385.584411310781,-12331.329032798292) " id="svg_60" display="none">
    <g stroke="null" id="svg_61" display="inline">
     <path stroke="null" id="svg_62" d="m12884.590267,12688.59188l0,-158.199c0,-71.686 -58.32,-130.006 -130.006,-130.006c-19.564,0 -38.408,4.292 -56.008,12.758c-4.978,2.394 -7.07,8.37 -4.678,13.347c2.395,4.978 8.371,7.071 13.348,4.677c14.873,-7.155 30.8,-10.782 47.338,-10.782c60.657,0 110.006,49.349 110.006,110.006l0,158.01l-178.796,0c-1.595,-35.065 -17.146,-66.551 -41.217,-89.026l0,-68.983c0,-16.537 3.627,-32.461 10.779,-47.331c2.394,-4.977 0.3,-10.953 -4.677,-13.347c-4.974,-2.394 -10.952,-0.3 -13.347,4.677c-8.464,17.597 -12.756,36.438 -12.756,56l0,53.63c-19.936,-12.446 -43.464,-19.651 -68.647,-19.651c-71.686,0 -130.006,58.32 -130.006,130.006l0,158.2c-14.979,1.663 -26.667,14.394 -26.667,29.81l0,20.001c0,5.523 4.478,10 10,10l293.349,0c5.522,0 10,-4.477 10,-10l0,-20.001c0,-15.416 -11.688,-28.146 -26.667,-29.811l0,-104.172l215.32,0c5.522,0 10,-4.477 10,-10l0,-20c0,-15.416 -11.689,-28.149 -26.668,-29.813zm-328.659,-104.221c27.151,0 52.032,9.893 71.24,26.256c0.549,0.607 1.165,1.152 1.847,1.609c22.636,20.163 36.919,49.512 36.919,82.14l0,4.024l0,40.002l0,113.985l-220.013,0l0,-158.01c0,-60.657 49.349,-110.006 110.007,-110.006zm136.675,298.017l0,10.001l-273.35,0l0,-10.001c0,-5.515 4.486,-10.001 10.001,-10.001l253.347,0c5.513,0 10.002,4.486 10.002,10.001zm198.652,-153.983l-205.32,0l0,-20.002l195.319,0c5.515,0 10.001,4.486 10.001,10.002l0,10z" fill="#B21F66"/>
     <path stroke="null" id="svg_63" d="m12754.583267,12484.41788c-5.522,0 -10,4.477 -10,10l0,30l-30,0c-5.522,0 -10,4.477 -10,10c0,5.523 4.478,10 10,10l30,0l0,56.667c0,5.523 4.478,10 10,10c5.521,0 10,-4.477 10,-10l0,-56.667l30,0c5.521,0 10,-4.477 10,-10c0,-5.523 -4.479,-10 -10,-10l-30,0l0,-30c0,-5.523 -4.477,-10 -10,-10z" fill="#B21F66"/>
     <path stroke="null" id="svg_64" d="m12724.585267,12648.40088c-5.522,0 -10,4.477 -10,10c0,5.523 4.478,10 10,10l59.997,0c5.521,0 10,-4.477 10,-10c0,-5.522 -4.479,-10 -10,-10l-59.997,0z" fill="#B21F66"/>
     <path stroke="null" id="svg_65" d="m12669.723267,12455.53588c2.561,0 5.122,-0.977 7.075,-2.93c3.905,-3.905 3.905,-10.237 0,-14.142c-3.906,-3.905 -10.235,-3.905 -14.144,0l-0.004,0.005c-3.905,3.905 -3.902,10.234 0.002,14.139c1.954,1.953 4.512,2.928 7.071,2.928z" fill="#B21F66"/>
     <g stroke="null" id="svg_66">
      <g stroke="null" id="svg_67">
       <path stroke="null" id="svg_68" d="m12494.678267,12804.17988l0,26.455c0,3.652 2.961,6.614 6.613,6.614l105.82,0c3.652,0 6.614,-2.962 6.614,-6.614l0,-26.455c0,-3.652 -2.961,-6.613 -6.614,-6.613l-105.82,0c-3.652,0 -6.613,2.961 -6.613,6.613zm13.227,6.614l92.592,0l0,13.228l-92.592,0l0,-13.228z" fill="#B21F66"/>
       <path stroke="null" id="svg_69" d="m12540.976267,12777.72488c0,3.652 2.961,6.614 6.614,6.614l39.68,0c3.652,0 6.614,-2.962 6.614,-6.614s-2.961,-6.613 -6.614,-6.613l-39.68,0c-3.652,0 -6.614,2.961 -6.614,6.613z" fill="#B21F66"/>
       <path stroke="null" id="svg_70" d="m12527.751267,12777.72488c0,-3.652 -2.961,-6.613 -6.614,-6.613l-0.005,0c-3.651,0 -6.611,2.961 -6.611,6.613s2.964,6.614 6.616,6.614c3.654,0 6.614,-2.962 6.614,-6.614z" fill="#B21F66"/>
       <path stroke="null" id="svg_71" d="m12533.934267,12688.80388c0,-12.646 -10.289,-22.936 -22.935,-22.936l-16.322,0c-3.652,0 -6.614,2.962 -6.614,6.614l0,54.976c0,3.652 2.961,6.614 6.614,6.614s6.614,-2.962 6.614,-6.614l0,-15.721l5.89,0l10.984,19.028c1.226,2.121 3.448,3.309 5.734,3.309c1.122,0 2.26,-0.288 3.3,-0.889c3.164,-1.826 4.248,-5.87 2.421,-9.034l-8.523,-14.763c7.597,-3.74 12.837,-11.561 12.837,-20.584zm-32.643,-9.708l9.708,0c5.353,0 9.708,4.355 9.708,9.708s-4.355,9.706 -9.708,9.706l-9.708,0l0,-19.414z" fill="#B21F66"/>
       <path stroke="null" id="svg_72" d="m12554.202267,12734.07288c3.651,0 6.614,-2.962 6.614,-6.614l0,-54.976c0,-3.652 -2.962,-6.614 -6.614,-6.614c-3.652,0 -6.614,2.962 -6.614,6.614l0,54.976c0,3.654 2.961,6.614 6.614,6.614z" fill="#B21F66"/>
       <path stroke="null" id="svg_73" d="m12597.404267,12665.86788l-16.321,0c-3.652,0 -6.614,2.962 -6.614,6.614l0,54.976c0,3.652 2.961,6.614 6.614,6.614c3.651,0 6.614,-2.962 6.614,-6.614l0,-15.721l9.707,0c12.646,0 22.936,-10.288 22.936,-22.936c-0.001,-12.643 -10.29,-22.933 -22.936,-22.933zm0,32.642l-9.707,0l0,-19.414l9.707,0c5.354,0 9.708,4.355 9.708,9.708s-4.354,9.706 -9.708,9.706z" fill="#B21F66"/>
       <path stroke="null" id="svg_74" d="m12613.720267,12720.84488c-3.652,0 -6.611,2.961 -6.611,6.613s2.963,6.614 6.617,6.614c3.652,0 6.614,-2.962 6.614,-6.614s-2.961,-6.613 -6.614,-6.613l-0.006,0z" fill="#B21F66"/>
      </g>
     </g>
    </g>
   </g>
   <g stroke="null" transform="matrix(0.9937721994508438,0,0,0.9937721994508438,-12385.584411310781,-12331.329032798292) " id="svg_75" display="none">
    <g stroke="null" id="svg_76" display="inline">
     <g stroke="null" id="svg_77">
      <path stroke="null" id="svg_78" d="m12268.051267,12711.62088c-47.937,0 -94.941,16.425 -132.354,46.251c-7.568,6.035 -8.81,17.065 -2.777,24.633c6.035,7.568 17.06,8.815 24.633,2.78c31.68,-25.259 69.888,-38.608 110.496,-38.608c97.819,0 177.399,79.579 177.399,177.398c0,131.74 -137.508,258.181 -177.406,292.086c-39.923,-33.879 -177.392,-160.151 -177.392,-292.086c0,-31.91 8.562,-63.188 24.762,-90.457c4.943,-8.322 2.203,-19.076 -6.12,-24.021s-19.076,-2.203 -24.021,6.12c-19.413,32.681 -29.674,70.155 -29.674,108.36c0,170.581 193.493,322.271 201.731,328.644c3.159,2.445 6.944,3.666 10.728,3.666c3.783,0 7.568,-1.224 10.727,-3.666c8.236,-6.372 201.729,-158.063 201.729,-328.644c-0.004,-117.145 -95.311,-212.456 -212.461,-212.456z" fill="#00ADB5"/>
     </g>
    </g>
    <g stroke="null" id="svg_79" display="inline">
     <g stroke="null" id="svg_80">
      <path stroke="null" id="svg_81" d="m13052.903267,12318.07188c-111.579,0 -202.355,90.776 -202.355,202.355c0,68.69 32.469,142.299 96.502,218.775c46.885,55.994 93.176,92.044 95.126,93.554c3.159,2.444 6.944,3.665 10.728,3.665s7.568,-1.224 10.728,-3.665c2.411,-1.868 59.66,-46.481 111.234,-113.623c5.895,-7.676 4.453,-18.683 -3.225,-24.579c-7.681,-5.897 -18.68,-4.451 -24.579,3.225c-35.881,46.714 -75.542,82.594 -94.145,98.405c-38.491,-32.804 -167.311,-151.868 -167.311,-275.759c0,-92.248 75.049,-167.298 167.297,-167.298s167.297,75.05 167.297,167.298c0,37.609 -11.972,78.22 -35.578,120.708c-4.701,8.461 -1.654,19.134 6.809,23.833c8.459,4.704 19.137,1.652 23.834,-6.809c26.536,-47.759 39.991,-94.1 39.991,-137.737c0.003,-111.572 -90.773,-202.348 -202.353,-202.348z" fill="#00ADB5"/>
     </g>
    </g>
    <g stroke="null" id="svg_82" display="inline">
     <g stroke="null" id="svg_83">
      <path stroke="null" id="svg_84" d="m12328.684267,12157.59288c-46.692,0 -84.675,37.985 -84.675,84.678c0,46.692 37.985,84.675 84.675,84.675c46.69,0.002 84.676,-37.983 84.676,-84.675c0,-46.693 -37.989,-84.678 -84.676,-84.678zm-0.005,134.297c-27.356,0.002 -49.618,-22.259 -49.618,-49.617c0,-27.359 22.259,-49.62 49.618,-49.62s49.617,22.259 49.617,49.62c0.003,27.358 -22.256,49.617 -49.617,49.617z" fill="#00ADB5"/>
     </g>
    </g>
    <g stroke="null" id="svg_85" display="inline">
     <g stroke="null" id="svg_86">
      <path stroke="null" id="svg_87" d="m12328.684267,12056.38688c-102.497,0 -185.883,83.389 -185.883,185.886c0,32.095 7.964,65.932 23.674,100.568c3.996,8.817 14.384,12.734 23.201,8.726c8.815,-3.996 12.722,-14.386 8.723,-23.203c-13.631,-30.057 -20.541,-59.023 -20.541,-86.091c0.002,-83.166 67.662,-150.828 150.828,-150.828s150.828,67.662 150.828,150.828c0,111.147 -114.745,218.21 -150.839,249.134c-19.47,-16.646 -61.779,-55.364 -96.539,-104.888c-5.562,-7.924 -16.493,-9.837 -24.417,-4.277c-7.927,5.562 -9.839,16.495 -4.277,24.417c49.723,70.837 111.896,119.321 114.516,121.348c3.159,2.444 6.944,3.665 10.727,3.665c3.783,0 7.568,-1.221 10.728,-3.665c1.781,-1.379 44.076,-34.317 86.893,-85.447c58.572,-69.954 88.268,-137.339 88.268,-200.283c-0.007,-102.501 -83.395,-185.89 -185.89,-185.89z" fill="#00ADB5"/>
     </g>
    </g>
    <g stroke="null" id="svg_88" display="inline">
     <g stroke="null" id="svg_89">
      <path stroke="null" id="svg_90" d="m12564.587267,12608.35788l-21.412,-9.363c-8.876,-3.879 -19.207,0.173 -23.084,9.037c-3.876,8.871 0.169,19.207 9.038,23.084l21.412,9.363c2.288,1.001 4.669,1.472 7.015,1.472c6.753,0 13.188,-3.928 16.071,-10.509c3.877,-8.872 -0.169,-19.205 -9.04,-23.084z" fill="#00ADB5"/>
     </g>
    </g>
    <g stroke="null" id="svg_91" display="inline">
     <g stroke="null" id="svg_92">
      <path stroke="null" id="svg_93" d="m12907.228267,12758.13988l-21.412,-9.363c-8.876,-3.877 -19.205,0.169 -23.084,9.037c-3.876,8.871 0.169,19.207 9.038,23.084l21.412,9.363c2.287,1.001 4.669,1.472 7.015,1.472c6.755,0 13.193,-3.926 16.071,-10.509c3.874,-8.871 -0.171,-19.205 -9.04,-23.084z" fill="#00ADB5"/>
     </g>
    </g>
    <g stroke="null" id="svg_94" display="inline">
     <g stroke="null" id="svg_95">
      <path stroke="null" id="svg_96" d="m12478.926267,12570.91088l-21.415,-9.361c-8.881,-3.876 -19.205,0.172 -23.081,9.04c-3.877,8.871 0.171,19.207 9.039,23.081l21.415,9.361c2.288,1.001 4.667,1.472 7.013,1.472c6.757,0 13.193,-3.928 16.071,-10.512c3.876,-8.873 -0.174,-19.204 -9.042,-23.081z" fill="#00ADB5"/>
     </g>
    </g>
    <g stroke="null" id="svg_97" display="inline">
     <g stroke="null" id="svg_98">
      <path stroke="null" id="svg_99" d="m12393.266267,12533.46488l-21.415,-9.36c-8.88,-3.879 -19.207,0.171 -23.081,9.039c-3.876,8.871 0.171,19.207 9.04,23.082l21.415,9.36c2.287,1.001 4.666,1.472 7.013,1.472c6.757,0 13.192,-3.928 16.071,-10.512c3.874,-8.871 -0.174,-19.207 -9.043,-23.081z" fill="#00ADB5"/>
     </g>
    </g>
    <g stroke="null" id="svg_100" display="inline">
     <g stroke="null" id="svg_101">
      <path stroke="null" id="svg_102" d="m12992.888267,12795.58288l-21.415,-9.363c-8.864,-3.876 -19.205,0.172 -23.082,9.04c-3.876,8.869 0.169,19.205 9.04,23.081l21.415,9.363c2.285,1.001 4.667,1.473 7.013,1.473c6.753,0 13.19,-3.926 16.071,-10.512c3.874,-8.869 -0.171,-19.203 -9.042,-23.082z" fill="#00ADB5"/>
     </g>
    </g>
    <g stroke="null" id="svg_103" display="inline">
     <g stroke="null" id="svg_104">
      <path stroke="null" id="svg_105" d="m12821.569267,12720.69188l-21.415,-9.361c-8.878,-3.879 -19.207,0.171 -23.081,9.04c-3.877,8.871 0.171,19.207 9.04,23.081l21.415,9.361c2.285,1.001 4.666,1.472 7.012,1.472c6.755,0 13.191,-3.926 16.071,-10.512c3.874,-8.871 -0.173,-19.205 -9.042,-23.081z" fill="#00ADB5"/>
     </g>
    </g>
    <g stroke="null" id="svg_106" display="inline">
     <g stroke="null" id="svg_107">
      <path stroke="null" id="svg_108" d="m12735.904267,12683.24688l-21.415,-9.36c-8.878,-3.879 -19.207,0.171 -23.081,9.039c-3.877,8.871 0.171,19.208 9.039,23.082l21.415,9.36c2.288,1.001 4.667,1.472 7.013,1.472c6.757,0 13.193,-3.928 16.071,-10.512c3.877,-8.87 -0.17,-19.204 -9.042,-23.081z" fill="#00ADB5"/>
     </g>
    </g>
    <g stroke="null" id="svg_109" display="inline">
     <g stroke="null" id="svg_110">
      <path stroke="null" id="svg_111" d="m12650.244267,12645.80088l-21.414,-9.363c-8.867,-3.879 -19.205,0.172 -23.082,9.04c-3.876,8.869 0.169,19.205 9.04,23.081l21.415,9.363c2.283,1.001 4.666,1.473 7.013,1.473c6.755,0 13.192,-3.926 16.071,-10.512c3.876,-8.869 -0.169,-19.203 -9.043,-23.082z" fill="#00ADB5"/>
     </g>
    </g>
    <g stroke="null" id="svg_112" display="inline">
     <g stroke="null" id="svg_113">
      <path stroke="null" id="svg_114" d="m12373.948267,13207.32488c-4.554,-8.543 -15.168,-11.782 -23.714,-7.229l-20.625,10.992c-8.543,4.554 -11.777,15.171 -7.226,23.717c3.155,5.918 9.216,9.29 15.485,9.29c2.779,0 5.602,-0.663 8.229,-2.064l20.625,-10.992c8.544,-4.553 11.778,-15.171 7.226,-23.714z" fill="#00ADB5"/>
     </g>
    </g>
    <g stroke="null" id="svg_115" display="inline">
     <g stroke="null" id="svg_116">
      <path stroke="null" id="svg_117" d="m12456.446267,13163.35188c-4.552,-8.543 -15.169,-11.777 -23.714,-7.226l-20.625,10.992c-8.543,4.554 -11.777,15.171 -7.226,23.714c3.154,5.918 9.216,9.29 15.485,9.29c2.779,0 5.602,-0.663 8.227,-2.063l20.625,-10.992c8.544,-4.555 11.78,-15.175 7.228,-23.715z" fill="#00ADB5"/>
     </g>
    </g>
    <g stroke="null" id="svg_118" display="inline">
     <g stroke="null" id="svg_119">
      <path stroke="null" id="svg_120" d="m12538.944267,13119.38288c-4.552,-8.548 -15.166,-11.784 -23.712,-7.229l-20.625,10.992c-8.543,4.554 -11.777,15.171 -7.226,23.717c3.154,5.918 9.216,9.29 15.485,9.29c2.779,0 5.602,-0.663 8.227,-2.063l20.625,-10.992c8.541,-4.555 11.778,-15.175 7.226,-23.715z" fill="#00ADB5"/>
     </g>
    </g>
    <g stroke="null" id="svg_121" display="inline">
     <g stroke="null" id="svg_122">
      <path stroke="null" id="svg_123" d="m12951.447267,12899.51488c-4.552,-8.545 -15.169,-11.779 -23.717,-7.226l-20.625,10.992c-8.543,4.554 -11.777,15.171 -7.226,23.717c3.155,5.918 9.216,9.29 15.485,9.29c2.779,0 5.602,-0.663 8.229,-2.063l20.625,-10.992c8.544,-4.555 11.779,-15.175 7.229,-23.718z" fill="#00ADB5"/>
     </g>
    </g>
    <g stroke="null" id="svg_124" display="inline">
     <g stroke="null" id="svg_125">
      <path stroke="null" id="svg_126" d="m13033.947267,12855.54388c-4.556,-8.546 -15.168,-11.78 -23.716,-7.229l-20.625,10.992c-8.543,4.554 -11.777,15.171 -7.226,23.717c3.154,5.918 9.215,9.29 15.484,9.29c2.78,0 5.602,-0.663 8.229,-2.064l20.625,-10.992c8.545,-4.554 11.779,-15.171 7.229,-23.714z" fill="#00ADB5"/>
     </g>
    </g>
    <g stroke="null" id="svg_127" display="inline">
     <g stroke="null" id="svg_128">
      <path stroke="null" id="svg_129" d="m12868.943267,12943.48888c-4.552,-8.548 -15.169,-11.786 -23.712,-7.224l-20.622,10.992c-8.543,4.555 -11.777,15.169 -7.224,23.712c3.152,5.918 9.216,9.291 15.482,9.291c2.78,0 5.602,-0.663 8.227,-2.067l20.623,-10.992c8.543,-4.549 11.777,-15.167 7.226,-23.712z" fill="#00ADB5"/>
     </g>
    </g>
    <g stroke="null" id="svg_130" display="inline">
     <g stroke="null" id="svg_131">
      <path stroke="null" id="svg_132" d="m12621.444267,13075.40488c-4.552,-8.541 -15.166,-11.779 -23.714,-7.226l-20.625,10.992c-8.543,4.554 -11.777,15.171 -7.226,23.712c3.154,5.918 9.216,9.29 15.484,9.29c2.78,0 5.602,-0.663 8.227,-2.063l20.626,-10.992c8.544,-4.553 11.778,-15.17 7.228,-23.713z" fill="#00ADB5"/>
     </g>
    </g>
    <g stroke="null" id="svg_133" display="inline">
     <g stroke="null" id="svg_134">
      <path stroke="null" id="svg_135" d="m12786.445267,12987.45988c-4.552,-8.543 -15.174,-11.785 -23.712,-7.224l-20.623,10.992c-8.543,4.554 -11.777,15.169 -7.224,23.712c3.152,5.918 9.216,9.29 15.482,9.29c2.782,0 5.604,-0.663 8.229,-2.067l20.622,-10.992c8.543,-4.551 11.777,-15.166 7.226,-23.711z" fill="#00ADB5"/>
     </g>
    </g>
    <g stroke="null" id="svg_136" display="inline">
     <g stroke="null" id="svg_137">
      <path stroke="null" id="svg_138" d="m12703.944267,13031.43588c-4.554,-8.548 -15.173,-11.789 -23.714,-7.226l-20.623,10.992c-8.543,4.554 -11.777,15.169 -7.223,23.712c3.152,5.918 9.215,9.288 15.482,9.288c2.782,0 5.604,-0.661 8.229,-2.065l20.623,-10.992c8.544,-4.551 11.778,-15.166 7.226,-23.709z" fill="#00ADB5"/>
     </g>
    </g>
    <path stroke="null" id="svg_139" d="m13052.561267,12432.61088c-8.547,0 -15.477,6.929 -15.477,15.477l0,46.432l-46.432,0c-8.547,0 -15.477,6.929 -15.477,15.477c0,8.549 6.93,15.477 15.477,15.477l46.432,0l0,87.703c0,8.548 6.93,15.478 15.477,15.478c8.546,0 15.477,-6.93 15.477,-15.478l0,-87.703l46.432,0c8.546,0 15.477,-6.928 15.477,-15.477c0,-8.548 -6.931,-15.477 -15.477,-15.477l-46.432,0l0,-46.432c-0.001,-8.548 -6.93,-15.477 -15.477,-15.477z" fill="#00ADB5"/>
    <g stroke="null" id="svg_140" display="inline">
     <g stroke="null" id="svg_141">
      <path stroke="null" id="svg_142" d="m12237.299267,12899.62788c0,-18.321 -14.907,-33.229 -33.227,-33.229l-23.646,0c-5.292,0 -9.583,4.292 -9.583,9.583l0,79.646c0,5.292 4.292,9.582 9.583,9.582c5.291,0 9.581,-4.29 9.581,-9.582l0,-22.774l8.534,0l15.914,27.566c1.776,3.073 4.996,4.794 8.307,4.794c1.626,0 3.274,-0.418 4.782,-1.288c4.583,-2.646 6.154,-8.504 3.507,-13.088l-12.348,-21.388c11.004,-5.42 18.596,-16.749 18.596,-29.822zm-47.293,-14.065l14.065,0c7.755,0 14.064,6.311 14.064,14.065c0,7.754 -6.31,14.062 -14.064,14.062l-14.065,0l0,-28.127z" fill="#00ADB5"/>
      <path stroke="null" id="svg_143" d="m12266.662267,12965.20988c5.291,0 9.582,-4.29 9.582,-9.582l0,-79.646c0,-5.291 -4.291,-9.583 -9.582,-9.583c-5.292,0 -9.582,4.292 -9.582,9.583l0,79.646c0,5.294 4.29,9.582 9.582,9.582z" fill="#00ADB5"/>
      <path stroke="null" id="svg_144" d="m12329.252267,12866.39988l-23.645,0c-5.292,0 -9.582,4.292 -9.582,9.583l0,79.646c0,5.292 4.291,9.582 9.582,9.582c5.29,0 9.582,-4.29 9.582,-9.582l0,-22.774l14.063,0c18.321,0 33.227,-14.905 33.227,-33.229c0,-18.319 -14.907,-33.226 -33.227,-33.226zm0,47.29l-14.063,0l0,-28.127l14.063,0c7.756,0 14.063,6.311 14.063,14.065c0,7.754 -6.308,14.062 -14.063,14.062z" fill="#00ADB5"/>
      <path stroke="null" id="svg_145" d="m12352.889267,12946.04788c-5.291,0 -9.578,4.289 -9.578,9.58c0,5.292 4.293,9.582 9.586,9.582c5.292,0 9.582,-4.29 9.582,-9.582c0,-5.291 -4.291,-9.58 -9.582,-9.58l-0.008,0z" fill="#00ADB5"/>
     </g>
    </g>
   </g>
   <g stroke="null" transform="matrix(0.9937721994508438,0,0,0.9937721994508438,-12385.584411310781,-12331.329032798292) " id="svg_146" display="none">
    <path stroke="null" id="svg_147" d="m12360.591267,12711.64488l211.977,0l0,211.985c0.622,52.488 43.349,94.714 95.844,94.714c52.496,0 95.221,-42.226 95.844,-94.714l0,-615.653c-0.625,-52.49 -43.352,-94.714 -95.844,-94.714c-52.493,0 -95.222,42.224 -95.844,94.714l0,211.985l-211.977,0c-52.495,0.619 -94.72,43.347 -94.72,95.84c0.001,52.496 42.225,95.221 94.72,95.843z" fill="#FFFFFF"/>
    <path stroke="null" id="svg_148" d="m12976.238267,12519.96188l-211.982,0l0,-211.985c-0.625,-52.49 -43.352,-94.714 -95.844,-94.714c-52.493,0 -95.222,42.224 -95.844,94.714l0,615.649c0.622,52.488 43.349,94.718 95.844,94.718c52.496,0 95.221,-42.229 95.844,-94.718l0,-211.981l211.982,0c52.49,-0.619 94.717,-43.347 94.717,-95.842c0,-52.494 -42.226,-95.222 -94.717,-95.841z" fill="#A4C2F7"/>
    <path stroke="null" id="svg_149" d="m12918.731267,12519.96188l-211.985,0l0,-211.985c0,-52.096 -5.41,-94.714 -57.501,-94.714c-52.468,0.06 -95.158,42.251 -95.841,94.714l0,211.981l-134.186,0c-52.489,0.619 -94.713,43.351 -94.713,95.844c0,52.492 42.224,95.22 94.713,95.842l134.186,0l0,211.981c0.683,52.464 43.373,94.649 95.841,94.713c52.091,0 57.501,-42.622 57.501,-94.713l0,-211.98l211.984,0c52.488,-0.619 94.715,-43.347 94.715,-95.842c0,-52.494 -42.222,-95.222 -94.714,-95.841z" fill="#E3E7F2"/>
    <path stroke="null" id="svg_150" d="m12668.412267,13037.51188c-63.181,0.24 -114.63,-50.707 -115.008,-113.889l0,-192.81l-192.813,0c-63.078,-0.62 -113.883,-51.932 -113.883,-115.011c0,-63.078 50.805,-114.389 113.883,-115.013l192.813,0l0,-192.808c0.619,-63.077 51.93,-113.885 115.008,-113.885c63.084,0 114.393,50.809 115.016,113.885l0,192.809l192.805,0c63.078,0.621 113.891,51.932 113.891,115.013c0,63.08 -50.813,114.391 -113.891,115.011l-192.805,0l0,192.806c-0.387,63.185 -51.836,114.132 -115.016,113.892zm-307.821,-498.386c-41.902,0.622 -75.545,34.767 -75.545,76.676c0,41.908 33.643,76.051 75.545,76.671l211.977,0c5.088,0 9.964,2.019 13.56,5.609c3.596,3.596 5.611,8.472 5.611,13.558l0,211.982c0.619,41.9 34.767,75.541 76.673,75.541c41.908,0 76.051,-33.641 76.67,-75.541l0,-211.977c0,-5.086 2.018,-9.962 5.613,-13.557c3.594,-3.596 8.473,-5.614 13.561,-5.611l211.977,0c41.902,-0.62 75.545,-34.767 75.545,-76.671c0,-41.909 -33.643,-76.054 -75.545,-76.677l-211.977,0c-5.084,0.004 -9.963,-2.015 -13.561,-5.607c-3.596,-3.596 -5.613,-8.476 -5.611,-13.56l0,-211.981c-0.617,-41.901 -34.764,-75.545 -76.672,-75.545c-41.907,0 -76.051,33.645 -76.673,75.545l0,211.981c0.003,5.081 -2.016,9.96 -5.611,13.556c-3.593,3.596 -8.472,5.611 -13.556,5.608l-211.981,0l0,0z" fill="#428DFF"/>
   </g>
   <path stroke="null" id="svg_151" d="m88.67446,499.234637c-23.45203,0 -43.049218,-0.221611 -47.785536,-20.4091c-1.14085,-4.858552 2.834238,-24.363319 8.258247,-24.363319l17.874981,-7.950178c11.956073,0 21.652309,-0.932158 21.652309,-11.884522l0,-260.976505c0,-85.280561 75.47998,-154.419281 168.588485,-154.419281c93.10453,0 168.583516,69.137726 168.583516,154.419281l0,260.976505c0,10.952363 9.697229,12.878294 21.653302,12.878294l17.873987,6.956405c5.425002,0 9.400091,22.490059 8.259241,27.344636c-4.736318,20.187488 -24.333506,17.427783 -47.78653,17.427783l-337.172001,0z" fill="#EBEBEB"/>
   <g stroke="null" transform="matrix(0.9937721994508438,0,0,0.9937721994508438,-12385.584411310781,-12331.329032798292) " id="svg_152">
    <g stroke="null" id="svg_153">
     <path stroke="null" id="svg_154" d="m12911.449267,12841.51988l0,-242.002c0,-50.551 -19.818,-98.209 -55.803,-134.195c-35.986,-35.986 -83.645,-55.805 -134.197,-55.805c-35.787,0 -70.724,10.129 -101.033,29.289c-4.668,2.951 -6.06,9.129 -3.109,13.797c2.952,4.666 9.129,6.062 13.797,3.108c27.106,-17.136 58.346,-26.194 90.344,-26.194c93.738,0 170,76.263 170,170l0,242.001l-340,0l0,-242.001c0,-32.004 9.058,-63.244 26.194,-90.346c2.951,-4.668 1.561,-10.845 -3.107,-13.797c-4.671,-2.953 -10.846,-1.561 -13.797,3.107c-19.162,30.306 -29.29,65.242 -29.29,101.035l0,242.001c-22.056,0 -40,17.943 -40,40l0,30c0,5.523 4.478,10 10,10l440,0c5.523,0 10,-4.477 10,-10l0,-30c0.001,-22.055 -17.942,-39.998 -39.999,-39.998zm20,60l-420,0l0,-20c0,-11.029 8.972,-20 20,-20l380,0c11.029,0 20,8.971 20,20l0,20z"/>
     <path stroke="null" id="svg_155" d="m12631.450267,12771.51988l0,40c0,5.521 4.478,10 10,10l160,0c5.523,0 10,-4.479 10,-10l0,-40c0,-5.523 -4.477,-10 -10,-10l-160,0c-5.522,0 -10,4.476 -10,10zm20,10l140,0l0,20l-140,0l0,-20z"/>
     <path stroke="null" id="svg_156" d="m12594.170267,12482.23688c2.561,0 5.122,-0.977 7.075,-2.93c3.905,-3.904 3.905,-10.236 0,-14.143c-3.906,-3.904 -10.236,-3.904 -14.143,0l-0.005,0.005c-3.905,3.905 -3.902,10.233 0.003,14.14c1.953,1.953 4.511,2.928 7.07,2.928z"/>
    </g>
   </g>
   <g stroke="null" transform="matrix(0.9937721994508438,0,0,0.9937721994508438,-12385.584411310781,-12331.329032798292) " id="svg_157" opacity="0.2">
    <path stroke="null" id="svg_158" d="m12690.914267,12655.68888l6.908,-40.276c0.281,-1.646 -0.242,-2.572 -0.588,-2.983l-0.271,-0.265l0,0l0,0l-29.551,-28.803c-1.305,-1.273 -1.775,-3.176 -1.213,-4.908c0.121,-0.371 0.291,-0.713 0.49,-1.035l-9.06,1.317c-1.802,0.262 -3.303,1.524 -3.866,3.259c-0.563,1.732 -0.093,3.636 1.212,4.909l30.763,29.985l-7.262,42.341c-0.309,1.795 0.43,3.611 1.904,4.684s3.43,1.213 5.043,0.363l7.412,-3.895c-0.006,-0.006 -0.014,-0.008 -0.018,-0.012c-1.473,-1.069 -2.211,-2.885 -1.903,-4.681z" fill="#231F20"/>
   </g>
   <g stroke="null" transform="matrix(0.9937721994508438,0,0,0.9937721994508438,-12385.584411310781,-12331.329032798292) " id="svg_159">
    <path stroke="null" id="svg_160" d="m12682.188267,12675.01588c-1.852,0 -3.691,-0.582 -5.262,-1.725c-2.781,-2.021 -4.146,-5.381 -3.564,-8.768l6.891,-40.176l-29.192,-28.453c-2.461,-2.402 -3.33,-5.923 -2.269,-9.188c1.064,-3.271 3.837,-5.607 7.237,-6.103l40.34,-5.862l18.041,-36.553c1.52,-3.082 4.6,-4.999 8.039,-4.999s6.52,1.917 8.039,5.002l18.039,36.55l40.34,5.862c3.404,0.494 6.178,2.833 7.238,6.104c1.063,3.263 0.193,6.785 -2.268,9.187l-29.191,28.454l1.922,11.214c0.391,2.273 -1.135,4.434 -3.408,4.822c-2.275,0.391 -4.434,-1.137 -4.822,-3.409l-2.295,-13.378c-0.232,-1.355 0.217,-2.738 1.201,-3.697l30.762,-29.985c0.166,-0.161 0.227,-0.405 0.156,-0.624c-0.072,-0.224 -0.266,-0.387 -0.494,-0.42l-42.514,-6.178c-1.361,-0.198 -2.537,-1.051 -3.145,-2.285l-19.014,-38.522c-0.105,-0.212 -0.314,-0.342 -0.547,-0.342c-0.234,0 -0.445,0.13 -0.549,0.339l-19.014,38.525c-0.609,1.232 -1.785,2.087 -3.146,2.285l-42.512,6.178c-0.229,0.033 -0.424,0.197 -0.494,0.418c-0.071,0.218 -0.01,0.465 0.157,0.628l30.761,29.984c0.984,0.958 1.434,2.341 1.201,3.696l-7.264,42.341c-0.039,0.232 0.055,0.461 0.244,0.6c0.188,0.135 0.439,0.152 0.643,0.047l38.027,-19.992c1.217,-0.639 2.67,-0.639 3.887,0l38.023,19.99c0.166,0.088 0.367,0.156 0.645,-0.045c0.188,-0.135 0.283,-0.373 0.244,-0.602l-2.727,-15.892c-0.391,-2.273 1.137,-4.432 3.41,-4.822c2.27,-0.391 4.434,1.137 4.824,3.41l2.725,15.896c0.58,3.387 -0.787,6.746 -3.564,8.766c-1.543,1.121 -3.365,1.713 -5.271,1.713c-1.447,0 -2.891,-0.355 -4.17,-1.029l-36.08,-18.97l-36.082,18.968c-1.321,0.694 -2.753,1.04 -4.178,1.04z" fill="#231F20"/>
    <path stroke="null" id="svg_161" d="m12614.208267,12608.27388l-19.837,0c-2.308,0 -4.177,-1.869 -4.177,-4.177c0,-2.306 1.869,-4.176 4.177,-4.176l19.837,0c2.307,0 4.177,1.87 4.177,4.176c-0.001,2.308 -1.871,4.177 -4.177,4.177z" fill="#231F20"/>
    <path stroke="null" id="svg_162" d="m12850.529267,12608.27388l-19.838,0c-2.309,0 -4.178,-1.869 -4.178,-4.177c0,-2.306 1.869,-4.176 4.178,-4.176l19.838,0c2.307,0 4.176,1.87 4.176,4.176c0,2.308 -1.869,4.177 -4.176,4.177z" fill="#231F20"/>
    <path stroke="null" id="svg_163" d="m12631.884267,12698.83988c-1.069,0 -2.138,-0.408 -2.954,-1.225c-1.63,-1.631 -1.63,-4.275 0.001,-5.906l14.027,-14.025c1.63,-1.631 4.275,-1.631 5.905,0c1.631,1.631 1.631,4.275 0,5.906l-14.027,14.025c-0.814,0.817 -1.883,1.225 -2.952,1.225z" fill="#231F20"/>
    <path stroke="null" id="svg_164" d="m12798.986267,12531.73488c-1.068,0 -2.137,-0.406 -2.953,-1.223c-1.631,-1.631 -1.631,-4.275 0,-5.906l14.027,-14.026c1.631,-1.632 4.275,-1.632 5.906,0c1.631,1.63 1.631,4.275 0,5.905l-14.027,14.027c-0.814,0.817 -1.884,1.223 -2.953,1.223z" fill="#231F20"/>
    <path stroke="null" id="svg_165" d="m12722.449267,12736.35188c-2.307,0 -4.176,-1.869 -4.176,-4.176l0,-19.838c0,-2.307 1.869,-4.176 4.176,-4.176s4.176,1.871 4.176,4.176l0,19.838c0,2.307 -1.869,4.176 -4.176,4.176z" fill="#231F20"/>
    <path stroke="null" id="svg_166" d="m12722.449267,12500.03288c-2.307,0 -4.176,-1.87 -4.176,-4.177l0,-19.837c0,-2.307 1.869,-4.177 4.176,-4.177s4.176,1.871 4.176,4.177l0,19.837c0,2.308 -1.869,4.177 -4.176,4.177z" fill="#231F20"/>
    <path stroke="null" id="svg_167" d="m12813.014267,12698.83988c-1.068,0 -2.139,-0.408 -2.953,-1.225l-14.027,-14.027c-1.631,-1.631 -1.631,-4.273 0,-5.906c1.631,-1.631 4.275,-1.631 5.906,0l14.027,14.027c1.631,1.631 1.631,4.275 0,5.906c-0.816,0.817 -1.885,1.225 -2.953,1.225z" fill="#231F20"/>
    <path stroke="null" id="svg_168" d="m12645.912267,12531.73688c-1.069,0 -2.138,-0.408 -2.953,-1.225l-14.027,-14.026c-1.631,-1.63 -1.631,-4.275 0,-5.905c1.632,-1.631 4.276,-1.631 5.906,0l14.027,14.026c1.631,1.632 1.631,4.276 0,5.907c-0.816,0.815 -1.885,1.223 -2.953,1.223z" fill="#231F20"/>
   </g>
  </g>
 </g>
</svg>