<svg id="Camada_1" data-name="Camada 1" xmlns="http://www.w3.org/2000/svg" viewBox="0 0 50 50"><defs><style>.cls-1{fill:#fff;}.cls-2{fill:#fffefe;}</style></defs><title>Prancheta 1</title><path class="cls-1" d="M44.42,6.1A.87.87,0,0,0,43,6.1a1.33,1.33,0,0,0,0,1.66.86.86,0,0,0,1.38,0,1.33,1.33,0,0,0,0-1.66Z"/><path class="cls-1" d="M22,33.78a.86.86,0,0,0-1.38,0,1.33,1.33,0,0,0,0,1.66.87.87,0,0,0,1.38,0,1.33,1.33,0,0,0,0-1.66Z"/><path class="cls-2" d="M47.83,9.39A.89.89,0,0,0,46.51,9a1.29,1.29,0,0,0-.36,1.59A18.11,18.11,0,0,1,44,29.28l-.74.88a4.44,4.44,0,0,0-.82-1.53l-9.94-12a6.72,6.72,0,0,0,1.78-1.53l1.9-2.29a1.34,1.34,0,0,0,0-1.65.86.86,0,0,0-1.37,0L33,13.49a4.39,4.39,0,0,1-3.36,1.67H25.78a.89.89,0,0,0-.68.34L22.18,19A2,2,0,0,1,19,19a3.06,3.06,0,0,1,0-3.78l6.66-8c4.07-4.9,10.42-6,15.45-2.62a.89.89,0,0,0,1.32-.45,1.29,1.29,0,0,0-.38-1.58A12.82,12.82,0,0,0,32.89.47,13.7,13.7,0,0,0,25,4.8,13.47,13.47,0,0,0,15.14.3,13.68,13.68,0,0,0,4.6,5.55,19.83,19.83,0,0,0,.24,18.23,19.81,19.81,0,0,0,4.6,30.91l.36.44a1.2,1.2,0,0,0,.21.19A4.83,4.83,0,0,0,6.23,34.3,3.32,3.32,0,0,0,8.8,35.58H9v.18A4.89,4.89,0,0,0,10,38.86a3.39,3.39,0,0,0,2.58,1.28h.15c0,.06,0,.12,0,.18a4.84,4.84,0,0,0,1.07,3.1,3.37,3.37,0,0,0,2.58,1.28h.15A4.9,4.9,0,0,0,17.59,48a3.24,3.24,0,0,0,5.16,0l1.35-1.63,1.82,2.2a3.24,3.24,0,0,0,5.16,0,4.91,4.91,0,0,0,1.06-3.33h.18A3.36,3.36,0,0,0,34.9,44,4.88,4.88,0,0,0,36,40.67h.15a3.35,3.35,0,0,0,2.58-1.28,4.88,4.88,0,0,0,1.06-3.28h.15a3.36,3.36,0,0,0,2.58-1.29,4.55,4.55,0,0,0,.79-1.43.87.87,0,0,0,.26-.22l1.87-2.26C50.13,25.23,51.13,16.38,47.83,9.39ZM8.8,33.26a1.62,1.62,0,0,1-1.21-.6,2.38,2.38,0,0,1,0-2.92l1.67-2a1.51,1.51,0,0,1,2.42,0,2.36,2.36,0,0,1,0,2.91l-1.67,2A1.58,1.58,0,0,1,8.8,33.26Zm2.58,4a2.28,2.28,0,0,1-.5-1.45,2.3,2.3,0,0,1,.5-1.46l1.67-2h0a1.51,1.51,0,0,1,2.42,0,2.36,2.36,0,0,1,0,2.91l-1.67,2A1.51,1.51,0,0,1,11.38,37.21Zm3.79,4.56a2.28,2.28,0,0,1-.5-1.45,2.3,2.3,0,0,1,.5-1.46l1.67-2h0a1.55,1.55,0,0,1,1.21-.6,1.58,1.58,0,0,1,1.21.6,2.39,2.39,0,0,1,0,2.91l-1.67,2A1.52,1.52,0,0,1,15.17,41.77ZM23,44.32l-1.66,2a1.58,1.58,0,0,1-1.21.6,1.55,1.55,0,0,1-1.21-.6,2.36,2.36,0,0,1,0-2.91l1.67-2h0a1.51,1.51,0,0,1,2.41,0,2.26,2.26,0,0,1,.51,1.46A2.23,2.23,0,0,1,23,44.32ZM41.11,33.18a1.51,1.51,0,0,1-2.42,0l-4-4.84h0l-3.78-4.56a.86.86,0,0,0-1.37,0,1.34,1.34,0,0,0,0,1.65l7.81,9.4a2.36,2.36,0,0,1,0,2.91,1.52,1.52,0,0,1-2.42,0l-7.81-9.4a.85.85,0,0,0-1.37,0,1.32,1.32,0,0,0,0,1.64l3.79,4.56h0l4,4.85a2.36,2.36,0,0,1,0,2.91,1.52,1.52,0,0,1-2.42,0l-4-4.85a1,1,0,0,0-.25-.21l-1.15-1.38a.85.85,0,0,0-1.37,0,1.35,1.35,0,0,0,0,1.64L29.71,44a2.36,2.36,0,0,1,0,2.91,1.55,1.55,0,0,1-1.21.6,1.58,1.58,0,0,1-1.21-.6l-2.05-2.47a5,5,0,0,0,.24-1.56,4.85,4.85,0,0,0-1.07-3.11,3.36,3.36,0,0,0-2.57-1.28h-.15a4.91,4.91,0,0,0-1.06-3.27,3.36,3.36,0,0,0-2.58-1.29H17.9a4.87,4.87,0,0,0-1.06-3.28,3.36,3.36,0,0,0-2.58-1.29h-.15a4.88,4.88,0,0,0-1.06-3.28,3.24,3.24,0,0,0-5.16,0l-1.66,2a4.47,4.47,0,0,0-.54.82A17.33,17.33,0,0,1,2.17,18.23,17.22,17.22,0,0,1,6,7.2a11.88,11.88,0,0,1,9.17-4.57,11.7,11.7,0,0,1,8.48,3.8l-5.95,7.15a5.73,5.73,0,0,0,0,7.07,3.67,3.67,0,0,0,5.88,0l2.63-3.17h3.41a5.83,5.83,0,0,0,.84-.06L41.11,30.27A2.36,2.36,0,0,1,41.11,33.18Z"/></svg>