<?xml version="1.0" encoding="iso-8859-1"?>
<!-- Generator: Adobe Illustrator 19.0.0, SVG Export Plug-In . SVG Version: 6.00 Build 0)  -->
<svg version="1.1" id="Capa_1" xmlns="http://www.w3.org/2000/svg" xmlns:xlink="http://www.w3.org/1999/xlink" x="0px" y="0px"
	 viewBox="0 0 512 512" style="enable-background:new 0 0 512 512;" xml:space="preserve">
<g>
	<g>
		<path d="M502,399.492H348v-59.196c0-23.136,7.912-45.864,22.279-63.998l33.109-41.792c3.897-4.92,9.937-7.332,16.15-6.446
			c6.215,0.885,11.341,4.883,13.712,10.695c2.186,5.359,1.58,11.438-1.623,16.26l-35.458,53.391
			c-3.056,4.601-1.803,10.807,2.798,13.862s10.807,1.804,13.862-2.798l35.458-53.391c6.869-10.343,8.17-23.382,3.481-34.878
			c-5.086-12.469-16.081-21.045-29.413-22.942c-13.333-1.897-26.284,3.272-34.645,13.827l-33.109,41.792
			C337.447,285.531,328,312.671,328,340.296v59.196c-5.523,0-10,4.478-10,10v72.5c0,5.522,4.477,10,10,10s10-4.478,10-10v-62.5h154
			v62.5c0,5.522,4.477,10,10,10s10-4.478,10-10v-72.5C512,403.969,507.523,399.492,502,399.492z"/>
	</g>
</g>
<g>
	<g>
		<path d="M498.99,359.252c-1.86-1.86-4.44-2.93-7.07-2.93c-2.64,0-5.21,1.069-7.07,2.93c-1.87,1.86-2.93,4.44-2.93,7.07
			c0,2.64,1.06,5.21,2.93,7.069c1.86,1.87,4.43,2.931,7.07,2.931c2.63,0,5.21-1.061,7.07-2.931c1.86-1.859,2.93-4.43,2.93-7.069
			C501.92,363.692,500.85,361.112,498.99,359.252z"/>
	</g>
</g>
<g>
	<g>
		<path d="M479.78,156.131L434.179,46.314c-4.618-11.121-13.774-19.813-25.12-23.847c-11.347-4.033-23.934-3.073-34.537,2.64
			c-19.555,10.534-27.731,33.885-19.017,54.316l48.291,113.234c2.167,5.081,8.04,7.444,13.121,5.275
			c5.08-2.167,7.442-8.041,5.275-13.121L373.901,71.578c-4.63-10.857-0.286-23.265,10.106-28.863
			c5.717-3.08,12.234-3.578,18.352-1.403s10.858,6.675,13.349,12.672l45.601,109.817c13.674,32.931,20.608,67.708,20.608,103.367
			v57.823c0,5.522,4.477,10,10,10s10-4.478,10-10v-57.823C501.917,228.864,494.469,191.505,479.78,156.131z"/>
	</g>
</g>
<g>
	<g>
		<path d="M384.455,444.325l-0.08-0.087c-3.729-4.072-10.056-4.352-14.128-0.621c-4.073,3.729-4.352,10.056-0.622,14.129l0.08,0.087
			c1.972,2.153,4.67,3.246,7.378,3.246c2.412,0,4.832-0.867,6.75-2.625C387.906,454.725,388.185,448.398,384.455,444.325z"/>
	</g>
</g>
<g>
	<g>
		<path d="M184,399.492v-59.196c0-27.625-9.447-54.765-26.602-76.418l-33.109-41.792c-8.362-10.554-21.312-15.723-34.645-13.827
			c-13.332,1.897-24.327,10.473-29.413,22.942c-4.689,11.496-3.388,24.535,3.481,34.878L99.17,319.47
			c3.055,4.602,9.263,5.854,13.862,2.798c4.601-3.056,5.854-9.262,2.798-13.862l-35.458-53.391c-3.203-4.822-3.809-10.9-1.623-16.26
			c2.371-5.813,7.497-9.811,13.712-10.695c6.218-0.882,12.252,1.526,16.15,6.446l33.109,41.792
			C156.088,294.431,164,317.16,164,340.296v59.196H30.083V267.169c0-35.659,6.934-70.436,20.608-103.367L96.292,53.984
			c2.49-5.997,7.23-10.497,13.349-12.672c6.117-2.175,12.636-1.676,18.352,1.403c10.392,5.598,14.736,18.006,10.106,28.863
			L89.808,184.811c-2.167,5.08,0.195,10.955,5.275,13.121c5.079,2.167,10.955-0.195,13.121-5.275l48.291-113.233
			c8.714-20.431,0.538-43.782-19.017-54.316c-10.603-5.712-23.19-6.673-34.537-2.64c-11.346,4.034-20.502,12.726-25.12,23.847
			l-45.6,109.816c-14.689,35.375-22.137,72.733-22.137,111.037v132.323H10c-5.523,0-10,4.478-10,10v72.5c0,5.522,4.477,10,10,10
			s10-4.478,10-10v-62.5h154v62.5c0,5.522,4.477,10,10,10s10-4.478,10-10v-72.5C194,403.969,189.523,399.492,184,399.492z"/>
	</g>
</g>
<g>
	<g>
		<path d="M141.753,443.617c-4.073-3.731-10.399-3.45-14.128,0.621l-0.08,0.087c-3.73,4.073-3.452,10.399,0.622,14.129
			c1.919,1.758,4.338,2.625,6.75,2.625c2.707,0,5.406-1.093,7.378-3.246l0.08-0.087
			C146.105,453.673,145.827,447.347,141.753,443.617z"/>
	</g>
</g>
<g>
	<g>
		<path d="M295.662,111.014c-14.404,0-28.399,5.261-39.662,14.695c-11.263-9.434-25.258-14.695-39.662-14.695
			c-35.619,0-64.597,31.283-64.597,69.734c0,22.066,16.937,48.922,50.339,79.822c23.84,22.055,47.31,38.08,48.297,38.752
			c1.697,1.153,3.66,1.73,5.623,1.73s3.926-0.577,5.623-1.73c0.987-0.672,24.458-16.697,48.297-38.752
			c33.403-30.9,50.339-57.756,50.339-79.822C360.259,142.296,331.281,111.014,295.662,111.014z M296.508,245.732
			c-16.018,14.837-32.234,27.072-40.51,33.067c-8.237-5.966-24.344-18.114-40.337-32.91c-28.322-26.201-43.92-49.335-43.92-65.141
			c0-27.424,20.006-49.734,44.597-49.734c12.206,0,23.605,5.408,32.099,15.228c1.899,2.196,4.66,3.458,7.563,3.458
			s5.664-1.262,7.563-3.458c8.493-9.82,19.893-15.228,32.099-15.228c24.591,0,44.597,22.311,44.597,49.734
			C340.259,196.519,324.722,219.598,296.508,245.732z"/>
	</g>
</g>
<g>
</g>
<g>
</g>
<g>
</g>
<g>
</g>
<g>
</g>
<g>
</g>
<g>
</g>
<g>
</g>
<g>
</g>
<g>
</g>
<g>
</g>
<g>
</g>
<g>
</g>
<g>
</g>
<g>
</g>
</svg>
