<?xml version="1.0" encoding="utf-8"?>
<!-- Generator: Adobe Illustrator 16.0.0, SVG Export Plug-In . SVG Version: 6.00 Build 0)  -->
<!DOCTYPE svg PUBLIC "-//W3C//DTD SVG 1.1//EN" "http://www.w3.org/Graphics/SVG/1.1/DTD/svg11.dtd">
<svg version="1.1" id="Layer_1" xmlns="http://www.w3.org/2000/svg" xmlns:xlink="http://www.w3.org/1999/xlink" x="0px" y="0px"
	 width="50px" height="50px" viewBox="973.782 -616.786 50 50" enable-background="new 973.782 -616.786 50 50"
	 xml:space="preserve">
<g>
	<circle fill="#3FB1CF" cx="998.782" cy="-591.786" r="25"/>
	<g>
		<path fill="#EBEBEB" d="M986.54-576.009c-1.707,0-3.136-0.017-3.481-1.488c-0.083-0.354,0.207-1.776,0.603-1.776l1.302-0.579
			c0.872,0,1.577-0.067,1.577-0.866v-19.02c0-6.215,5.502-11.253,12.288-11.253c6.784,0,12.286,5.039,12.286,11.253v19.02
			c0,0.799,0.707,0.938,1.577,0.938l1.304,0.507c0.394,0,0.686,1.639,0.602,1.993c-0.346,1.472-1.773,1.271-3.482,1.271H986.54z"/>
		<g>
			<g>
				<path d="M1012.542-581.039v-17.526c0-3.662-1.434-7.114-4.041-9.72c-2.605-2.606-6.058-4.041-9.718-4.041
					c-2.593,0-5.123,0.733-7.317,2.121c-0.34,0.213-0.439,0.661-0.225,1c0.213,0.338,0.66,0.439,0.998,0.225
					c1.964-1.241,4.225-1.897,6.544-1.897c6.787,0,12.311,5.523,12.311,12.313v17.526h-24.624v-17.526
					c0-2.318,0.656-4.581,1.897-6.544c0.213-0.339,0.112-0.786-0.225-0.999c-0.339-0.214-0.786-0.113-1,0.225
					c-1.388,2.194-2.12,4.725-2.12,7.317v17.527c-1.598,0-2.898,1.3-2.898,2.897v2.172c0,0.399,0.324,0.724,0.726,0.724h31.867
					c0.398,0,0.724-0.325,0.724-0.724v-2.172C1015.44-579.74,1014.139-581.039,1012.542-581.039z M1013.991-576.694h-30.419v-1.448
					c0-0.799,0.65-1.449,1.45-1.449h27.52c0.8,0,1.449,0.65,1.449,1.449V-576.694z"/>
				<path d="M992.263-586.109v2.897c0,0.4,0.324,0.724,0.726,0.724h11.588c0.398,0,0.725-0.324,0.725-0.724v-2.897
					c0-0.4-0.326-0.725-0.725-0.725h-11.588C992.588-586.833,992.263-586.509,992.263-586.109z M993.712-585.385h10.14v1.449h-10.14
					V-585.385z"/>
				<path d="M989.563-607.06c0.186,0,0.372-0.071,0.513-0.213c0.284-0.282,0.284-0.741,0-1.024c-0.282-0.283-0.741-0.283-1.024,0v0
					c-0.282,0.283-0.282,0.741,0,1.023C989.194-607.131,989.38-607.06,989.563-607.06z"/>
			</g>
		</g>
		<g opacity="0.2">
			<path fill="#231F20" d="M996.571-594.498l0.5-2.917c0.02-0.12-0.018-0.186-0.042-0.216l-0.021-0.02l0,0l0,0l-2.14-2.085
				c-0.096-0.092-0.129-0.229-0.088-0.356c0.009-0.026,0.021-0.052,0.034-0.074l-0.656,0.096c-0.13,0.019-0.238,0.11-0.279,0.235
				c-0.04,0.125-0.007,0.264,0.089,0.355l2.228,2.172l-0.527,3.066c-0.021,0.13,0.031,0.262,0.139,0.339
				c0.107,0.078,0.248,0.088,0.365,0.026l0.536-0.282v-0.001C996.601-594.237,996.548-594.368,996.571-594.498z"/>
		</g>
		<g>
			<path fill="#231F20" d="M995.939-593.098c-0.135,0-0.268-0.042-0.382-0.125c-0.201-0.146-0.3-0.391-0.258-0.635l0.498-2.909
				l-2.113-2.061c-0.179-0.175-0.242-0.43-0.165-0.667c0.078-0.236,0.278-0.405,0.525-0.441l2.922-0.425l1.307-2.647
				c0.108-0.223,0.333-0.362,0.581-0.362c0.25,0,0.472,0.14,0.582,0.363l1.307,2.646l2.923,0.425
				c0.246,0.035,0.446,0.206,0.522,0.442c0.077,0.236,0.015,0.491-0.163,0.666l-2.115,2.061l0.14,0.812
				c0.028,0.164-0.081,0.32-0.247,0.349c-0.165,0.028-0.321-0.083-0.349-0.247l-0.167-0.968c-0.016-0.099,0.017-0.199,0.087-0.268
				l2.229-2.172c0.013-0.011,0.017-0.029,0.012-0.045c-0.005-0.017-0.02-0.028-0.035-0.03l-3.08-0.447
				c-0.098-0.015-0.184-0.076-0.227-0.166l-1.378-2.789c-0.009-0.016-0.023-0.025-0.04-0.025s-0.032,0.009-0.039,0.024l-1.378,2.79
				c-0.044,0.09-0.129,0.151-0.228,0.166l-3.079,0.447c-0.017,0.002-0.03,0.015-0.035,0.03c-0.006,0.016-0.001,0.034,0.01,0.045
				l2.229,2.172c0.07,0.069,0.104,0.169,0.087,0.268l-0.526,3.066c-0.003,0.017,0.005,0.033,0.018,0.043
				c0.015,0.01,0.032,0.011,0.048,0.003l2.754-1.447c0.088-0.047,0.192-0.047,0.282,0l2.754,1.447
				c0.01,0.006,0.025,0.012,0.046-0.003c0.015-0.01,0.021-0.027,0.018-0.044l-0.197-1.151c-0.029-0.165,0.081-0.321,0.246-0.349
				s0.322,0.082,0.351,0.247l0.197,1.151c0.042,0.246-0.058,0.489-0.26,0.635c-0.111,0.081-0.241,0.124-0.381,0.124
				c-0.104,0-0.21-0.025-0.303-0.075l-2.612-1.373l-2.612,1.373C996.145-593.123,996.041-593.098,995.939-593.098z"/>
			<path fill="#231F20" d="M991.014-597.932h-1.437c-0.167,0-0.303-0.136-0.303-0.302c0-0.167,0.136-0.303,0.303-0.303h1.437
				c0.168,0,0.305,0.135,0.305,0.303C991.319-598.068,991.182-597.932,991.014-597.932z"/>
			<path fill="#231F20" d="M1008.13-597.932h-1.436c-0.168,0-0.303-0.136-0.303-0.302c0-0.167,0.135-0.303,0.303-0.303h1.436
				c0.168,0,0.303,0.135,0.303,0.303C1008.432-598.068,1008.298-597.932,1008.13-597.932z"/>
			<path fill="#231F20" d="M992.295-591.373c-0.076,0-0.154-0.029-0.214-0.088c-0.117-0.118-0.117-0.309,0-0.428l1.017-1.015
				c0.117-0.118,0.31-0.118,0.428,0s0.118,0.31,0,0.428l-1.016,1.015C992.45-591.403,992.374-591.373,992.295-591.373z"/>
			<path fill="#231F20" d="M1004.397-603.475c-0.077,0-0.153-0.029-0.213-0.088c-0.119-0.118-0.119-0.31,0-0.427l1.016-1.017
				c0.117-0.117,0.31-0.117,0.427,0c0.119,0.118,0.119,0.31,0,0.428l-1.015,1.016
				C1004.552-603.504,1004.475-603.475,1004.397-603.475z"/>
			<path fill="#231F20" d="M998.854-588.656c-0.167,0-0.302-0.135-0.302-0.303v-1.436c0-0.167,0.135-0.303,0.302-0.303
				c0.168,0,0.303,0.135,0.303,0.303v1.436C999.157-588.791,999.022-588.656,998.854-588.656z"/>
			<path fill="#231F20" d="M998.854-605.771c-0.167,0-0.302-0.135-0.302-0.303v-1.436c0-0.167,0.135-0.303,0.302-0.303
				c0.168,0,0.303,0.135,0.303,0.303v1.436C999.157-605.906,999.022-605.771,998.854-605.771z"/>
			<path fill="#231F20" d="M1005.414-591.373c-0.078,0-0.155-0.029-0.214-0.088l-1.016-1.015c-0.119-0.119-0.119-0.31,0-0.428
				c0.117-0.118,0.309-0.118,0.428,0l1.015,1.015c0.119,0.119,0.119,0.31,0,0.428
				C1005.569-591.403,1005.491-591.373,1005.414-591.373z"/>
			<path fill="#231F20" d="M993.312-603.475c-0.078,0-0.155-0.029-0.215-0.089l-1.017-1.016c-0.117-0.118-0.117-0.309,0-0.427
				c0.119-0.118,0.31-0.118,0.429,0l1.016,1.016c0.118,0.118,0.118,0.309,0,0.427C993.467-603.504,993.388-603.475,993.312-603.475z
				"/>
		</g>
	</g>
</g>
</svg>
